<svg width="267" height="232" viewBox="0 0 267 232" fill="none" xmlns="http://www.w3.org/2000/svg">
<path d="M138.5 125L75 68" stroke="#EBEBEB" stroke-linecap="round"/>
<path d="M141 126L234.5 103" stroke="#EBEBEB" stroke-linecap="round"/>
<path d="M140 129C141.6 130.2 179.667 167.833 198.5 186.5" stroke="#EBEBEB" stroke-linecap="round"/>
<path d="M140.5 126L41 165" stroke="#EBEBEB" stroke-linecap="round"/>
<path d="M143.699 123.7L70.501 119" stroke="#EBEBEB" stroke-linecap="round"/>
<path d="M139.5 124C173.866 89.6339 193.134 70.3661 227.5 36" stroke="#EBEBEB" stroke-linecap="round"/>
<g filter="url(#filter0_d_301_3052)">
<circle cx="139" cy="124" r="40" fill="white"/>
<circle cx="139" cy="124" r="34" stroke="white" stroke-width="12"/>
</g>
<path d="M143.524 111L139.357 114.2L146.663 118.073V124.023L151 120.711V115.322L143.524 111Z" fill="#5E4BF5"/>
<path d="M151 133.004V125.033L146.663 128.345V136.316L151 133.004Z" fill="#5E4BF5"/>
<path d="M134.849 125.595L128 122.339V131.096L134.849 134.407V125.595Z" fill="#5E4BF5"/>
<path d="M142.667 120.374L128.057 113.358V118.129L138.444 123.125V135.979L142.667 138V120.374Z" fill="#5E4BF5"/>
<circle cx="229.5" cy="33.5" r="11.5" fill="#1A2634"/>
<g filter="url(#filter1_d_301_3052)">
<circle cx="229.5" cy="33.5" r="17.5" fill="#1A2634" fill-opacity="0.07" shape-rendering="crispEdges"/>
</g>
<rect x="223.875" y="28.75" width="11.25" height="9.375" rx="2" stroke="white"/>
<path d="M224.5 31.875H234.5" stroke="white" stroke-linecap="round"/>
<path d="M228.25 35H230.75" stroke="white" stroke-linecap="round"/>
<path d="M229.5 33.75L229.5 36.25" stroke="white" stroke-linecap="round"/>
<path d="M227 26.875L227 29.375" stroke="white" stroke-linecap="round"/>
<path d="M232 26.875L232 29.375" stroke="white" stroke-linecap="round"/>
<circle cx="79.5002" cy="72.5" r="10.1857" fill="#1A2634"/>
<g filter="url(#filter2_d_301_3052)">
<circle cx="79.5" cy="72.5" r="15.5" fill="#1A2634" fill-opacity="0.07" shape-rendering="crispEdges"/>
</g>
<g clip-path="url(#clip0_301_3052)">
<path d="M79.5 75.2272C78.0022 75.2272 76.7728 74.012 76.7728 72.5C76.7728 71.0022 77.988 69.7728 79.5 69.7728C80.9978 69.7728 82.2272 70.988 82.2272 72.5C82.2272 73.9978 80.9978 75.2272 79.5 75.2272ZM79.5 70.7761C78.5533 70.7761 77.7761 71.5533 77.7761 72.5C77.7761 73.4467 78.5533 74.2239 79.5 74.2239C80.4467 74.2239 81.2239 73.4467 81.2239 72.5C81.2239 71.5533 80.4467 70.7761 79.5 70.7761ZM79.5 79H79.4293C78.9348 79 78.5109 78.9435 78.4826 78.9435C78.2565 78.9152 78.087 78.7457 78.0446 78.5196L77.9033 77.5022C77.5924 77.4033 77.2957 77.2761 77.013 77.1207L76.2217 77.7283C76.038 77.8696 75.7978 77.8554 75.6141 77.7283C75.6 77.7141 75.2609 77.4457 74.9076 77.1065L74.8511 77.05C74.4978 76.6967 74.2435 76.3576 74.2293 76.3435C74.088 76.1598 74.088 75.9196 74.2293 75.7359L74.8511 74.9163C74.6957 74.6337 74.5826 74.3228 74.4837 74.012L73.4946 73.8707C73.2685 73.8424 73.0989 73.6587 73.0707 73.4326C73.0565 73.4185 73 72.9946 73 72.5V72.4293C73 71.9348 73.0565 71.5109 73.0565 71.4826C73.0848 71.2565 73.2543 71.087 73.4804 71.0446L74.4978 70.9033C74.5967 70.5924 74.7239 70.2957 74.8793 70.013L74.2717 69.2217C74.1304 69.038 74.1446 68.7978 74.2717 68.6141C74.2859 68.6 74.5543 68.2609 74.8935 67.9076L74.95 67.8511C75.3033 67.4978 75.6424 67.2435 75.6565 67.2293C75.8402 67.088 76.0804 67.088 76.2641 67.2293L77.0837 67.8511C77.3663 67.6957 77.6772 67.5826 77.988 67.4837L78.1293 66.4946C78.1576 66.2685 78.3413 66.0989 78.5674 66.0707C78.5815 66.0565 79.0054 66 79.5 66H79.5707C80.0652 66 80.4891 66.0565 80.5174 66.0565C80.7435 66.0848 80.913 66.2543 80.9554 66.4804L81.0967 67.4978C81.4076 67.5967 81.7043 67.7239 81.987 67.8793L82.7783 67.2717C82.962 67.1304 83.2022 67.1446 83.3859 67.2717C83.4 67.2859 83.7391 67.5543 84.0924 67.8935L84.1489 67.95C84.5022 68.3033 84.7565 68.6424 84.7707 68.6565C84.912 68.8402 84.912 69.0804 84.7707 69.2641L84.163 70.0837C84.3185 70.3663 84.4315 70.6772 84.5304 70.988L85.5196 71.1293C85.7457 71.1576 85.9152 71.3413 85.9435 71.5674C85.9435 71.5815 86 72.0196 86 72.5141V72.5848C86 73.0793 85.9435 73.5033 85.9435 73.5315C85.9152 73.7576 85.7457 73.9272 85.5196 73.9696L84.5022 74.1109C84.4033 74.4217 84.2761 74.7185 84.1207 75.0011L84.7283 75.8065C84.8696 75.9902 84.8554 76.2304 84.7283 76.4141C84.7141 76.4283 84.4457 76.7674 84.1065 77.1207L84.05 77.1772C83.6967 77.5304 83.3576 77.7848 83.3435 77.7989C83.1598 77.9402 82.9196 77.9402 82.7359 77.7989L81.9163 77.163C81.6337 77.3185 81.3228 77.4315 81.012 77.5304L80.8707 78.5196C80.8424 78.7457 80.6587 78.9152 80.4326 78.9435C80.4185 78.9435 79.9946 79 79.5 79ZM78.9913 77.9826C79.1185 77.9967 79.2739 77.9967 79.4293 77.9967H79.5C79.6554 77.9967 79.8109 77.9967 79.938 77.9826L80.0652 77.05C80.0935 76.838 80.2489 76.6826 80.4467 76.6261C80.8848 76.5272 81.3087 76.3576 81.6902 76.1174C81.8033 76.0467 81.9446 76.0326 82.0717 76.0609C82.1424 76.075 82.213 76.1174 82.2696 76.1598L83.0185 76.725C83.1174 76.6402 83.2304 76.5413 83.3435 76.4283L83.4 76.3717C83.513 76.2587 83.612 76.1457 83.6967 76.0467L83.1315 75.2978C83.0043 75.1283 83.0043 74.9022 83.1033 74.7326C83.3435 74.3652 83.513 73.9554 83.612 73.5315C83.6543 73.3196 83.8239 73.15 84.0359 73.1217L84.9826 72.9946C84.9967 72.8674 84.9967 72.712 84.9967 72.5565V72.5C84.9967 72.3446 84.9967 72.1891 84.9826 72.062L84.05 71.9348C83.8522 71.9065 83.6826 71.7511 83.6261 71.5533C83.5272 71.1152 83.3576 70.7054 83.1315 70.3239C83.1033 70.2957 83.0891 70.2533 83.075 70.2109C83.0185 70.0554 83.0467 69.8717 83.1457 69.7446L83.725 68.9815C83.6402 68.8826 83.5413 68.7696 83.4283 68.6565L83.3717 68.6C83.2587 68.487 83.1457 68.388 83.0467 68.3033L82.2978 68.8685C82.1141 68.9957 81.8739 68.9957 81.7043 68.8685C81.337 68.6424 80.9272 68.4728 80.5033 68.3598C80.3054 68.3174 80.15 68.1478 80.1217 67.9359L79.9946 66.9891C79.8674 66.975 79.712 66.975 79.5565 66.975H79.5C79.3446 66.975 79.1891 66.975 79.062 66.9891L78.9348 67.95C78.9065 68.1761 78.737 68.3457 78.5109 68.3739C78.087 68.4728 77.6772 68.6424 77.3098 68.8685C77.1967 68.9391 77.0554 68.9533 76.9283 68.925C76.8576 68.9109 76.787 68.8685 76.7304 68.8261L75.9957 68.2609C75.8967 68.3457 75.7837 68.4446 75.6707 68.5576L75.6141 68.6141C75.5011 68.7272 75.4022 68.8402 75.3174 68.9391L75.8826 69.688C76.0098 69.8576 76.0098 70.0696 75.9109 70.2533C75.8967 70.2674 75.8967 70.2815 75.8826 70.2957C75.6565 70.663 75.487 71.0728 75.388 71.4967C75.3457 71.6946 75.1761 71.85 74.9641 71.8783L74.0174 72.0054C74.0033 72.1326 74.0033 72.288 74.0033 72.4435V72.5C74.0033 72.6554 74.0033 72.8109 74.0174 72.938L74.95 73.0652C75.1761 73.0935 75.3457 73.263 75.3739 73.4891V73.5033C75.4728 73.9272 75.6424 74.3228 75.8685 74.6902C75.9391 74.8174 75.9674 74.9728 75.9109 75.1141C75.8967 75.1707 75.8543 75.2272 75.812 75.2837L75.2609 76.0185C75.3457 76.1174 75.4446 76.2304 75.5576 76.3435L75.6141 76.4C75.7272 76.513 75.8402 76.612 75.9391 76.6967L76.688 76.1315C76.8717 75.9902 77.1402 76.0043 77.3098 76.1457C77.6772 76.3717 78.0728 76.5272 78.4826 76.6402C78.6804 76.6826 78.8359 76.8522 78.8641 77.0641L78.9913 77.9826Z" fill="white"/>
</g>
<circle cx="230" cy="103" r="7.22857" fill="#1A2634"/>
<g filter="url(#filter3_d_301_3052)">
<circle cx="230" cy="103" r="11" fill="#1A2634" fill-opacity="0.07" shape-rendering="crispEdges"/>
</g>
<circle cx="229.5" cy="102.5" r="3.5" stroke="white"/>
<path d="M229.5 101C229.303 101 229.108 101.039 228.926 101.114C228.744 101.19 228.579 101.3 228.439 101.439C228.3 101.579 228.19 101.744 228.114 101.926C228.039 102.108 228 102.303 228 102.5" stroke="white" stroke-linecap="round"/>
<path d="M234 107L232.5 105.5" stroke="white" stroke-linecap="round"/>
<circle cx="207.001" cy="194" r="9.2" fill="#1A2634"/>
<g filter="url(#filter4_d_301_3052)">
<circle cx="207" cy="194" r="14" fill="#1A2634" fill-opacity="0.07" shape-rendering="crispEdges"/>
</g>
<path d="M202.25 191.667C202.25 191.103 202.251 190.73 202.288 190.453C202.324 190.191 202.383 190.091 202.445 190.029C202.508 189.966 202.608 189.907 202.87 189.872C203.146 189.834 203.519 189.833 204.083 189.833H209.917C210.481 189.833 210.854 189.834 211.13 189.872C211.392 189.907 211.492 189.966 211.555 190.029C211.617 190.091 211.676 190.191 211.712 190.453C211.749 190.73 211.75 191.103 211.75 191.667V196.417H202.25V191.667Z" stroke="white"/>
<path d="M202.139 196.417C201.648 196.417 201.25 196.815 201.25 197.306C201.25 198.011 201.822 198.583 202.528 198.583H211.472C212.178 198.583 212.75 198.011 212.75 197.306C212.75 196.815 212.352 196.417 211.861 196.417H202.139Z" stroke="white"/>
<circle cx="40.5007" cy="164.5" r="13.4714" fill="#1A2634"/>
<g filter="url(#filter5_d_301_3052)">
<circle cx="40.5" cy="164.5" r="20.5" fill="#1A2634" fill-opacity="0.07" shape-rendering="crispEdges"/>
</g>
<path d="M47.3926 167.373C48.2896 167.344 49.1428 166.978 49.7818 166.348C50.4208 165.717 50.7987 164.869 50.8399 163.973C50.8811 163.076 50.5827 162.197 50.0042 161.511C49.4257 160.825 48.6097 160.382 47.719 160.271C47.789 159.968 47.8242 159.657 47.824 159.346C47.8389 158.301 47.4386 157.292 46.7108 156.541C45.983 155.79 44.9871 155.358 43.9415 155.34C43.1568 155.341 42.3918 155.587 41.7526 156.042C41.3226 155.416 40.748 154.904 40.0776 154.549C39.4072 154.193 38.6609 154.005 37.9022 154C36.6238 154.022 35.4064 154.55 34.5169 155.469C33.6274 156.387 33.1383 157.621 33.1569 158.899C33.1564 159.418 33.2369 159.934 33.3954 160.428C32.6083 160.703 31.9422 161.244 31.5121 161.958C31.0821 162.672 30.9153 163.514 31.0406 164.339C31.1659 165.163 31.5754 165.917 32.1982 166.471C32.821 167.025 33.6179 167.344 34.4511 167.373H35.3333C35.3435 167.495 35.3569 167.619 35.376 167.743L34.6009 168.517C34.4665 168.651 34.3802 168.826 34.3553 169.014C34.3304 169.203 34.3683 169.394 34.4631 169.559L35.4257 171.226C35.521 171.391 35.6678 171.519 35.8434 171.592C36.0191 171.665 36.2137 171.677 36.3974 171.628L37.4573 171.347C37.8776 171.678 38.3443 171.945 38.8422 172.141L39.1255 173.204C39.1748 173.387 39.2832 173.549 39.4339 173.665C39.5845 173.781 39.7691 173.843 39.959 173.844H41.8846C42.0747 173.843 42.2593 173.78 42.41 173.665C42.5607 173.549 42.6691 173.387 42.7184 173.203L43.0052 172.144C43.5021 171.945 43.9673 171.675 44.386 171.342L45.4469 171.628C45.6304 171.677 45.825 171.664 46.0005 171.592C46.176 171.519 46.3227 171.391 46.4179 171.226L47.3806 169.559C47.4754 169.394 47.5133 169.203 47.4884 169.014C47.4635 168.826 47.3772 168.651 47.2428 168.517L46.47 167.739C46.488 167.617 46.5009 167.494 46.5108 167.373H47.3926ZM31.8628 163.814C31.8508 163.184 32.0633 162.571 32.4624 162.084C32.8614 161.597 33.4209 161.268 34.0405 161.155C34.1052 161.145 34.1666 161.119 34.22 161.081C34.2734 161.043 34.3174 160.993 34.3487 160.936C34.3801 160.878 34.3978 160.814 34.4007 160.749C34.4036 160.683 34.3915 160.618 34.3654 160.558C34.1369 160.035 34.0192 159.47 34.0197 158.899C34.0009 157.85 34.399 156.835 35.1267 156.079C35.8545 155.322 36.8526 154.885 37.9022 154.863C38.5932 154.87 39.2697 155.062 39.8614 155.419C40.4532 155.776 40.9386 156.284 41.2673 156.892C41.2989 156.95 41.3432 156.999 41.3967 157.036C41.4503 157.074 41.5117 157.099 41.5763 157.109C41.6409 157.12 41.707 157.115 41.7696 157.096C41.8322 157.077 41.8897 157.045 41.9377 157C42.481 156.491 43.1969 156.206 43.9415 156.203C44.7583 156.221 45.5349 156.561 46.1009 157.151C46.6669 157.74 46.9763 158.529 46.9612 159.346C46.9616 159.755 46.8843 160.161 46.7335 160.541C46.7065 160.609 46.6973 160.684 46.7069 160.756C46.7166 160.829 46.7446 160.899 46.7885 160.958C46.8316 161.017 46.8898 161.065 46.957 161.095C47.0243 161.125 47.0983 161.137 47.1716 161.13C47.2447 161.123 47.318 161.118 47.3926 161.118C48.0886 161.146 48.7466 161.443 49.2291 161.945C49.7115 162.448 49.9809 163.117 49.9809 163.814C49.9809 164.511 49.7115 165.18 49.2291 165.683C48.7466 166.185 48.0886 166.482 47.3926 166.51H46.5104C46.5002 166.388 46.4868 166.264 46.4677 166.14L47.2428 165.366C47.3772 165.232 47.4635 165.057 47.4884 164.869C47.5133 164.68 47.4754 164.489 47.3806 164.324L46.4179 162.657C46.3226 162.492 46.1759 162.364 46.0003 162.291C45.8247 162.219 45.6301 162.206 45.4465 162.255L44.3866 162.536C43.9663 162.205 43.4996 161.938 43.0014 161.742L42.7182 160.679C42.6689 160.496 42.5605 160.334 42.4098 160.218C42.2592 160.102 42.0746 160.04 41.8846 160.039H39.959C39.769 160.04 39.5843 160.103 39.4336 160.218C39.2829 160.334 39.1745 160.496 39.1253 160.68L38.8386 161.74C38.3416 161.938 37.8763 162.207 37.4575 162.54L36.3971 162.255C36.2136 162.206 36.0189 162.218 35.8433 162.291C35.6677 162.364 35.5209 162.492 35.4257 162.657L34.4631 164.324C34.3683 164.489 34.3304 164.68 34.3553 164.869C34.3802 165.057 34.4665 165.232 34.6009 165.366L35.3737 166.144C35.3557 166.266 35.3428 166.388 35.3329 166.51H34.4511C33.7507 166.495 33.0849 166.202 32.5998 165.697C32.1146 165.192 31.8496 164.514 31.8628 163.814ZM46.6332 169.127L45.6708 170.795L44.6096 170.509C44.4799 170.474 44.3437 170.471 44.2123 170.498C44.0808 170.526 43.9577 170.584 43.853 170.668C43.4979 170.948 43.1046 171.175 42.6853 171.342C42.5602 171.392 42.4483 171.47 42.3585 171.57C42.2686 171.67 42.2033 171.789 42.1678 171.919L41.8846 172.981H39.959L39.6757 171.918C39.6401 171.789 39.575 171.67 39.4854 171.57C39.3958 171.47 39.2842 171.392 39.1595 171.342C38.7396 171.175 38.346 170.948 37.9906 170.668C37.8857 170.584 37.7625 170.526 37.6309 170.498C37.4993 170.471 37.3631 170.475 37.2332 170.509L36.173 170.795L35.2105 169.127L35.9852 168.354C36.0803 168.258 36.1517 168.141 36.1937 168.013C36.2357 167.884 36.2472 167.748 36.2272 167.614C36.1598 167.168 36.1598 166.715 36.2272 166.269C36.2472 166.135 36.2357 165.999 36.1938 165.87C36.1518 165.742 36.0805 165.625 35.9856 165.529L35.2105 164.755L36.173 163.088L37.2327 163.373C37.3627 163.409 37.4991 163.413 37.6309 163.385C37.7627 163.357 37.886 163.299 37.9908 163.214C38.3461 162.935 38.7395 162.708 39.159 162.541C39.2839 162.491 39.3956 162.413 39.4853 162.313C39.575 162.213 39.6403 162.094 39.6759 161.964L39.959 160.902L41.8846 160.902L42.168 161.965C42.2036 162.094 42.2688 162.214 42.3584 162.313C42.4481 162.413 42.5597 162.491 42.6844 162.54C43.1041 162.708 43.4977 162.935 43.853 163.215C43.9579 163.299 44.0811 163.357 44.2127 163.384C44.3442 163.412 44.4804 163.408 44.6103 163.374L45.6706 163.088L46.6332 164.755L45.8585 165.529C45.7634 165.625 45.692 165.742 45.65 165.87C45.6079 165.999 45.5965 166.135 45.6165 166.269C45.6839 166.715 45.6839 167.168 45.6165 167.614C45.5965 167.748 45.608 167.884 45.6499 168.013C45.6918 168.141 45.7631 168.258 45.8581 168.354L46.6332 169.127Z" fill="white"/>
<path d="M38 164.5L39.5 166.375L38 168.25" stroke="white" stroke-width="0.5"/>
<path d="M43.5 166L42 167.875L43.5 169.75" stroke="white" stroke-width="0.5"/>
<circle cx="71.5003" cy="118.5" r="8.87143" fill="#1A2634"/>
<g filter="url(#filter6_d_301_3052)">
<circle cx="71.5" cy="118.5" r="13.5" fill="#1A2634" fill-opacity="0.07" shape-rendering="crispEdges"/>
</g>
<circle cx="71.5012" cy="118.5" r="5.52273" stroke="white"/>
<path d="M69.046 118.5L70.8869 120.341L73.9551 116.659" stroke="white"/>
<defs>
<filter id="filter0_d_301_3052" x="79" y="68" width="120" height="120" filterUnits="userSpaceOnUse" color-interpolation-filters="sRGB">
<feFlood flood-opacity="0" result="BackgroundImageFix"/>
<feColorMatrix in="SourceAlpha" type="matrix" values="0 0 0 0 0 0 0 0 0 0 0 0 0 0 0 0 0 0 127 0" result="hardAlpha"/>
<feOffset dy="4"/>
<feGaussianBlur stdDeviation="10"/>
<feComposite in2="hardAlpha" operator="out"/>
<feColorMatrix type="matrix" values="0 0 0 0 0 0 0 0 0 0 0 0 0 0 0 0 0 0 0.12 0"/>
<feBlend mode="normal" in2="BackgroundImageFix" result="effect1_dropShadow_301_3052"/>
<feBlend mode="normal" in="SourceGraphic" in2="effect1_dropShadow_301_3052" result="shape"/>
</filter>
<filter id="filter1_d_301_3052" x="192" y="0" width="75" height="75" filterUnits="userSpaceOnUse" color-interpolation-filters="sRGB">
<feFlood flood-opacity="0" result="BackgroundImageFix"/>
<feColorMatrix in="SourceAlpha" type="matrix" values="0 0 0 0 0 0 0 0 0 0 0 0 0 0 0 0 0 0 127 0" result="hardAlpha"/>
<feOffset dy="4"/>
<feGaussianBlur stdDeviation="10"/>
<feComposite in2="hardAlpha" operator="out"/>
<feColorMatrix type="matrix" values="0 0 0 0 0 0 0 0 0 0 0 0 0 0 0 0 0 0 0.12 0"/>
<feBlend mode="normal" in2="BackgroundImageFix" result="effect1_dropShadow_301_3052"/>
<feBlend mode="normal" in="SourceGraphic" in2="effect1_dropShadow_301_3052" result="shape"/>
</filter>
<filter id="filter2_d_301_3052" x="44" y="41" width="71" height="71" filterUnits="userSpaceOnUse" color-interpolation-filters="sRGB">
<feFlood flood-opacity="0" result="BackgroundImageFix"/>
<feColorMatrix in="SourceAlpha" type="matrix" values="0 0 0 0 0 0 0 0 0 0 0 0 0 0 0 0 0 0 127 0" result="hardAlpha"/>
<feOffset dy="4"/>
<feGaussianBlur stdDeviation="10"/>
<feComposite in2="hardAlpha" operator="out"/>
<feColorMatrix type="matrix" values="0 0 0 0 0 0 0 0 0 0 0 0 0 0 0 0 0 0 0.12 0"/>
<feBlend mode="normal" in2="BackgroundImageFix" result="effect1_dropShadow_301_3052"/>
<feBlend mode="normal" in="SourceGraphic" in2="effect1_dropShadow_301_3052" result="shape"/>
</filter>
<filter id="filter3_d_301_3052" x="199" y="76" width="62" height="62" filterUnits="userSpaceOnUse" color-interpolation-filters="sRGB">
<feFlood flood-opacity="0" result="BackgroundImageFix"/>
<feColorMatrix in="SourceAlpha" type="matrix" values="0 0 0 0 0 0 0 0 0 0 0 0 0 0 0 0 0 0 127 0" result="hardAlpha"/>
<feOffset dy="4"/>
<feGaussianBlur stdDeviation="10"/>
<feComposite in2="hardAlpha" operator="out"/>
<feColorMatrix type="matrix" values="0 0 0 0 0 0 0 0 0 0 0 0 0 0 0 0 0 0 0.12 0"/>
<feBlend mode="normal" in2="BackgroundImageFix" result="effect1_dropShadow_301_3052"/>
<feBlend mode="normal" in="SourceGraphic" in2="effect1_dropShadow_301_3052" result="shape"/>
</filter>
<filter id="filter4_d_301_3052" x="173" y="164" width="68" height="68" filterUnits="userSpaceOnUse" color-interpolation-filters="sRGB">
<feFlood flood-opacity="0" result="BackgroundImageFix"/>
<feColorMatrix in="SourceAlpha" type="matrix" values="0 0 0 0 0 0 0 0 0 0 0 0 0 0 0 0 0 0 127 0" result="hardAlpha"/>
<feOffset dy="4"/>
<feGaussianBlur stdDeviation="10"/>
<feComposite in2="hardAlpha" operator="out"/>
<feColorMatrix type="matrix" values="0 0 0 0 0 0 0 0 0 0 0 0 0 0 0 0 0 0 0.12 0"/>
<feBlend mode="normal" in2="BackgroundImageFix" result="effect1_dropShadow_301_3052"/>
<feBlend mode="normal" in="SourceGraphic" in2="effect1_dropShadow_301_3052" result="shape"/>
</filter>
<filter id="filter5_d_301_3052" x="0" y="128" width="81" height="81" filterUnits="userSpaceOnUse" color-interpolation-filters="sRGB">
<feFlood flood-opacity="0" result="BackgroundImageFix"/>
<feColorMatrix in="SourceAlpha" type="matrix" values="0 0 0 0 0 0 0 0 0 0 0 0 0 0 0 0 0 0 127 0" result="hardAlpha"/>
<feOffset dy="4"/>
<feGaussianBlur stdDeviation="10"/>
<feComposite in2="hardAlpha" operator="out"/>
<feColorMatrix type="matrix" values="0 0 0 0 0 0 0 0 0 0 0 0 0 0 0 0 0 0 0.12 0"/>
<feBlend mode="normal" in2="BackgroundImageFix" result="effect1_dropShadow_301_3052"/>
<feBlend mode="normal" in="SourceGraphic" in2="effect1_dropShadow_301_3052" result="shape"/>
</filter>
<filter id="filter6_d_301_3052" x="38" y="89" width="67" height="67" filterUnits="userSpaceOnUse" color-interpolation-filters="sRGB">
<feFlood flood-opacity="0" result="BackgroundImageFix"/>
<feColorMatrix in="SourceAlpha" type="matrix" values="0 0 0 0 0 0 0 0 0 0 0 0 0 0 0 0 0 0 127 0" result="hardAlpha"/>
<feOffset dy="4"/>
<feGaussianBlur stdDeviation="10"/>
<feComposite in2="hardAlpha" operator="out"/>
<feColorMatrix type="matrix" values="0 0 0 0 0 0 0 0 0 0 0 0 0 0 0 0 0 0 0.12 0"/>
<feBlend mode="normal" in2="BackgroundImageFix" result="effect1_dropShadow_301_3052"/>
<feBlend mode="normal" in="SourceGraphic" in2="effect1_dropShadow_301_3052" result="shape"/>
</filter>
<clipPath id="clip0_301_3052">
<rect width="15.5" height="15.5" fill="white" transform="translate(72.4551 65.4545)"/>
</clipPath>
</defs>
</svg>
