<svg width="30" height="30" viewBox="0 0 30 30" fill="none" xmlns="http://www.w3.org/2000/svg">
<path d="M15.2161 23.7141V23.8435H13.8228L13.5381 22.7823C13.502 22.6527 13.4366 22.5331 13.3468 22.4328C13.257 22.3326 13.1453 22.2544 13.0204 22.2043C12.6021 22.0365 12.2099 21.8099 11.8557 21.5313C11.7498 21.4483 11.6263 21.3907 11.4946 21.3631C11.363 21.3354 11.2267 21.3383 11.0964 21.3717L10.0352 21.6564L9.07324 19.9913L9.84973 19.2148C9.94418 19.1188 10.0151 19.0023 10.057 18.8743C10.099 18.7463 10.1107 18.6104 10.0913 18.4771C10.0572 18.2544 10.0399 18.0295 10.0395 17.8042V17.3728H10.4709C10.5283 17.3733 10.585 17.3851 10.6378 17.4076C10.6906 17.4301 10.7384 17.4628 10.7785 17.5039C10.8186 17.5449 10.8502 17.5935 10.8715 17.6468C10.8927 17.7001 10.9032 17.7571 10.9023 17.8145C10.9025 17.9945 10.917 18.1743 10.9454 18.352C10.9841 18.6189 10.9602 18.8911 10.8756 19.1472C10.791 19.4032 10.648 19.6361 10.458 19.8274L10.1517 20.1337L10.4537 20.6513L10.8721 20.5392C11.1317 20.4712 11.4034 20.4643 11.6661 20.5189C11.9288 20.5736 12.1753 20.6883 12.3863 20.8541C12.6775 21.0794 12.9983 21.2638 13.3396 21.4019C13.5896 21.501 13.8131 21.6571 13.9921 21.8578C14.1711 22.0586 14.3007 22.2983 14.3706 22.558L14.4828 22.9808C14.5791 22.9808 14.6744 22.9997 14.7634 23.0366C14.8524 23.0735 14.9332 23.1275 15.0013 23.1956C15.0694 23.2637 15.1235 23.3445 15.1603 23.4335C15.1972 23.5225 15.2161 23.6178 15.2161 23.7141Z" fill="#C7CDE8"/>
<path d="M21.2549 18.2357C22.1519 18.2068 23.0051 17.8407 23.6441 17.2105C24.2831 16.5802 24.661 15.7322 24.7022 14.8356C24.7434 13.939 24.445 13.0599 23.8665 12.3737C23.288 11.6875 22.472 11.2446 21.5813 11.1336C21.6513 10.8304 21.6865 10.5202 21.6863 10.209C21.7012 9.16332 21.3009 8.15443 20.5731 7.4035C19.8453 6.65256 18.8494 6.22087 17.8038 6.20307C17.0191 6.20422 16.2541 6.44935 15.6149 6.9045C15.1849 6.27929 14.6103 5.76717 13.9399 5.4117C13.2695 5.05623 12.5232 4.86793 11.7645 4.86279C10.4861 4.88498 9.26872 5.41316 8.3792 6.33154C7.48968 7.24992 7.00062 8.48356 7.01925 9.76196C7.01872 10.2808 7.09916 10.7965 7.25767 11.2906C6.47064 11.5654 5.80447 12.1068 5.37444 12.8209C4.94442 13.5351 4.77761 14.3771 4.9029 15.2013C5.02818 16.0255 5.43766 16.7799 6.06048 17.334C6.6833 17.8882 7.48025 18.2071 8.3134 18.2357H9.19557C9.2058 18.358 9.21917 18.4813 9.23828 18.606L8.46317 19.3794C8.32882 19.5138 8.24251 19.6888 8.2176 19.8772C8.19269 20.0656 8.23058 20.2569 8.32539 20.4216L9.28802 22.089C9.38328 22.2535 9.53008 22.382 9.70572 22.4547C9.88136 22.5273 10.0761 22.5401 10.2597 22.4909L11.3196 22.2095C11.74 22.5406 12.2066 22.8082 12.7045 23.004L12.9878 24.0665C13.0371 24.2499 13.1455 24.412 13.2962 24.5276C13.4468 24.6433 13.6314 24.7061 13.8213 24.7064H15.7469C15.937 24.7061 16.1216 24.6432 16.2723 24.5275C16.423 24.4117 16.5314 24.2496 16.5807 24.066L16.8675 23.0066C17.3644 22.8083 17.8296 22.5383 18.2483 22.2053L19.3092 22.4909C19.4927 22.5398 19.6873 22.527 19.8628 22.4543C20.0383 22.3817 20.185 22.2533 20.2803 22.089L21.2429 20.4216C21.3377 20.2569 21.3756 20.0656 21.3507 19.8772C21.3258 19.6888 21.2395 19.5138 21.1051 19.3794L20.3323 18.6022C20.3503 18.4795 20.3632 18.3573 20.3731 18.2357H21.2549ZM5.7251 14.6767C5.71308 14.0471 5.92563 13.4338 6.32468 12.9466C6.72372 12.4595 7.28319 12.1303 7.90285 12.0181C7.96753 12.0073 8.0289 11.982 8.0823 11.9439C8.1357 11.9059 8.17974 11.8562 8.21105 11.7986C8.24236 11.741 8.26014 11.677 8.26302 11.6115C8.2659 11.546 8.25382 11.4807 8.22768 11.4205C7.9992 10.8975 7.88151 10.3328 7.88201 9.76196C7.86319 8.71231 8.26129 7.69802 8.98905 6.9414C9.71682 6.18477 10.7149 5.74755 11.7645 5.72556C12.4555 5.73262 13.132 5.92457 13.7237 6.28145C14.3155 6.63834 14.8009 7.14715 15.1296 7.75504C15.1612 7.8123 15.2055 7.86161 15.259 7.89923C15.3126 7.93686 15.374 7.96181 15.4386 7.9722C15.5032 7.98259 15.5693 7.97815 15.6319 7.95921C15.6945 7.94027 15.752 7.90733 15.8 7.86288C16.3433 7.35364 17.0592 7.06888 17.8038 7.06583C18.6206 7.08344 19.3972 7.42417 19.9632 8.01335C20.5292 8.60253 20.8386 9.39208 20.8235 10.209C20.8239 10.6181 20.7466 11.0236 20.5958 11.4039C20.5688 11.4722 20.5596 11.5464 20.5692 11.6192C20.5789 11.6921 20.6069 11.7613 20.6508 11.8203C20.6939 11.8801 20.7521 11.9274 20.8193 11.9576C20.8866 11.9878 20.9606 11.9998 21.0339 11.9924C21.107 11.9861 21.1803 11.9806 21.2549 11.9806C21.9509 12.009 22.6089 12.3055 23.0914 12.808C23.5738 13.3105 23.8432 13.9802 23.8432 14.6767C23.8432 15.3733 23.5738 16.0429 23.0914 16.5455C22.6089 17.048 21.9509 17.3445 21.2549 17.3729H20.3727C20.3625 17.2505 20.3491 17.1272 20.33 17.0026L21.1051 16.2291C21.2395 16.0947 21.3258 15.9198 21.3507 15.7314C21.3756 15.543 21.3377 15.3516 21.2429 15.1869L20.2803 13.5195C20.1849 13.3551 20.0382 13.2267 19.8626 13.1541C19.687 13.0814 19.4924 13.0686 19.3088 13.1176L18.2489 13.3993C17.8286 13.068 17.3619 12.8004 16.8637 12.6049L16.5805 11.5421C16.5312 11.3586 16.4228 11.1965 16.2721 11.0809C16.1215 10.9652 15.9369 10.9024 15.7469 10.9021H13.8213C13.6313 10.9024 13.4466 10.9653 13.2959 11.0811C13.1452 11.1969 13.0368 11.3591 12.9876 11.5427L12.7009 12.6024C12.2039 12.8003 11.7386 13.0701 11.3198 13.403L10.2595 13.1176C10.0759 13.0685 9.88121 13.0812 9.70561 13.1539C9.53 13.2266 9.38324 13.3551 9.28802 13.5195L8.32539 15.1869C8.23058 15.3516 8.19269 15.543 8.2176 15.7314C8.24251 15.9198 8.32882 16.0947 8.46317 16.2291L9.23599 17.0064C9.21796 17.129 9.20511 17.2513 9.19519 17.3729H8.3134C7.61299 17.3575 6.94724 17.0651 6.46206 16.5597C5.97689 16.0543 5.71187 15.3772 5.7251 14.6767ZM20.4955 19.9903L19.5331 21.6576L18.4719 21.372C18.3422 21.3372 18.2061 21.3334 18.0746 21.3611C17.9431 21.3888 17.82 21.4471 17.7153 21.5312C17.3602 21.8104 16.967 22.0374 16.5476 22.2053C16.4225 22.2546 16.3106 22.3323 16.2208 22.4323C16.1309 22.5324 16.0656 22.652 16.0301 22.7816L15.7469 23.8436H13.8213L13.538 22.7812C13.5025 22.6518 13.4373 22.5324 13.3477 22.4324C13.2581 22.3325 13.1465 22.2547 13.0218 22.2053C12.6019 22.0376 12.2083 21.8106 11.8529 21.5312C11.748 21.4472 11.6248 21.3889 11.4932 21.3613C11.3616 21.3336 11.2254 21.3373 11.0955 21.372L10.0353 21.6576L9.07276 19.9903L9.84748 19.2172C9.9426 19.1211 10.014 19.0041 10.056 18.8755C10.098 18.747 10.1095 18.6104 10.0895 18.4766C10.0221 18.0308 10.0221 17.5773 10.0895 17.1315C10.1095 16.9979 10.098 16.8615 10.0561 16.7331C10.0141 16.6047 9.94285 16.4878 9.84787 16.3918L9.07276 15.6183L10.0353 13.9509L11.095 14.2361C11.225 14.2713 11.3614 14.2753 11.4932 14.2477C11.625 14.22 11.7483 14.1616 11.8532 14.0771C12.2084 13.7979 12.6018 13.5711 13.0213 13.4034C13.1462 13.3539 13.2579 13.2761 13.3476 13.176C13.4373 13.076 13.5026 12.9565 13.5382 12.8269L13.8213 11.7649L15.7469 11.7647L16.0303 12.8276C16.0659 12.957 16.1311 13.0763 16.2207 13.1762C16.3104 13.2761 16.422 13.3538 16.5467 13.4033C16.9664 13.571 17.36 13.798 17.7153 14.0773C17.8202 14.1614 17.9434 14.2196 18.075 14.2472C18.2065 14.2749 18.3427 14.2711 18.4726 14.2363L19.5329 13.9509L20.4955 15.6183L19.7208 16.3913C19.6257 16.4875 19.5543 16.6045 19.5123 16.733C19.4703 16.8616 19.4588 16.9982 19.4788 17.1319C19.5462 17.5778 19.5462 18.0312 19.4788 18.4771C19.4588 18.6107 19.4703 18.7471 19.5122 18.8755C19.5541 19.0039 19.6254 19.1207 19.7204 19.2168L20.4955 19.9903Z" fill="#123757"/>
<path d="M9.17679 10.1933C9.2912 10.1933 9.40092 10.1479 9.48182 10.067C9.56272 9.98608 9.60817 9.87636 9.60817 9.76195C9.59687 9.17793 9.81755 8.61325 10.2219 8.19166C10.6262 7.77006 11.1811 7.52594 11.7651 7.51279C11.8795 7.51279 11.9892 7.46734 12.0701 7.38644C12.151 7.30554 12.1965 7.19582 12.1965 7.08141C12.1965 6.967 12.151 6.85727 12.0701 6.77637C11.9892 6.69547 11.8795 6.65002 11.7651 6.65002C10.9523 6.66336 10.1781 6.99844 9.61199 7.5818C9.04593 8.16515 8.73429 8.94917 8.7454 9.76195C8.7454 9.87636 8.79085 9.98608 8.87175 10.067C8.95265 10.1479 9.06238 10.1933 9.17679 10.1933Z" fill="#123757"/>
<path d="M17.6205 16.9795L13.8789 15.2082C13.7399 15.1423 13.5865 15.1126 13.4329 15.1219C13.2793 15.1312 13.1306 15.1793 13.0006 15.2615C12.8705 15.3438 12.7634 15.4576 12.6892 15.5924C12.615 15.7272 12.5761 15.8786 12.5762 16.0324V19.5762C12.5759 19.7301 12.6146 19.8816 12.6887 20.0166C12.7628 20.1515 12.8699 20.2655 13 20.3478C13.13 20.4301 13.2789 20.4782 13.4325 20.4874C13.5862 20.4966 13.7397 20.4668 13.8787 20.4006L17.6205 18.6291L17.6207 18.6287C17.7768 18.5548 17.9088 18.438 18.0012 18.292C18.0936 18.146 18.1427 17.9768 18.1426 17.804C18.1426 17.6312 18.0935 17.462 18.0011 17.316C17.9086 17.1701 17.7767 17.0533 17.6205 16.9795Z" fill="#203E5F"/>
<circle cx="15" cy="15" r="15" fill="#3A8DC8" fill-opacity="0.2"/>
</svg>
