<svg width="1440" height="1104" viewBox="0 0 1440 1104" fill="none" xmlns="http://www.w3.org/2000/svg">
<path d="M0 91.7416C0 91.7416 357 174.41 720 91.7416C1083 9.07298 1440 91.7416 1440 91.7416V1007.64C1440 1007.64 989 898.836 720 1007.64C451 1116.45 0 1007.64 0 1007.64V91.7416Z" fill="#1A2634"/>
<path d="M0 62.0907C0 62.0907 357 150.045 720 62.0907C1083 -25.8634 1440 62.0907 1440 62.0907V1036.55C1440 1036.55 989 920.788 720 1036.55C451 1152.31 0 1036.55 0 1036.55V62.0907Z" fill="#1A2634" fill-opacity="0.65"/>
<path d="M0 40.5222C0 40.5222 357 131.697 720 40.5222C1083 -50.6528 1440 40.5222 1440 40.5222V1050.67C1440 1050.67 989 930.664 720 1050.67C451 1170.67 0 1050.67 0 1050.67V40.5222Z" fill="#1A2634" fill-opacity="0.15"/>
</svg>
