<svg width="70" height="51" viewBox="0 0 70 51" fill="none" xmlns="http://www.w3.org/2000/svg">
<path d="M54.2 50.52C49.7733 50.52 46.0667 48.9467 43.08 45.8C40.0933 42.6533 38.6 38.0133 38.6 31.88C38.6 26.7067 39.5867 22.0933 41.56 18.04C43.5867 13.9867 46.2 10.4933 49.4 7.56C52.6533 4.62666 56.12 2.35999 59.8 0.759996L66.12 5.79999C64.8933 6.38666 63.1333 7.50666 60.84 9.16C58.6 10.76 56.5467 12.7067 54.68 15C52.8133 17.2933 51.88 19.72 51.88 22.28C52.4667 21.6933 53.3733 21.2933 54.6 21.08C55.88 20.8133 57.1067 20.68 58.28 20.68C61.0533 20.68 63.6667 21.7733 66.12 23.96C68.6267 26.0933 69.88 29.56 69.88 34.36C69.88 39.32 68.36 43.2667 65.32 46.2C62.3333 49.08 58.6267 50.52 54.2 50.52ZM15.96 50.52C11.5333 50.52 7.82667 48.9467 4.84 45.8C1.85333 42.6533 0.36 38.0133 0.36 31.88C0.36 26.7067 1.34667 22.0933 3.32 18.04C5.34667 13.9867 7.96 10.4933 11.16 7.56C14.4133 4.62666 17.88 2.35999 21.56 0.759996L27.88 5.79999C26.6533 6.38666 24.8933 7.50666 22.6 9.16C20.36 10.76 18.3067 12.7067 16.44 15C14.5733 17.2933 13.64 19.72 13.64 22.28C14.2267 21.6933 15.1333 21.2933 16.36 21.08C17.64 20.8133 18.8667 20.68 20.04 20.68C22.8133 20.68 25.4267 21.7733 27.88 23.96C30.3867 26.0933 31.64 29.56 31.64 34.36C31.64 39.32 30.12 43.2667 27.08 46.2C24.0933 49.08 20.3867 50.52 15.96 50.52Z" fill="black"/>
</svg>
