<svg width="42" height="42" viewBox="0 0 42 42" fill="none" xmlns="http://www.w3.org/2000/svg">
<path d="M21 36.75C24.6438 36.75 28.175 35.4865 30.9917 33.1749C33.8084 30.8633 35.7365 27.6465 36.4474 24.0727C37.1582 20.4988 36.608 16.7891 34.8903 13.5755C33.1726 10.3619 30.3937 7.84334 27.0273 6.4489C23.6608 5.05446 19.915 4.87044 16.428 5.92819C12.9411 6.98594 9.92877 9.22002 7.90436 12.2498C5.87994 15.2795 4.96868 18.9175 5.32584 22.5438C5.683 26.1701 7.28648 29.5603 9.86306 32.1369" stroke="#33363F" stroke-width="3.5" stroke-linecap="round"/>
<path d="M28 17.5L20.652 26.3175C19.9965 27.1042 19.6687 27.4976 19.2281 27.5176C18.7875 27.5375 18.4255 27.1755 17.7014 26.4514L14 22.75" stroke="#33363F" stroke-width="3.5" stroke-linecap="round"/>
</svg>
