<svg width="30" height="30" viewBox="0 0 30 30" fill="none" xmlns="http://www.w3.org/2000/svg">
<g clip-path="url(#clip0_293_1432)">
<circle cx="15" cy="15" r="15" fill="#E76F00" fill-opacity="0.2"/>
<path d="M11 18.3472V17.8C11 17.1216 11.512 16.524 12.287 16.1624C11.6252 15.9374 11.0107 15.6322 10.465 15.2576C9.561 15.9088 9 16.808 9 17.8V18.3472C8.41685 18.5118 7.9116 18.8166 7.55354 19.2199C7.19548 19.6233 7.00213 20.1053 7 20.6C7 21.9232 8.346 23 10 23C11.654 23 13 21.9232 13 20.6C12.9979 20.1053 12.8045 19.6233 12.4465 19.2199C12.0884 18.8166 11.5832 18.5118 11 18.3472ZM10 21.4C9.74252 21.3908 9.49941 21.3025 9.32128 21.1535C9.14315 21.0044 9.04373 20.8062 9.04373 20.6C9.04373 20.3938 9.14315 20.1956 9.32128 20.0465C9.49941 19.8975 9.74252 19.8092 10 19.8C10.2575 19.8092 10.5006 19.8975 10.6787 20.0465C10.8569 20.1956 10.9563 20.3938 10.9563 20.6C10.9563 20.8062 10.8569 21.0044 10.6787 21.1535C10.5006 21.3025 10.2575 21.3908 10 21.4ZM19 11.652V11.9328C19 12.7208 18.465 13.4144 17.655 13.8208C18.3151 14.0382 18.9298 14.335 19.478 14.7008C20.414 13.9984 21 13.0192 21 11.9336V11.6528C21.5832 11.4882 22.0884 11.1834 22.4465 10.7801C22.8045 10.3767 22.9979 9.89469 23 9.4C23 8.0768 21.654 7 20 7C18.346 7 17 8.0768 17 9.4C17 10.4416 17.839 11.3208 19 11.652ZM20 8.6C20.1981 8.59984 20.3917 8.64669 20.5565 8.73463C20.7213 8.82256 20.8497 8.94762 20.9256 9.09398C21.0015 9.24034 21.0214 9.40142 20.9828 9.55683C20.9442 9.71225 20.8489 9.85501 20.7088 9.96705C20.5688 10.0791 20.3903 10.1554 20.196 10.1863C20.0018 10.2171 19.8004 10.2012 19.6175 10.1405C19.4345 10.0798 19.2782 9.97701 19.1683 9.8452C19.0584 9.71339 18.9998 9.55845 19 9.4C19 8.9592 19.448 8.6 20 8.6ZM20.935 18.3312C20.525 16.0008 18.024 14.2 15 14.2C14.0768 14.1992 13.1823 13.9432 12.468 13.4754C11.7536 13.0076 11.2633 12.3566 11.08 11.6328C11.644 11.4587 12.129 11.1524 12.4716 10.754C12.8143 10.3555 12.9984 9.8836 13 9.4C13 8.0768 11.654 7 10 7C8.346 7 7 8.0768 7 9.4C7 10.4608 7.87 11.352 9.065 11.6688C9.475 13.9992 11.976 15.8 15 15.8C15.9232 15.8008 16.8177 16.0568 17.532 16.5246C18.2464 16.9924 18.7367 17.6434 18.92 18.3672C18.356 18.5413 17.871 18.8476 17.5284 19.246C17.1857 19.6445 17.0016 20.1164 17 20.6C17 21.9232 18.346 23 20 23C21.654 23 23 21.9232 23 20.6C23 19.5392 22.13 18.648 20.935 18.3312ZM10 8.6C10.1981 8.59984 10.3917 8.64669 10.5565 8.73463C10.7213 8.82256 10.8497 8.94762 10.9256 9.09398C11.0015 9.24034 11.0214 9.40142 10.9828 9.55683C10.9442 9.71225 10.8489 9.85501 10.7088 9.96705C10.5688 10.0791 10.3903 10.1554 10.196 10.1863C10.0018 10.2171 9.80042 10.2012 9.61747 10.1405C9.43452 10.0798 9.2782 9.97701 9.16828 9.8452C9.05837 9.71339 8.9998 9.55845 9 9.4C9 8.9592 9.448 8.6 10 8.6ZM20 21.4C19.7425 21.3908 19.4994 21.3025 19.3213 21.1535C19.1431 21.0044 19.0437 20.8062 19.0437 20.6C19.0437 20.3938 19.1431 20.1956 19.3213 20.0465C19.4994 19.8975 19.7425 19.8092 20 19.8C20.2575 19.8092 20.5006 19.8975 20.6787 20.0465C20.8569 20.1956 20.9563 20.3938 20.9563 20.6C20.9563 20.8062 20.8569 21.0044 20.6787 21.1535C20.5006 21.3025 20.2575 21.3908 20 21.4Z" fill="#203E5F"/>
</g>
<defs>
<clipPath id="clip0_293_1432">
<rect width="30" height="30" fill="white"/>
</clipPath>
</defs>
</svg>
