<svg width="48" height="48" viewBox="0 0 48 48" fill="none" xmlns="http://www.w3.org/2000/svg">
<circle cx="24" cy="24" r="24" fill="#61DAFB" fill-opacity="0.6"/>
<path d="M19.4199 27.54C19.2336 27.7274 19.1291 27.9808 19.1291 28.245C19.1291 28.5092 19.2336 28.7627 19.4199 28.95C19.5129 29.0437 19.6235 29.1181 19.7453 29.1689C19.8672 29.2197 19.9979 29.2458 20.1299 29.2458C20.2619 29.2458 20.3926 29.2197 20.5145 29.1689C20.6363 29.1181 20.7469 29.0437 20.8399 28.95C21.0261 28.7627 21.1307 28.5092 21.1307 28.245C21.1307 27.9808 21.0261 27.7274 20.8399 27.54C20.7469 27.4463 20.6363 27.3719 20.5145 27.3211C20.3926 27.2704 20.2619 27.2442 20.1299 27.2442C19.9979 27.2442 19.8672 27.2704 19.7453 27.3211C19.6235 27.3719 19.5129 27.4463 19.4199 27.54V27.54ZM19.4199 19.05C19.2336 19.2374 19.1291 19.4908 19.1291 19.755C19.1291 20.0192 19.2336 20.2727 19.4199 20.46C19.5129 20.5537 19.6235 20.6281 19.7453 20.6789C19.8672 20.7297 19.9979 20.7558 20.1299 20.7558C20.2619 20.7558 20.3926 20.7297 20.5145 20.6789C20.6363 20.6281 20.7469 20.5537 20.8399 20.46C21.0261 20.2727 21.1307 20.0192 21.1307 19.755C21.1307 19.4908 21.0261 19.2374 20.8399 19.05C20.7469 18.9563 20.6363 18.8819 20.5145 18.8311C20.3926 18.7804 20.2619 18.7542 20.1299 18.7542C19.9979 18.7542 19.8672 18.7804 19.7453 18.8311C19.6235 18.8819 19.5129 18.9563 19.4199 19.05ZM24.3699 29.05C24.1721 29.05 23.9788 29.1087 23.8143 29.2185C23.6499 29.3284 23.5217 29.4846 23.446 29.6673C23.3703 29.8501 23.3505 30.0511 23.3891 30.2451C23.4277 30.4391 23.5229 30.6173 23.6628 30.7571C23.8026 30.897 23.9808 30.9922 24.1748 31.0308C24.3688 31.0694 24.5699 31.0496 24.7526 30.9739C24.9353 30.8982 25.0915 30.77 25.2014 30.6056C25.3112 30.4411 25.3699 30.2478 25.3699 30.05C25.3767 29.9145 25.3558 29.7791 25.3086 29.652C25.2614 29.5248 25.1888 29.4086 25.0953 29.3104C25.0017 29.2121 24.8892 29.134 24.7645 29.0806C24.6398 29.0273 24.5055 28.9998 24.3699 29V29.05ZM18.3699 23.05C18.1721 23.05 17.9788 23.1087 17.8143 23.2185C17.6499 23.3284 17.5217 23.4846 17.446 23.6673C17.3703 23.8501 17.3505 24.0511 17.3891 24.2451C17.4277 24.4391 17.5229 24.6173 17.6628 24.7571C17.8026 24.897 17.9808 24.9922 18.1748 25.0308C18.3688 25.0694 18.5699 25.0496 18.7526 24.9739C18.9353 24.8982 19.0915 24.77 19.2014 24.6056C19.3112 24.4411 19.3699 24.2478 19.3699 24.05C19.3767 23.9145 19.3558 23.7791 19.3086 23.652C19.2614 23.5248 19.1888 23.4086 19.0953 23.3104C19.0017 23.2121 18.8892 23.134 18.7645 23.0806C18.6398 23.0273 18.5055 22.9998 18.3699 23V23.05ZM24.3699 17.05C24.1721 17.05 23.9788 17.1087 23.8143 17.2185C23.6499 17.3284 23.5217 17.4846 23.446 17.6673C23.3703 17.8501 23.3505 18.0511 23.3891 18.2451C23.4277 18.4391 23.5229 18.6173 23.6628 18.7571C23.8026 18.897 23.9808 18.9922 24.1748 19.0308C24.3688 19.0694 24.5699 19.0496 24.7526 18.9739C24.9353 18.8982 25.0915 18.77 25.2014 18.6056C25.3112 18.4411 25.3699 18.2478 25.3699 18.05C25.3767 17.9145 25.3558 17.7791 25.3086 17.652C25.2614 17.5248 25.1888 17.4086 25.0953 17.3104C25.0017 17.2121 24.8892 17.134 24.7645 17.0806C24.6398 17.0273 24.5055 16.9998 24.3699 17V17.05ZM27.9099 19.1C27.7695 19.2396 27.6736 19.4178 27.6346 19.6119C27.5955 19.8061 27.6149 20.0075 27.6905 20.1905C27.766 20.3736 27.8941 20.5301 28.0587 20.6403C28.2233 20.7504 28.4169 20.8092 28.6149 20.8092C28.8129 20.8092 29.0065 20.7504 29.1711 20.6403C29.3357 20.5301 29.4638 20.3736 29.5393 20.1905C29.6149 20.0075 29.6343 19.8061 29.5952 19.6119C29.5562 19.4178 29.4603 19.2396 29.3199 19.1C29.1392 18.907 28.8895 18.7933 28.6252 18.784C28.361 18.7746 28.1038 18.8703 27.9099 19.05V19.1ZM34.2099 19.1C33.2956 17.2723 31.8903 15.7354 30.1515 14.6617C28.4127 13.588 26.4091 13.0199 24.3655 13.0211C22.3219 13.0223 20.319 13.5928 18.5815 14.6686C16.8439 15.7444 15.4405 17.283 14.5284 19.1118C13.6163 20.9406 13.2317 22.9873 13.4177 25.0224C13.6038 27.0575 14.353 29.0006 15.5816 30.6338C16.8101 32.2669 18.4693 33.5255 20.373 34.2684C22.2768 35.0114 24.3499 35.2093 26.3599 34.84C26.8653 34.7449 27.3468 34.55 27.776 34.2667C28.2053 33.9834 28.5737 33.6174 28.8599 33.19C29.1682 32.7254 29.381 32.2041 29.4857 31.6564C29.5905 31.1087 29.5851 30.5456 29.4699 30C29.4069 29.6703 29.3735 29.3357 29.3699 29C29.3743 28.031 29.6602 27.0841 30.1928 26.2745C30.7254 25.465 31.4817 24.8276 32.3699 24.44C32.8488 24.2256 33.2786 23.9153 33.6329 23.5284C33.9872 23.1414 34.2585 22.6859 34.4299 22.19C34.6033 21.6833 34.6732 21.1469 34.6354 20.6127C34.5976 20.0785 34.4529 19.5573 34.2099 19.08V19.1ZM32.5099 21.54C32.4246 21.7793 32.2921 21.9991 32.1203 22.1863C31.9486 22.3736 31.741 22.5244 31.5099 22.63C30.2799 23.1806 29.2349 24.0746 28.5006 25.2045C27.7662 26.3345 27.3736 27.6524 27.3699 29C27.3714 29.4701 27.4183 29.9389 27.5099 30.4C27.571 30.6818 27.575 30.973 27.5218 31.2564C27.4685 31.5397 27.3591 31.8096 27.1999 32.05C27.0652 32.2604 26.888 32.4403 26.6796 32.5781C26.4712 32.7159 26.2362 32.8085 25.9899 32.85C25.4558 32.9504 24.9134 33.0006 24.3699 33C23.1641 33.0006 21.9704 32.7589 20.8598 32.2892C19.7492 31.8195 18.7444 31.1314 17.9049 30.2658C17.0654 29.4002 16.4084 28.3747 15.9729 27.2502C15.5374 26.1258 15.3324 24.9253 15.3699 23.72C15.4475 21.4728 16.3589 19.335 17.9265 17.723C19.4942 16.111 21.6057 15.1403 23.8499 15H24.3599C26.0357 15.0004 27.678 15.4687 29.102 16.3521C30.526 17.2355 31.6751 18.4989 32.4199 20C32.6491 20.475 32.6815 21.0213 32.5099 21.52V21.54ZM24.3699 23C24.1721 23 23.9788 23.0587 23.8143 23.1685C23.6499 23.2784 23.5217 23.4346 23.446 23.6173C23.3703 23.8001 23.3505 24.0011 23.3891 24.1951C23.4277 24.3891 23.5229 24.5673 23.6628 24.7071C23.8026 24.847 23.9808 24.9422 24.1748 24.9808C24.3688 25.0194 24.5699 24.9996 24.7526 24.9239C24.9353 24.8482 25.0915 24.72 25.2014 24.5556C25.3112 24.3911 25.3699 24.1978 25.3699 24C25.3699 23.7348 25.2645 23.4804 25.077 23.2929C24.8895 23.1054 24.6351 23 24.3699 23Z" fill="white"/>
</svg>
