<svg width="30" height="30" viewBox="0 0 30 30" fill="none" xmlns="http://www.w3.org/2000/svg">
<path d="M16.2549 21.3382C17.278 21.2332 18.1989 20.8128 19.0174 19.9722C19.9382 19.0265 20.3475 17.7655 20.3475 16.6096C20.3475 16.2944 20.1429 16.0842 19.8359 16.0842C18.6081 16.0842 17.4827 16.5046 16.5618 17.4503L16.2549 17.7655" stroke="#203E5F" stroke-miterlimit="10"/>
<path d="M14.0037 21.3382C12.9806 21.2332 12.0597 20.8128 11.2412 19.9722C10.3204 19.0265 9.91113 17.7655 9.91113 16.6096C9.91113 16.2944 10.1158 16.0842 10.4227 16.0842C11.6505 16.0842 12.776 16.5046 13.6968 17.4503L14.0037 17.7655" stroke="#203E5F" stroke-miterlimit="10" stroke-linecap="round" stroke-linejoin="round"/>
<path d="M16.357 15.5588C17.1756 15.4537 17.8918 15.0334 18.5057 14.4029C19.2219 13.6673 19.6311 12.7216 19.6311 11.6708C19.6311 11.3556 19.3242 11.0403 19.0172 11.0403C18.0964 11.0403 17.0733 11.4607 16.357 12.1962C15.7432 12.8267 15.4362 13.5623 15.2316 14.4029M14.1061 15.5588C13.2876 15.4537 12.5714 15.0334 11.9575 14.4029C11.2413 13.6673 10.832 12.7216 10.832 11.7759C10.832 11.3556 11.139 11.1454 11.4459 11.1454C12.3668 11.1454 13.3899 11.5657 14.1061 12.3013C14.72 12.9318 15.027 13.6673 15.2316 14.508M13.1853 8.83365C13.4922 9.88445 14.2084 10.62 15.027 11.1454C15.2316 11.2505 15.5385 11.1454 15.6408 10.9353C16.0501 10.0946 16.2547 9.04381 15.9478 7.99301C15.6408 6.9422 14.9246 6.20664 14.1061 5.68124C13.9015 5.57616 13.5945 5.68124 13.4922 5.8914C12.9806 6.73204 12.8783 7.78285 13.1853 8.83365Z" stroke="#203E5F" stroke-miterlimit="10"/>
<path d="M16.2543 22.3891C16.2543 23.0196 15.845 23.4399 15.2312 23.4399C14.6173 23.4399 14.208 23.0196 14.208 22.3891V15.0335C14.208 14.403 14.6173 13.9827 15.2312 13.9827C15.845 13.9827 16.2543 14.403 16.2543 15.0335V22.3891Z" stroke="#203E5F" stroke-miterlimit="10"/>
<path d="M16.2543 22.3891C16.2543 23.0196 15.845 23.4399 15.2312 23.4399C14.6173 23.4399 14.208 23.0196 14.208 22.3891V15.0335C14.208 14.403 14.6173 13.9827 15.2312 13.9827C15.845 13.9827 16.2543 14.403 16.2543 15.0335V22.3891Z" stroke="#203E5F" stroke-miterlimit="10"/>
<circle cx="15" cy="15" r="15" fill="#3A8DC8" fill-opacity="0.2"/>
</svg>
