<svg width="30" height="30" viewBox="0 0 30 30" fill="none" xmlns="http://www.w3.org/2000/svg">
<path d="M6 9.25C6 8.38805 6.34241 7.5614 6.9519 6.9519C7.5614 6.34241 8.38805 6 9.25 6H15.25C16.112 6 16.9386 6.34241 17.5481 6.9519C18.1576 7.5614 18.5 8.38805 18.5 9.25C18.5 9.44891 18.421 9.63968 18.2803 9.78033C18.1397 9.92098 17.9489 10 17.75 10C17.5511 10 17.3603 9.92098 17.2197 9.78033C17.079 9.63968 17 9.44891 17 9.25C17 8.78587 16.8156 8.34075 16.4874 8.01256C16.1592 7.68437 15.7141 7.5 15.25 7.5H9.25C8.78587 7.5 8.34075 7.68437 8.01256 8.01256C7.68437 8.34075 7.5 8.78587 7.5 9.25V15.25C7.5 16.216 8.284 17 9.25 17H15.104C15.285 16.3611 15.691 15.8093 16.2471 15.4463C16.8031 15.0834 17.4717 14.9338 18.1294 15.0252C18.7871 15.1166 19.3896 15.4428 19.8256 15.9436C20.2616 16.4444 20.5018 17.086 20.5018 17.75C20.5018 18.414 20.2616 19.0556 19.8256 19.5564C19.3896 20.0572 18.7871 20.3834 18.1294 20.4748C17.4717 20.5662 16.8031 20.4166 16.2471 20.0537C15.691 19.6907 15.285 19.1389 15.104 18.5H9.25C8.38805 18.5 7.5614 18.1576 6.9519 17.5481C6.34241 16.9386 6 16.112 6 15.25V9.25ZM16.5 17.75C16.5 18.0815 16.6317 18.3995 16.8661 18.6339C17.1005 18.8683 17.4185 19 17.75 19C18.0815 19 18.3995 18.8683 18.6339 18.6339C18.8683 18.3995 19 18.0815 19 17.75C19 17.4185 18.8683 17.1005 18.6339 16.8661C18.3995 16.6317 18.0815 16.5 17.75 16.5C17.4185 16.5 17.1005 16.6317 16.8661 16.8661C16.6317 17.1005 16.5 17.4185 16.5 17.75ZM20.75 13C21.716 13 22.5 13.784 22.5 14.75V20.75C22.5 21.2141 22.3156 21.6592 21.9874 21.9874C21.6592 22.3156 21.2141 22.5 20.75 22.5H14.75C14.2859 22.5 13.8408 22.3156 13.5126 21.9874C13.1844 21.6592 13 21.2141 13 20.75C13 20.5511 12.921 20.3603 12.7803 20.2197C12.6397 20.079 12.4489 20 12.25 20C12.0511 20 11.8603 20.079 11.7197 20.2197C11.579 20.3603 11.5 20.5511 11.5 20.75C11.5 21.612 11.8424 22.4386 12.4519 23.0481C13.0614 23.6576 13.888 24 14.75 24H20.75C21.612 24 22.4386 23.6576 23.0481 23.0481C23.6576 22.4386 24 21.612 24 20.75V14.75C24 13.888 23.6576 13.0614 23.0481 12.4519C22.4386 11.8424 21.612 11.5 20.75 11.5H14.896C14.715 10.8611 14.309 10.3093 13.7529 9.94634C13.1969 9.58338 12.5283 9.43379 11.8706 9.52518C11.2129 9.61656 10.6104 9.94275 10.1744 10.4436C9.73839 10.9444 9.49821 11.586 9.49821 12.25C9.49821 12.914 9.73839 13.5556 10.1744 14.0564C10.6104 14.5572 11.2129 14.8834 11.8706 14.9748C12.5283 15.0662 13.1969 14.9166 13.7529 14.5537C14.309 14.1907 14.715 13.6389 14.896 13H20.75ZM12.25 11C12.5815 11 12.8995 11.1317 13.1339 11.3661C13.3683 11.6005 13.5 11.9185 13.5 12.25C13.5 12.5815 13.3683 12.8995 13.1339 13.1339C12.8995 13.3683 12.5815 13.5 12.25 13.5C11.9185 13.5 11.6005 13.3683 11.3661 13.1339C11.1317 12.8995 11 12.5815 11 12.25C11 11.9185 11.1317 11.6005 11.3661 11.3661C11.6005 11.1317 11.9185 11 12.25 11Z" fill="#203E5F"/>
<circle cx="15" cy="15" r="15" fill="#E76F00" fill-opacity="0.2"/>
</svg>
