<svg width="48" height="48" viewBox="0 0 48 48" fill="none" xmlns="http://www.w3.org/2000/svg">
<circle cx="24" cy="24" r="24" fill="#61DAFB" fill-opacity="0.6"/>
<path d="M21.7099 18.2899C21.617 18.1962 21.5064 18.1218 21.3845 18.071C21.2627 18.0203 21.132 17.9941 20.9999 17.9941C20.8679 17.9941 20.7372 18.0203 20.6154 18.071C20.4935 18.1218 20.3829 18.1962 20.2899 18.2899L15.2899 23.2899C15.1962 23.3829 15.1218 23.4935 15.071 23.6154C15.0203 23.7372 14.9941 23.8679 14.9941 23.9999C14.9941 24.132 15.0203 24.2627 15.071 24.3845C15.1218 24.5064 15.1962 24.617 15.2899 24.7099L20.2899 29.7099C20.3829 29.8037 20.4935 29.8781 20.6154 29.9288C20.7372 29.9796 20.8679 30.0057 20.9999 30.0057C21.132 30.0057 21.2627 29.9796 21.3845 29.9288C21.5064 29.8781 21.617 29.8037 21.7099 29.7099C21.8037 29.617 21.8781 29.5064 21.9288 29.3845C21.9796 29.2627 22.0057 29.132 22.0057 28.9999C22.0057 28.8679 21.9796 28.7372 21.9288 28.6154C21.8781 28.4935 21.8037 28.3829 21.7099 28.2899L17.4099 23.9999L21.7099 19.7099C21.8037 19.617 21.8781 19.5064 21.9288 19.3845C21.9796 19.2627 22.0057 19.132 22.0057 18.9999C22.0057 18.8679 21.9796 18.7372 21.9288 18.6154C21.8781 18.4935 21.8037 18.3829 21.7099 18.2899ZM32.7099 23.2899L27.7099 18.2899C27.6167 18.1967 27.506 18.1227 27.3842 18.0723C27.2624 18.0218 27.1318 17.9958 26.9999 17.9958C26.7336 17.9958 26.4782 18.1016 26.2899 18.2899C26.1967 18.3832 26.1227 18.4939 26.0723 18.6157C26.0218 18.7375 25.9958 18.8681 25.9958 18.9999C25.9958 19.2662 26.1016 19.5216 26.2899 19.7099L30.5899 23.9999L26.2899 28.2899C26.1962 28.3829 26.1218 28.4935 26.071 28.6154C26.0203 28.7372 25.9941 28.8679 25.9941 28.9999C25.9941 29.132 26.0203 29.2627 26.071 29.3845C26.1218 29.5064 26.1962 29.617 26.2899 29.7099C26.3829 29.8037 26.4935 29.8781 26.6154 29.9288C26.7372 29.9796 26.8679 30.0057 26.9999 30.0057C27.132 30.0057 27.2627 29.9796 27.3845 29.9288C27.5064 29.8781 27.617 29.8037 27.7099 29.7099L32.7099 24.7099C32.8037 24.617 32.8781 24.5064 32.9288 24.3845C32.9796 24.2627 33.0057 24.132 33.0057 23.9999C33.0057 23.8679 32.9796 23.7372 32.9288 23.6154C32.8781 23.4935 32.8037 23.3829 32.7099 23.2899Z" fill="white"/>
</svg>
