<svg width="30" height="30" viewBox="0 0 30 30" fill="none" xmlns="http://www.w3.org/2000/svg">
<g clip-path="url(#clip0_295_820)">
<path d="M18.5898 7.46904C18.5751 6.9108 19.0746 6.38194 19.7209 6.41133C20.2792 6.44071 20.7493 6.92549 20.7493 7.51311C20.7493 8.11543 20.2498 8.58552 19.6328 8.57083C19.0452 8.55614 18.5751 8.07135 18.5898 7.46904ZM20.8815 21.6454C21.4838 21.6454 21.9539 22.1155 21.9539 22.7178C21.9539 23.3201 21.4691 23.8049 20.8668 23.8049C20.2792 23.8049 19.7944 23.3201 19.7944 22.7325C19.7944 22.1155 20.2792 21.6454 20.8815 21.6454ZM7.07241 17.2382C6.45541 17.2382 6 16.7534 6 16.1364C6 15.5488 6.48479 15.0787 7.0871 15.0934C7.68941 15.0934 8.15951 15.5782 8.15951 16.1952C8.14482 16.7681 7.66003 17.2382 7.07241 17.2382ZM19.0452 10.3484C19.0452 9.83422 19.4565 9.42288 19.9707 9.42288C20.4702 9.42288 20.8815 9.83422 20.8962 10.3337C20.8962 10.8332 20.4848 11.2592 19.9707 11.2739C19.4565 11.2739 19.0452 10.8626 19.0452 10.3484ZM9.39351 13.5509C9.90768 13.5509 10.3337 13.9622 10.3337 14.4617C10.3337 14.9612 9.90768 15.3872 9.4082 15.3872C8.89403 15.3872 8.4827 14.9759 8.4827 14.4617C8.4827 13.9622 8.87934 13.5509 9.39351 13.5509ZM22.3652 11.5971C21.8658 11.5971 21.4397 11.1857 21.4544 10.6863C21.4544 10.1721 21.8804 9.76076 22.3799 9.76076C22.8794 9.77545 23.2907 10.1868 23.2907 10.6863C23.3054 11.2004 22.8794 11.5971 22.3652 11.5971ZM18.2519 22.4827C17.7377 22.4827 17.3264 22.0567 17.3264 21.5572C17.3264 21.0578 17.7377 20.6464 18.2519 20.6317C18.7514 20.6171 19.1774 21.0578 19.1774 21.5572C19.1774 22.0567 18.7514 22.4827 18.2519 22.4827ZM9.4082 12.2141C9.4082 12.7282 8.99687 13.1396 8.4827 13.1249C7.98322 13.1249 7.57189 12.7136 7.57189 12.1994C7.57189 11.6999 7.98322 11.2739 8.4827 11.2739C8.98217 11.2739 9.4082 11.6999 9.4082 12.2141ZM16.7388 24.3925C16.2246 24.3925 15.828 23.9812 15.828 23.467C15.828 22.9528 16.2393 22.5562 16.7388 22.5562C17.2529 22.5562 17.6643 22.9675 17.6643 23.4817C17.6643 23.9959 17.2529 24.3925 16.7388 24.3925ZM14.021 21.998C14.021 21.5572 14.3736 21.2194 14.7996 21.2194C15.2403 21.2194 15.5929 21.5866 15.5782 22.0273C15.5782 22.4681 15.2256 22.8059 14.7849 22.8059C14.3589 22.8059 14.0063 22.4534 14.021 21.998ZM22.8647 13.1102C22.8647 13.5509 22.5121 13.9035 22.0714 13.9035C21.6454 13.9035 21.2928 13.5509 21.2928 13.1102C21.2928 12.6695 21.6454 12.3169 22.0861 12.3169C22.5121 12.3169 22.8647 12.6695 22.8647 13.1102ZM11.5089 11.2592C11.5089 11.6999 11.1564 12.0378 10.7303 12.0378C10.2896 12.0378 9.93706 11.6852 9.95175 11.2445C9.95175 10.8038 10.2896 10.4659 10.7303 10.4659C11.1858 10.4659 11.5236 10.8038 11.5089 11.2592ZM12.4344 13.5068C12.4344 13.9476 12.0966 14.3001 11.6558 14.3001C11.2151 14.3001 10.8626 13.9623 10.8626 13.5215C10.8626 13.0661 11.2004 12.7282 11.6558 12.7282C12.0966 12.7282 12.4344 13.0661 12.4344 13.5068ZM9.62856 9.20252C9.62856 8.76181 9.98113 8.42393 10.4218 8.42393C10.8626 8.42393 11.2004 8.7765 11.2004 9.21721C11.2004 9.65793 10.8626 9.99581 10.4218 10.0105C9.96644 9.99581 9.61387 9.64324 9.62856 9.20252ZM18.8836 12.7723C18.8836 12.3316 19.2362 11.979 19.6622 11.979C20.1029 11.979 20.4555 12.3316 20.4555 12.7723C20.4555 13.213 20.1029 13.5509 19.6622 13.5509C19.2215 13.5656 18.8836 13.213 18.8836 12.7723ZM16.2981 19.2949C16.7241 19.2949 17.0766 19.6475 17.0766 20.0882C17.0766 20.5289 16.7241 20.8815 16.2834 20.8668C15.8426 20.8668 15.5048 20.5142 15.5048 20.0735C15.5048 19.6475 15.8573 19.2949 16.2981 19.2949ZM13.9769 23.3201C13.9769 23.7608 13.6391 24.0987 13.1984 24.0987C12.7576 24.0987 12.4051 23.7461 12.4051 23.3201C12.4051 22.8794 12.7576 22.5268 13.1984 22.5268C13.6391 22.5268 13.9769 22.8794 13.9769 23.3201ZM23.9959 14.638C23.5699 14.638 23.2173 14.2708 23.2173 13.8594C23.2173 13.4187 23.5845 13.0661 24.0253 13.0661C24.4513 13.0661 24.8186 13.4334 24.8039 13.8594C24.8039 14.2854 24.4366 14.638 23.9959 14.638ZM14.1385 20.4261C14.1385 20.7933 13.83 21.1018 13.4628 21.1018C13.0808 21.1018 12.787 20.7933 12.787 20.4261C12.787 20.0441 13.0955 19.7503 13.4775 19.7503C13.8447 19.7503 14.1385 20.0441 14.1385 20.4261ZM12.787 10.2162C13.169 10.2162 13.4628 10.51 13.4628 10.8919C13.4628 11.2592 13.1543 11.5677 12.787 11.5677C12.4198 11.5677 12.0966 11.2592 12.1113 10.8772C12.1113 10.5247 12.4198 10.2162 12.787 10.2162ZM14.2855 18.5016C14.2855 18.1197 14.5793 17.8259 14.9465 17.8259C15.3285 17.8259 15.637 18.1197 15.637 18.5016C15.637 18.8689 15.3432 19.1774 14.9612 19.1774C14.5793 19.1627 14.2855 18.8836 14.2855 18.5016ZM11.8615 22.3946C11.4796 22.3946 11.1711 22.1008 11.1711 21.7335C11.1711 21.3663 11.4649 21.0578 11.8468 21.0578C12.2288 21.0578 12.5373 21.3516 12.5226 21.7335C12.5226 22.1008 12.2435 22.3946 11.8615 22.3946ZM19.6181 14.7408C19.6181 15.1081 19.3243 15.4019 18.957 15.4019C18.5751 15.4019 18.2813 15.1081 18.2813 14.7262C18.2813 14.3442 18.5751 14.0504 18.957 14.0504C19.339 14.0504 19.6181 14.3442 19.6181 14.7408ZM12.4491 9.51102C12.0672 9.51102 11.7734 9.2319 11.7734 8.84995C11.7734 8.468 12.0819 8.1595 12.4491 8.1595C12.8164 8.1595 13.1249 8.468 13.1249 8.83526C13.1249 9.21721 12.8311 9.51102 12.4491 9.51102ZM21.3663 15.7251C20.9843 15.7251 20.7052 15.4313 20.7052 15.0493C20.7052 14.6821 20.999 14.3883 21.381 14.3736C21.7629 14.3736 22.0567 14.6674 22.042 15.064C22.042 15.4607 21.7482 15.7398 21.3663 15.7251ZM13.6831 13.8153C13.3159 13.8153 13.0221 13.5068 13.0221 13.1396C13.0221 12.7723 13.3453 12.4785 13.7125 12.4785C14.0798 12.4785 14.3736 12.787 14.3736 13.1543C14.3736 13.5215 14.0651 13.8153 13.6831 13.8153ZM23.2907 16.4743C22.9088 16.4596 22.615 16.1511 22.6297 15.7692C22.6444 15.4019 22.9529 15.1081 23.3201 15.1228C23.7021 15.1375 23.9959 15.446 23.9812 15.8426C23.9665 16.2099 23.658 16.489 23.2907 16.4743ZM15.4607 13.8153C15.1375 13.8153 14.8878 13.5656 14.8878 13.2424C14.8878 12.9192 15.1522 12.6695 15.4754 12.6695C15.7986 12.6695 16.0483 12.9192 16.0483 13.2424C16.0336 13.5656 15.7839 13.8153 15.4607 13.8153ZM21.7629 17.2823C21.7629 16.9591 22.0127 16.7094 22.3359 16.6947C22.659 16.6947 22.9088 16.9444 22.9088 17.2676C22.9088 17.5908 22.6297 17.8846 22.3359 17.8699C22.0274 17.8699 21.7776 17.6055 21.7629 17.2823ZM14.7849 8.93809C14.7849 9.26129 14.5352 9.51102 14.212 9.51102C13.8888 9.51102 13.6391 9.2466 13.6391 8.9234C13.6391 8.60021 13.9035 8.35047 14.2414 8.35047C14.5499 8.36516 14.7849 8.6149 14.7849 8.93809ZM14.7262 16.9297C14.7262 17.2529 14.4764 17.5027 14.1679 17.5027C13.83 17.5027 13.5803 17.2529 13.5803 16.9297C13.5803 16.6065 13.83 16.3568 14.1532 16.3568C14.4764 16.3421 14.7262 16.5919 14.7262 16.9297ZM12.6695 19.4124C12.3463 19.4124 12.0819 19.1627 12.0819 18.8395C12.0819 18.5163 12.3463 18.2519 12.6695 18.2519C12.978 18.2519 13.2424 18.5163 13.2424 18.8248C13.2424 19.1627 12.9927 19.4124 12.6695 19.4124ZM20.9843 16.5478C20.9843 16.8857 20.7346 17.1207 20.4114 17.1207C20.1029 17.1207 19.8385 16.8416 19.8385 16.5331C19.8385 16.2099 20.1029 15.9602 20.4261 15.9602C20.7346 15.9602 20.9843 16.2246 20.9843 16.5478ZM18.0022 15.637C18.34 15.637 18.5751 15.872 18.5751 16.2099C18.5751 16.5331 18.3253 16.7975 18.0022 16.7828C17.679 16.7828 17.4145 16.5184 17.4145 16.2099C17.4145 15.8867 17.6643 15.637 18.0022 15.637ZM11.6265 20.147C11.6265 20.4701 11.362 20.7199 11.0535 20.7199C10.7303 20.7199 10.4806 20.4701 10.4806 20.147C10.4806 19.8238 10.745 19.5593 11.0535 19.5593C11.362 19.574 11.6265 19.8385 11.6265 20.147ZM14.5499 11.553C14.2267 11.553 13.9769 11.3033 13.9769 10.9801C13.9769 10.6716 14.2414 10.4071 14.5646 10.3925C14.8731 10.3778 15.1375 10.6569 15.1375 10.9801C15.1228 11.3033 14.8731 11.553 14.5499 11.553ZM19.8238 17.5761C19.8238 17.8552 19.6034 18.0903 19.3243 18.0903C19.0452 18.0903 18.8395 17.8699 18.8395 17.5908C18.8395 17.3117 19.0599 17.0913 19.3243 17.0913C19.6034 17.0913 19.8238 17.3117 19.8238 17.5761ZM14.2855 15.4754C14.2855 15.7545 14.0651 15.9749 13.786 15.9749C13.5362 15.9749 13.2865 15.7251 13.2865 15.4754C13.2865 15.2109 13.5215 14.9612 13.8007 14.9759C14.0651 14.9759 14.2855 15.1963 14.2855 15.4754ZM10.701 18.2078C10.9801 18.2078 11.2004 18.4282 11.1858 18.7073C11.1858 18.9717 10.9507 19.2068 10.6863 19.2068C10.4072 19.1921 10.1868 18.957 10.1868 18.6926C10.1868 18.3988 10.4072 18.1931 10.701 18.2078ZM16.9004 14.1385C16.6212 14.1385 16.4009 13.9329 16.4009 13.6537C16.4009 13.3746 16.6066 13.1543 16.9004 13.1543C17.1795 13.1543 17.3998 13.3746 17.3998 13.6391C17.3998 13.9182 17.1795 14.1385 16.9004 14.1385ZM15.9896 10.8919C16.2687 10.8919 16.4743 11.1123 16.4743 11.3914C16.4743 11.6705 16.254 11.8909 15.9749 11.8909C15.6957 11.8909 15.4754 11.6705 15.4754 11.3767C15.4901 11.1123 15.7104 10.8919 15.9896 10.8919ZM12.787 17.3851C12.787 17.6643 12.5667 17.8846 12.3022 17.8993C12.0378 17.8993 11.8028 17.6496 11.8028 17.3851C11.8028 17.106 12.0231 16.9004 12.3022 16.9004C12.5814 16.9004 12.787 17.106 12.787 17.3851ZM16.9297 16.7681C17.2089 16.7681 17.4145 16.9885 17.4145 17.2676C17.4145 17.5467 17.1942 17.7524 16.9151 17.7524C16.6212 17.7524 16.4156 17.532 16.4156 17.2529C16.4303 16.9738 16.6506 16.7534 16.9297 16.7681ZM21.7629 18.3106C21.7629 18.6045 21.5573 18.8248 21.2634 18.8101C20.9843 18.8101 20.7787 18.5898 20.764 18.3106C20.764 18.0462 20.9843 17.8112 21.2488 17.8112C21.5279 17.8259 21.7629 18.0462 21.7629 18.3106ZM15.6664 8.84995C15.9455 8.84995 16.1511 9.05562 16.1511 9.33474C16.1511 9.61386 15.9308 9.83422 15.6664 9.83422C15.3872 9.83422 15.1669 9.61386 15.1669 9.33474C15.1669 9.05562 15.3872 8.84995 15.6664 8.84995ZM17.1942 9.96643C17.1942 10.2015 17.0032 10.3925 16.7535 10.3778C16.5184 10.3778 16.3421 10.1868 16.3421 9.95174C16.3421 9.71669 16.5331 9.52571 16.7681 9.52571C17.0179 9.54041 17.2089 9.73138 17.1942 9.96643ZM10.2456 17.3998C10.2456 17.1648 10.4365 16.9885 10.6716 16.9885C10.9066 16.9885 11.1123 17.1942 11.0976 17.4292C11.0829 17.6643 10.8919 17.8552 10.6716 17.8552C10.4218 17.8405 10.2309 17.6496 10.2456 17.3998ZM20.6024 18.9717C20.6024 19.2215 20.4114 19.4124 20.1763 19.4124C19.9413 19.4124 19.7356 19.2215 19.7356 18.9864C19.7356 18.7514 19.9266 18.5604 20.1763 18.5604C20.4114 18.5604 20.5877 18.7367 20.6024 18.9717ZM12.6989 16.1218C12.6989 16.3568 12.5079 16.5478 12.2729 16.5478C12.0378 16.5478 11.8468 16.3421 11.8468 16.1071C11.8468 15.872 12.0525 15.6957 12.2729 15.6957C12.5079 15.6957 12.6989 15.872 12.6989 16.1218ZM17.0913 12.4344C16.8416 12.4344 16.6653 12.2435 16.6653 12.0084C16.6653 11.7734 16.8563 11.5971 17.0913 11.5971C17.3411 11.5971 17.5174 11.7734 17.5174 12.0231C17.5321 12.2582 17.3558 12.4344 17.0913 12.4344ZM18.2372 17.8259C18.4722 17.8259 18.6485 18.0021 18.6485 18.2519C18.6485 18.5016 18.4576 18.6926 18.2078 18.6926C17.9728 18.6926 17.7965 18.5016 17.7965 18.2666C17.8112 18.0021 18.0022 17.8259 18.2372 17.8259ZM11.2445 16.3568C11.2445 16.5625 11.0829 16.7241 10.8773 16.7241C10.6863 16.7241 10.4953 16.5478 10.51 16.3421C10.51 16.1364 10.6863 15.9749 10.8919 15.9749C11.0976 15.9895 11.2592 16.1511 11.2445 16.3568ZM19.5006 19.3243C19.5006 19.53 19.339 19.6916 19.1333 19.6916C18.9423 19.6916 18.7661 19.5153 18.7661 19.3243C18.7661 19.1186 18.9423 18.957 19.148 18.957C19.3537 18.957 19.5006 19.1186 19.5006 19.3243ZM17.5761 10.3337C17.7965 10.3337 17.9581 10.4806 17.9581 10.701C17.9581 10.9066 17.7965 11.0682 17.5908 11.0682C17.3851 11.0682 17.2236 10.9213 17.2236 10.7156C17.2089 10.4806 17.3558 10.3337 17.5761 10.3337Z" fill="#203E5F"/>
</g>
<circle cx="15" cy="15" r="15" fill="#3A8DC8" fill-opacity="0.2"/>
<defs>
<clipPath id="clip0_295_820">
<rect width="18.8039" height="18.8039" fill="white" transform="translate(6 6)"/>
</clipPath>
</defs>
</svg>
