<svg width="70" height="67" viewBox="0 0 70 67" fill="none" xmlns="http://www.w3.org/2000/svg">
<path d="M46.0964 0H23.6964C11.3252 0 1.2964 9.99897 1.2964 22.3333V44.6667C1.2964 57.001 11.3252 67 23.6964 67H46.0964C58.4676 67 68.4964 57.001 68.4964 44.6667V22.3333C68.4964 9.99897 58.4676 0 46.0964 0Z" fill="url(#paint0_linear_4_15642)"/>
<path fill-rule="evenodd" clip-rule="evenodd" d="M24.1256 11.3239C23.7052 11.1143 23.2103 11.1143 22.7899 11.3239L14.8311 15.2915C14.8122 15.3008 14.7934 15.3106 14.7747 15.3208C14.6238 15.4034 14.4908 15.5099 14.3795 15.6342C14.3212 15.6993 14.2689 15.7693 14.223 15.8432C14.0799 16.0741 14 16.344 14 16.626V45.411C14 45.949 14.291 46.445 14.7612 46.7089L30.667 55.6291C30.7404 55.6718 30.8171 55.7081 30.896 55.7377C30.9744 55.7673 31.0548 55.7899 31.1363 55.8055C31.4723 55.8711 31.8326 55.8225 32.1544 55.6419L48.083 46.7089C48.5534 46.445 48.8443 45.949 48.8443 45.411V36.4054L55.9832 32.8466C56.4892 32.5945 56.8086 32.0788 56.8086 31.5149V21.5889C56.8086 21.1383 56.6045 20.7186 56.2646 20.4394C56.1935 20.381 56.1165 20.3288 56.0339 20.2837C56.0154 20.2736 55.9966 20.2638 55.9776 20.2544L48.0189 16.2869C47.5983 16.0773 47.1036 16.0773 46.6833 16.2869L38.7246 20.2544C38.7055 20.2637 38.6868 20.2735 38.668 20.2837C38.4997 20.3758 38.3538 20.4976 38.2354 20.6407C38.143 20.7522 38.0671 20.8765 38.0108 21.0097C37.961 21.1272 37.9263 21.2516 37.9081 21.3801C37.8983 21.4487 37.8932 21.5184 37.8932 21.5889V30.6442L32.9154 33.4356V16.626C32.9154 16.255 32.7793 15.9156 32.5542 15.6549C32.496 15.5874 32.4316 15.5248 32.3613 15.4682C32.2694 15.3942 32.1689 15.3308 32.0611 15.2799L24.1256 11.3239ZM39.4276 33.2L44.1669 35.5626L31.381 42.7332L26.6417 40.3707L39.4276 33.2ZM45.8576 33.076L40.88 30.5948V23.998L45.8576 26.4795V33.076ZM48.8443 33.076L53.8222 30.5948V23.998L48.8443 26.4795V33.076ZM29.9289 35.1109V19.0351L24.9511 21.5165V37.9023L29.9289 35.1109ZM27.928 44.3412L29.4076 45.0788C29.7452 45.2611 29.9289 45.3839 29.9289 45.442V51.7986L16.9866 44.5403V19.0351L21.9644 21.5165V40.4474C21.9644 40.4829 21.9657 40.5183 21.9681 40.5532C22.0051 41.0755 22.3156 41.5434 22.7899 41.7799C22.7899 41.7799 25.0248 42.9521 26.9888 43.8912C27.3265 44.0526 27.6405 44.2028 27.928 44.3412ZM32.9154 45.2893L45.8576 38.031V44.5403L32.9154 51.7986V45.2893ZM23.4577 18.9317L18.8325 16.626L23.4577 14.3203L28.0829 16.626L23.4577 18.9317ZM51.9761 21.5889L47.3511 19.2832L42.7258 21.5889L47.3511 23.8947L51.9761 21.5889Z" fill="white"/>
<defs>
<linearGradient id="paint0_linear_4_15642" x1="1.2964" y1="33.5" x2="68.4964" y2="33.5" gradientUnits="userSpaceOnUse">
<stop stop-color="#ED6D6B"/>
<stop offset="1" stop-color="#F0B076"/>
</linearGradient>
</defs>
</svg>
