<svg width="48" height="48" viewBox="0 0 48 48" fill="none" xmlns="http://www.w3.org/2000/svg">
<circle cx="24" cy="24" r="24" fill="#1A2634"/>
<path d="M32.25 30C31.9159 30.0015 31.5865 30.0784 31.2863 30.225L28.0613 27H25.5V28.5H27.4395L30.2258 31.2863C30.0791 31.5865 30.0019 31.9159 30 32.25C30 32.695 30.132 33.13 30.3792 33.5C30.6264 33.87 30.9778 34.1584 31.389 34.3287C31.8001 34.499 32.2525 34.5436 32.689 34.4568C33.1254 34.37 33.5263 34.1557 33.841 33.841C34.1557 33.5263 34.37 33.1254 34.4568 32.689C34.5436 32.2525 34.499 31.8001 34.3287 31.389C34.1584 30.9778 33.87 30.6264 33.5 30.3792C33.13 30.132 32.695 30 32.25 30ZM32.25 33C32.1017 33 31.9567 32.956 31.8333 32.8736C31.71 32.7912 31.6139 32.6741 31.5571 32.537C31.5003 32.4 31.4855 32.2492 31.5144 32.1037C31.5433 31.9582 31.6148 31.8246 31.7197 31.7197C31.8246 31.6148 31.9582 31.5434 32.1037 31.5144C32.2492 31.4855 32.4 31.5003 32.537 31.5571C32.6741 31.6139 32.7912 31.71 32.8736 31.8333C32.956 31.9567 33 32.1017 33 32.25C33 32.4489 32.921 32.6397 32.7803 32.7803C32.6397 32.921 32.4489 33 32.25 33ZM32.25 21.75C31.7862 21.7514 31.3341 21.8963 30.956 22.1649C30.5778 22.4335 30.2921 22.8125 30.138 23.25H25.5V24.75H30.138C30.2762 25.1379 30.5183 25.4803 30.8379 25.7399C31.1575 25.9995 31.5424 26.1662 31.9503 26.2219C32.3583 26.2775 32.7737 26.22 33.1512 26.0555C33.5287 25.8911 33.8537 25.626 34.0908 25.2893C34.3278 24.9526 34.4677 24.5573 34.4952 24.1464C34.5228 23.7356 34.4368 23.3251 34.2468 22.9598C34.0569 22.5945 33.7701 22.2884 33.418 22.0751C33.0658 21.8617 32.6618 21.7493 32.25 21.75ZM32.25 24.75C32.1017 24.75 31.9567 24.706 31.8333 24.6236C31.71 24.5412 31.6139 24.4241 31.5571 24.287C31.5003 24.15 31.4855 23.9992 31.5144 23.8537C31.5433 23.7082 31.6148 23.5746 31.7197 23.4697C31.8246 23.3648 31.9582 23.2934 32.1037 23.2644C32.2492 23.2355 32.4 23.2503 32.537 23.3071C32.6741 23.3639 32.7912 23.46 32.8736 23.5833C32.956 23.7067 33 23.8517 33 24C33 24.1989 32.921 24.3897 32.7803 24.5303C32.6397 24.671 32.4489 24.75 32.25 24.75ZM32.25 13.5C31.6534 13.5006 31.0815 13.7378 30.6597 14.1597C30.2378 14.5815 30.0006 15.1534 30 15.75C30.0026 16.1093 30.0921 16.4626 30.261 16.7798L27.447 19.5H25.5V21H28.053L31.353 17.811C31.6595 17.9447 31.992 18.0083 32.3263 17.9973C32.6605 17.9862 32.9881 17.9008 33.2852 17.7472C33.5822 17.5936 33.8413 17.3757 34.0435 17.1093C34.2457 16.843 34.386 16.5349 34.4541 16.2074C34.5223 15.88 34.5165 15.5415 34.4373 15.2166C34.3581 14.8917 34.2075 14.5886 33.9964 14.3292C33.7852 14.0699 33.5189 13.8609 33.2168 13.7174C32.9147 13.574 32.5844 13.4997 32.25 13.5ZM32.25 16.5C32.1017 16.5 31.9567 16.456 31.8333 16.3736C31.71 16.2912 31.6139 16.1741 31.5571 16.037C31.5003 15.9 31.4855 15.7492 31.5144 15.6037C31.5433 15.4582 31.6148 15.3246 31.7197 15.2197C31.8246 15.1148 31.9582 15.0434 32.1037 15.0144C32.2492 14.9855 32.4 15.0003 32.537 15.0571C32.6741 15.1139 32.7912 15.21 32.8736 15.3333C32.956 15.4567 33 15.6017 33 15.75C33 15.9489 32.921 16.1397 32.7803 16.2803C32.6397 16.421 32.4489 16.5 32.25 16.5Z" fill="white"/>
<path d="M25.5 16.5H27V15H25.5C25.0726 15.0014 24.6505 15.0947 24.2623 15.2736C23.8741 15.4524 23.5288 15.7126 23.25 16.0365C22.9712 15.7126 22.6259 15.4524 22.2377 15.2736C21.8495 15.0947 21.4274 15.0014 21 15H20.25C18.4604 15.002 16.7447 15.7138 15.4792 16.9792C14.2138 18.2447 13.502 19.9604 13.5 21.75V26.25C13.502 28.0396 14.2138 29.7553 15.4792 31.0208C16.7447 32.2862 18.4604 32.998 20.25 33H21C21.4274 32.9986 21.8495 32.9053 22.2377 32.7264C22.6259 32.5476 22.9712 32.2874 23.25 31.9635C23.5288 32.2874 23.8741 32.5476 24.2623 32.7264C24.6505 32.9053 25.0726 32.9986 25.5 33H27V31.5H25.5C25.1023 31.4996 24.721 31.3414 24.4398 31.0602C24.1586 30.779 24.0004 30.3977 24 30V18C24.0004 17.6023 24.1586 17.221 24.4398 16.9398C24.721 16.6586 25.1023 16.5004 25.5 16.5ZM21 31.5H20.25C18.9888 31.4977 17.7706 31.0419 16.8177 30.2157C15.8648 29.3895 15.2409 28.2481 15.06 27H16.5V25.5H15V22.5H17.25C17.8466 22.4994 18.4185 22.2622 18.8403 21.8403C19.2622 21.4185 19.4994 20.8466 19.5 20.25V18.75H18V20.25C18 20.4489 17.921 20.6397 17.7803 20.7803C17.6397 20.921 17.4489 21 17.25 21H15.06C15.2409 19.7519 15.8648 18.6105 16.8177 17.7843C17.7706 16.9581 18.9888 16.5023 20.25 16.5H21C21.3977 16.5004 21.779 16.6586 22.0602 16.9398C22.3414 17.221 22.4996 17.6023 22.5 18V21H21V22.5H22.5V25.5H21C20.4034 25.5006 19.8315 25.7378 19.4097 26.1597C18.9878 26.5815 18.7506 27.1534 18.75 27.75V29.25H20.25V27.75C20.25 27.5511 20.329 27.3603 20.4697 27.2197C20.6103 27.079 20.8011 27 21 27H22.5V30C22.4996 30.3977 22.3414 30.779 22.0602 31.0602C21.779 31.3414 21.3977 31.4996 21 31.5Z" fill="white"/>
</svg>
