<svg width="48" height="48" viewBox="0 0 48 48" fill="none" xmlns="http://www.w3.org/2000/svg">
<circle cx="24" cy="24" r="24" fill="#1A2634"/>
<path d="M24.71 28.29L24.56 28.17C24.5043 28.1322 24.4437 28.1019 24.38 28.08L24.2 28C24.0378 27.9661 23.8698 27.973 23.7109 28.0201C23.5521 28.0673 23.4074 28.1531 23.29 28.27C23.2017 28.3672 23.1306 28.4788 23.08 28.6C23.0043 28.7822 22.9842 28.9827 23.0223 29.1763C23.0603 29.3699 23.1547 29.5479 23.2937 29.688C23.4327 29.828 23.61 29.9238 23.8033 29.9633C23.9966 30.0028 24.1972 29.9843 24.38 29.91C24.4995 29.852 24.6105 29.778 24.71 29.69C24.8488 29.5494 24.9428 29.3708 24.9801 29.1768C25.0175 28.9828 24.9966 28.7821 24.92 28.6C24.8701 28.4844 24.7989 28.3792 24.71 28.29ZM28 14H20C19.2044 14 18.4413 14.3161 17.8787 14.8787C17.3161 15.4413 17 16.2044 17 17V31C17 31.7956 17.3161 32.5587 17.8787 33.1213C18.4413 33.6839 19.2044 34 20 34H28C28.7956 34 29.5587 33.6839 30.1213 33.1213C30.6839 32.5587 31 31.7956 31 31V17C31 16.2044 30.6839 15.4413 30.1213 14.8787C29.5587 14.3161 28.7956 14 28 14ZM29 31C29 31.2652 28.8946 31.5196 28.7071 31.7071C28.5196 31.8946 28.2652 32 28 32H20C19.7348 32 19.4804 31.8946 19.2929 31.7071C19.1054 31.5196 19 31.2652 19 31V17C19 16.7348 19.1054 16.4804 19.2929 16.2929C19.4804 16.1054 19.7348 16 20 16H28C28.2652 16 28.5196 16.1054 28.7071 16.2929C28.8946 16.4804 29 16.7348 29 17V31Z" fill="white"/>
</svg>
