<svg width="207" height="207" viewBox="0 0 207 207" fill="none" xmlns="http://www.w3.org/2000/svg">
<g filter="url(#filter0_d_293_1354)">
<circle cx="103.235" cy="99.2347" r="83.2347" fill="white"/>
</g>
<g filter="url(#filter1_d_293_1354)">
<circle cx="103.749" cy="99.7482" r="20.9835" fill="white"/>
</g>
<path d="M106.322 89.9877L103.405 92.243L108.52 94.9731V99.1671L111.557 96.8327V93.0343L106.322 89.9877Z" fill="#5E4BF5"/>
<path d="M111.557 105.498V99.8793L108.52 102.214V107.832L111.557 105.498Z" fill="#5E4BF5"/>
<path d="M100.248 100.275L95.4531 97.9801V104.153L100.248 106.487V100.275Z" fill="#5E4BF5"/>
<path d="M105.723 96.5953L95.4931 91.6495V95.0126L102.766 98.5341V107.595L105.723 109.019V96.5953Z" fill="#5E4BF5"/>
<circle cx="103.5" cy="99.5" r="66" stroke="#1A2634" stroke-width="3" stroke-dasharray="120 45"/>
<path d="M158.406 57.1004C158.004 55.9746 157.118 54.9799 155.885 54.2705C154.652 53.561 153.142 53.1765 151.588 53.1765C150.034 53.1765 148.524 53.561 147.291 54.2705C146.058 54.9799 145.172 55.9746 144.77 57.1004" stroke="#33363F" stroke-width="2" stroke-linecap="round"/>
<circle cx="151.588" cy="46.1176" r="3.52941" stroke="#33363F" stroke-width="2" stroke-linecap="round"/>
<circle cx="57.8188" cy="49.0588" r="3.31765" stroke="#33363F" stroke-width="1.6" stroke-linecap="round"/>
<path d="M60.9855 48.9441C61.2889 48.4185 61.7887 48.035 62.3749 47.8779C62.9611 47.7208 63.5857 47.8031 64.1113 48.1065C64.6368 48.4099 65.0203 48.9097 65.1774 49.4959C65.3345 50.0821 65.2523 50.7067 64.9488 51.2323C64.6454 51.7579 64.1456 52.1414 63.5594 52.2984C62.9732 52.4555 62.3486 52.3733 61.823 52.0698C61.2975 51.7664 60.9139 51.2666 60.7569 50.6804C60.5998 50.0942 60.682 49.4696 60.9855 48.9441L60.9855 48.9441Z" stroke="#33363F" stroke-width="1.6"/>
<path d="M50.6905 48.9441C50.994 48.4185 51.4938 48.035 52.08 47.8779C52.6662 47.7208 53.2908 47.8031 53.8163 48.1065C54.3419 48.4099 54.7254 48.9097 54.8825 49.4959C55.0396 50.0821 54.9573 50.7067 54.6539 51.2323C54.3505 51.7579 53.8507 52.1414 53.2645 52.2984C52.6783 52.4555 52.0537 52.3733 51.5281 52.0698C51.0025 51.7664 50.619 51.2666 50.462 50.6804C50.3049 50.0942 50.3871 49.4696 50.6905 48.9441L50.6905 48.9441Z" stroke="#33363F" stroke-width="1.6"/>
<path d="M62.8442 59.3529L62.06 59.5108L62.1893 60.1529H62.8442V59.3529ZM66.807 58.2568L66.0516 58.5204L66.0516 58.5204L66.807 58.2568ZM60.6816 55.9667L60.1978 55.3296L59.2725 56.0324L60.2591 56.646L60.6816 55.9667ZM65.951 58.5529H62.8442V60.1529H65.951V58.5529ZM66.0516 58.5204C66.0561 58.5333 66.053 58.5318 66.0548 58.5219C66.0563 58.5139 66.0589 58.5121 66.0559 58.5159C66.0486 58.5249 66.0168 58.5529 65.951 58.5529V60.1529C66.9891 60.1529 67.9779 59.1844 67.5623 57.9933L66.0516 58.5204ZM62.9661 56.0352C64.8216 56.0352 65.6603 57.3987 66.0516 58.5204L67.5623 57.9933C67.1025 56.6753 65.8773 54.4352 62.9661 54.4352V56.0352ZM61.1655 56.6037C61.6006 56.2733 62.176 56.0352 62.9661 56.0352V54.4352C61.8209 54.4352 60.9067 54.7911 60.1978 55.3296L61.1655 56.6037ZM60.2591 56.646C61.4079 57.3605 61.8756 58.5954 62.06 59.5108L63.6285 59.1949C63.4091 58.1058 62.8044 56.3448 61.1041 55.2873L60.2591 56.646Z" fill="#33363F"/>
<path d="M54.9577 55.9666L55.3802 56.646L56.3668 56.0324L55.4416 55.3296L54.9577 55.9666ZM48.8323 58.2568L49.5877 58.5204L49.5877 58.5204L48.8323 58.2568ZM52.7951 59.3529V60.1529H53.45L53.5793 59.5108L52.7951 59.3529ZM52.6733 56.0352C53.4633 56.0352 54.0388 56.2733 54.4738 56.6037L55.4416 55.3296C54.7327 54.7911 53.8184 54.4352 52.6733 54.4352V56.0352ZM49.5877 58.5204C49.979 57.3987 50.8178 56.0352 52.6733 56.0352V54.4352C49.762 54.4352 48.5368 56.6753 48.077 57.9933L49.5877 58.5204ZM49.6884 58.5529C49.6225 58.5529 49.5907 58.5249 49.5834 58.5159C49.5804 58.5121 49.5831 58.5139 49.5845 58.5219C49.5864 58.5318 49.5832 58.5333 49.5877 58.5204L48.077 57.9933C47.6614 59.1844 48.6503 60.1529 49.6884 60.1529V58.5529ZM52.7951 58.5529H49.6884V60.1529H52.7951V58.5529ZM53.5793 59.5108C53.7637 58.5954 54.2314 57.3604 55.3802 56.646L54.5352 55.2873C52.8349 56.3448 52.2302 58.1058 52.0108 59.1949L53.5793 59.5108Z" fill="#33363F"/>
<path d="M57.8189 55.2352C61.5185 55.2352 62.5589 57.8944 62.8515 59.39C62.9575 59.9321 62.5183 60.3823 61.966 60.3823H53.6719C53.1196 60.3823 52.6803 59.9321 52.7864 59.39C53.0789 57.8944 54.1194 55.2352 57.8189 55.2352Z" stroke="#33363F" stroke-width="1.6" stroke-linecap="round"/>
<circle cx="149.584" cy="139.941" r="3.31765" stroke="#33363F" stroke-width="1.6" stroke-linecap="round"/>
<path d="M152.751 139.826C153.055 139.301 153.554 138.917 154.141 138.76C154.727 138.603 155.351 138.685 155.877 138.989C156.402 139.292 156.786 139.792 156.943 140.378C157.1 140.965 157.018 141.589 156.714 142.115C156.411 142.64 155.911 143.024 155.325 143.181C154.739 143.338 154.114 143.256 153.589 142.952C153.063 142.649 152.68 142.149 152.523 141.563C152.365 140.977 152.448 140.352 152.751 139.826L152.751 139.826Z" stroke="#33363F" stroke-width="1.6"/>
<path d="M142.456 139.826C142.76 139.301 143.259 138.917 143.846 138.76C144.432 138.603 145.056 138.685 145.582 138.989C146.108 139.292 146.491 139.792 146.648 140.378C146.805 140.965 146.723 141.589 146.42 142.115C146.116 142.64 145.616 143.024 145.03 143.181C144.444 143.338 143.819 143.256 143.294 142.952C142.768 142.649 142.385 142.149 142.228 141.563C142.071 140.977 142.153 140.352 142.456 139.826L142.456 139.826Z" stroke="#33363F" stroke-width="1.6"/>
<path d="M154.61 150.235L153.826 150.393L153.955 151.035H154.61V150.235ZM158.573 149.139L157.817 149.403L157.817 149.403L158.573 149.139ZM152.447 146.849L151.963 146.212L151.038 146.915L152.025 147.528L152.447 146.849ZM157.717 149.435H154.61V151.035H157.717V149.435ZM157.817 149.403C157.822 149.416 157.819 149.414 157.82 149.404C157.822 149.396 157.825 149.394 157.822 149.398C157.814 149.407 157.782 149.435 157.717 149.435V151.035C158.755 151.035 159.744 150.067 159.328 148.876L157.817 149.403ZM154.732 146.918C156.587 146.918 157.426 148.281 157.817 149.403L159.328 148.876C158.868 147.558 157.643 145.318 154.732 145.318V146.918ZM152.931 147.486C153.366 147.156 153.942 146.918 154.732 146.918V145.318C153.587 145.318 152.672 145.674 151.963 146.212L152.931 147.486ZM152.025 147.528C153.174 148.243 153.641 149.478 153.826 150.393L155.394 150.077C155.175 148.988 154.57 147.227 152.87 146.17L152.025 147.528Z" fill="#33363F"/>
<path d="M146.723 146.849L147.146 147.528L148.132 146.915L147.207 146.212L146.723 146.849ZM140.598 149.139L141.353 149.403L141.353 149.403L140.598 149.139ZM144.561 150.235V151.035H145.216L145.345 150.393L144.561 150.235ZM144.439 146.918C145.229 146.918 145.804 147.156 146.239 147.486L147.207 146.212C146.498 145.674 145.584 145.318 144.439 145.318V146.918ZM141.353 149.403C141.745 148.281 142.583 146.918 144.439 146.918V145.318C141.528 145.318 140.302 147.558 139.843 148.876L141.353 149.403ZM141.454 149.435C141.388 149.435 141.356 149.407 141.349 149.398C141.346 149.394 141.349 149.396 141.35 149.404C141.352 149.414 141.349 149.416 141.353 149.403L139.843 148.876C139.427 150.067 140.416 151.035 141.454 151.035V149.435ZM144.561 149.435H141.454V151.035H144.561V149.435ZM145.345 150.393C145.529 149.478 145.997 148.243 147.146 147.528L146.301 146.17C144.601 147.227 143.996 148.988 143.776 150.077L145.345 150.393Z" fill="#33363F"/>
<path d="M149.585 146.118C153.284 146.118 154.325 148.777 154.617 150.272C154.723 150.814 154.284 151.265 153.732 151.265H145.437C144.885 151.265 144.446 150.814 144.552 150.272C144.845 148.777 145.885 146.118 149.585 146.118Z" stroke="#33363F" stroke-width="1.6" stroke-linecap="round"/>
<path d="M62.2326 153.277C61.8304 152.151 60.9442 151.156 59.7114 150.447C58.4787 149.738 56.9682 149.353 55.4143 149.353C53.8604 149.353 52.3499 149.738 51.1172 150.447C49.8844 151.156 48.9982 152.151 48.596 153.277" stroke="#33363F" stroke-width="2" stroke-linecap="round"/>
<circle cx="55.4142" cy="142.294" r="3.52941" stroke="#33363F" stroke-width="2" stroke-linecap="round"/>
<defs>
<filter id="filter0_d_293_1354" x="0" y="0" width="206.469" height="206.469" filterUnits="userSpaceOnUse" color-interpolation-filters="sRGB">
<feFlood flood-opacity="0" result="BackgroundImageFix"/>
<feColorMatrix in="SourceAlpha" type="matrix" values="0 0 0 0 0 0 0 0 0 0 0 0 0 0 0 0 0 0 127 0" result="hardAlpha"/>
<feOffset dy="4"/>
<feGaussianBlur stdDeviation="10"/>
<feComposite in2="hardAlpha" operator="out"/>
<feColorMatrix type="matrix" values="0 0 0 0 0 0 0 0 0 0 0 0 0 0 0 0 0 0 0.12 0"/>
<feBlend mode="normal" in2="BackgroundImageFix" result="effect1_dropShadow_293_1354"/>
<feBlend mode="normal" in="SourceGraphic" in2="effect1_dropShadow_293_1354" result="shape"/>
</filter>
<filter id="filter1_d_293_1354" x="62.7656" y="66.7646" width="81.9668" height="81.9671" filterUnits="userSpaceOnUse" color-interpolation-filters="sRGB">
<feFlood flood-opacity="0" result="BackgroundImageFix"/>
<feColorMatrix in="SourceAlpha" type="matrix" values="0 0 0 0 0 0 0 0 0 0 0 0 0 0 0 0 0 0 127 0" result="hardAlpha"/>
<feOffset dy="8"/>
<feGaussianBlur stdDeviation="10"/>
<feComposite in2="hardAlpha" operator="out"/>
<feColorMatrix type="matrix" values="0 0 0 0 0 0 0 0 0 0 0 0 0 0 0 0 0 0 0.09 0"/>
<feBlend mode="normal" in2="BackgroundImageFix" result="effect1_dropShadow_293_1354"/>
<feBlend mode="normal" in="SourceGraphic" in2="effect1_dropShadow_293_1354" result="shape"/>
</filter>
</defs>
</svg>
