<svg width="106" height="65" viewBox="0 0 106 65" fill="none" xmlns="http://www.w3.org/2000/svg">
<path d="M53.2172 47.2828C53.3734 47.4391 53.6266 47.4391 53.7828 47.2828L56.3284 44.7373C56.4846 44.581 56.4846 44.3278 56.3284 44.1716C56.1722 44.0154 55.919 44.0154 55.7627 44.1716L53.5 46.4343L51.2373 44.1716C51.081 44.0154 50.8278 44.0154 50.6716 44.1716C50.5154 44.3278 50.5154 44.581 50.6716 44.7373L53.2172 47.2828ZM53.9 47L53.9 27.5L53.1 27.5L53.1 47L53.9 47Z" fill="#203E5F"/>
<path d="M72.8845 45.883C73.096 45.9467 73.3192 45.827 73.383 45.6155L74.4224 42.1688C74.4862 41.9573 74.3665 41.7342 74.155 41.6704C73.9435 41.6066 73.7203 41.7263 73.6565 41.9378L72.7325 45.0015L69.6688 44.0776C69.4573 44.0138 69.2342 44.1335 69.1704 44.345C69.1066 44.5565 69.2263 44.7797 69.4378 44.8435L72.8845 45.883ZM73.3525 45.3109L62.3525 24.8109L61.6475 25.1891L72.6475 45.6891L73.3525 45.3109Z" fill="#203E5F"/>
<path d="M88.5868 32.8905C88.8024 32.8426 88.9384 32.6289 88.8905 32.4132L88.1095 28.899C88.0616 28.6833 87.8479 28.5473 87.6323 28.5953C87.4166 28.6432 87.2807 28.8568 87.3286 29.0725L88.0228 32.1963L84.899 32.8905C84.6833 32.9384 84.5473 33.1521 84.5953 33.3677C84.6432 33.5834 84.8568 33.7193 85.0725 33.6714L88.5868 32.8905ZM88.7148 32.1625L66.7148 18.1625L66.2853 18.8375L88.2852 32.8375L88.7148 32.1625Z" fill="#203E5F"/>
<circle cx="53.5" cy="12.5" r="12.5" fill="white"/>
<path fill-rule="evenodd" clip-rule="evenodd" d="M53.6562 22.25V23.625C53.6562 23.8147 53.8102 23.9688 54 23.9688C54.1897 23.9688 54.3437 23.8147 54.3437 23.625V22.25C54.3437 22.0603 54.1897 21.9062 54 21.9062C53.8102 21.9062 53.6562 22.0603 53.6562 22.25ZM56.2351 21.7529L57.1515 23.1279C57.2567 23.2861 57.4705 23.3287 57.6279 23.2235C57.7861 23.1183 57.8287 22.9045 57.7235 22.7471L56.8071 21.3721C56.7019 21.2139 56.4881 21.1713 56.3299 21.2765C56.1725 21.3817 56.1299 21.5955 56.2351 21.7529ZM51.1929 21.3721L50.2765 22.7471C50.1713 22.9045 50.2139 23.1183 50.3721 23.2235C50.5295 23.3287 50.7433 23.2861 50.8485 23.1279L51.7649 21.7529C51.8701 21.5955 51.8275 21.3817 51.6701 21.2765C51.5119 21.1713 51.2981 21.2139 51.1929 21.3721ZM47.6688 4.13575L47.664 4.13163C47.5299 3.99756 47.312 3.99825 47.1779 4.13231L44.8274 6.49525C44.8157 6.50419 44.804 6.51381 44.7937 6.52481L44.1282 7.19031C44.0477 7.27006 44.0154 7.38006 44.0312 7.48456V10.6044C44.0312 10.6952 44.0677 10.7825 44.1316 10.8471L44.694 11.4095C44.8287 11.5436 45.046 11.5436 45.1807 11.4095L45.4234 11.1668L46.9737 12.7171C46.6499 13.3613 46.7565 14.1664 47.2948 14.7047L49.6247 17.0346C49.2294 17.4382 49.2315 18.0858 49.6316 18.4859C49.7155 18.5698 49.8117 18.6372 49.9169 18.6874L49.8331 18.7706C49.6399 18.9644 49.5312 19.2264 49.5312 19.5C49.5312 19.7736 49.6399 20.0356 49.8331 20.2294C50.2359 20.6316 50.8891 20.6316 51.2919 20.2294L51.5766 19.9441C51.6267 20.0493 51.6941 20.1456 51.778 20.2294C52.1809 20.6316 52.8333 20.6316 53.2362 20.2294L54 19.4656L54.7638 20.2294C55.1667 20.6316 55.8191 20.6316 56.222 20.2294C56.3059 20.1456 56.3732 20.0493 56.4234 19.9441L56.7081 20.2294C57.1109 20.6316 57.7641 20.6316 58.1669 20.2294C58.3601 20.0356 58.4687 19.7736 58.4687 19.5C58.4687 19.2264 58.3601 18.9644 58.1669 18.7706L58.0831 18.6874C58.1882 18.6372 58.2845 18.5698 58.3684 18.4859C58.7685 18.0858 58.7706 17.4382 58.3752 17.0346L60.7052 14.7047C61.2435 14.1664 61.3501 13.3613 61.0262 12.7171L62.5766 11.1668L62.8192 11.4095C62.954 11.5436 63.1712 11.5436 63.306 11.4095L63.8684 10.8471C63.9323 10.7825 63.9687 10.6952 63.9687 10.6044V7.43712C63.9687 7.39106 63.9598 7.34706 63.9433 7.3065L63.9426 7.30513C63.9261 7.26525 63.9014 7.22744 63.8684 7.19444L60.8221 4.13231C60.688 3.99825 60.4701 3.99756 60.336 4.13163C60.2012 4.265 60.2006 4.48294 60.3346 4.61769L60.3546 4.63762L58.444 6.54819C58.3099 6.68225 58.3099 6.90019 58.444 7.03425L58.6874 7.27763L57.0456 8.91937C56.4647 8.75437 55.8143 8.90012 55.3578 9.35731L54 10.7151L52.6422 9.35731C52.1857 8.90012 51.5353 8.75437 50.9544 8.91937L49.3126 7.27763L49.556 7.03425C49.6901 6.90019 49.6901 6.68225 49.556 6.54819L47.6489 4.64175L47.6688 4.62181C47.8029 4.48775 47.8029 4.26981 47.6688 4.13575ZM53.5139 11.2012L52.1561 9.84338C51.7532 9.4405 51.1001 9.4405 50.6972 9.84338C50.6972 9.84338 48.9324 11.6082 47.7809 12.7598C47.378 13.1626 47.378 13.8158 47.7809 14.2186L52.3328 18.7706C52.3974 18.8352 52.4847 18.8716 52.5762 18.8716C52.6676 18.8716 52.7549 18.8352 52.8189 18.7706C52.9536 18.6365 52.9536 18.4193 52.8189 18.2845L52.3039 17.7696C52.2964 17.7634 52.2888 17.7565 52.2819 17.7489L51.36 16.827C51.2259 16.6929 51.2259 16.475 51.36 16.3409C51.4941 16.2069 51.712 16.2069 51.8461 16.3409L51.8467 16.3402L55.2499 19.7434C55.3839 19.8774 55.6019 19.8774 55.7359 19.7434C55.8006 19.6788 55.837 19.5914 55.837 19.5C55.837 19.4086 55.8006 19.3212 55.7359 19.2566L53.3056 16.8263C53.1709 16.6923 53.1709 16.4743 53.3056 16.3402C53.4397 16.2062 53.6576 16.2062 53.7917 16.3402L57.1941 19.7434C57.3289 19.8774 57.5461 19.8774 57.6809 19.7434C57.7448 19.6788 57.7812 19.5914 57.7812 19.5C57.7812 19.4086 57.7448 19.3212 57.6809 19.2566L54.5706 16.1471C54.5507 16.134 54.5314 16.1182 54.5136 16.1003L54.0309 15.6108C53.8982 15.4754 53.8996 15.2581 54.0344 15.1247C54.1698 14.9914 54.3877 14.9928 54.5204 15.1282L54.5252 15.133C54.5266 15.1316 54.5273 15.1316 54.528 15.1316L57.3956 17.9999C57.4602 18.0645 57.5475 18.1003 57.6389 18.1003C57.7297 18.1003 57.8177 18.0645 57.8816 17.9999C58.0164 17.8658 58.0164 17.6479 57.8816 17.5138L54 13.6315L53.7222 13.9093C53.5291 14.1031 53.2664 14.2118 52.9935 14.2118C52.7199 14.2118 52.4572 14.1031 52.2641 13.9093C52.0709 13.7161 51.9622 13.4534 51.9622 13.1805C51.9622 12.9069 52.0709 12.6442 52.2641 12.4511L53.5139 11.2012ZM51.0829 18.4928L50.3191 19.2566C50.2552 19.3212 50.2187 19.4086 50.2187 19.5C50.2187 19.5914 50.2552 19.6788 50.3191 19.7434C50.4539 19.8774 50.6711 19.8774 50.8059 19.7434L51.569 18.9796L51.0829 18.4928ZM53.0492 19.4443C52.9041 19.5193 52.7419 19.5591 52.5762 19.5591C52.4332 19.5591 52.2929 19.5296 52.1644 19.4732C52.1637 19.4821 52.163 19.4911 52.163 19.5C52.163 19.5914 52.1994 19.6788 52.2641 19.7434C52.3981 19.8774 52.6161 19.8774 52.7501 19.7434L53.0492 19.4443ZM50.1108 17.5207C49.9836 17.6554 49.9864 17.8679 50.1184 17.9999C50.1823 18.0645 50.2703 18.1003 50.3611 18.1003C50.4491 18.1003 50.5329 18.0672 50.5969 18.0067L50.1108 17.5207ZM57.8892 16.5486L60.2191 14.2186C60.622 13.8158 60.622 13.1626 60.2191 12.7598L57.3027 9.84338C56.8999 9.4405 56.2467 9.4405 55.8439 9.84338L52.7501 12.9371C52.6855 13.0018 52.6497 13.0891 52.6497 13.1805C52.6497 13.2712 52.6855 13.3586 52.7501 13.4232C52.8147 13.4878 52.9021 13.5242 52.9935 13.5242C53.0842 13.5242 53.1716 13.4878 53.2362 13.4232C53.9457 12.7137 55.3578 11.3016 55.3578 11.3016C55.4926 11.1675 55.7098 11.1675 55.8439 11.3016C56.2467 11.7037 56.8999 11.7037 57.3027 11.3016C57.4368 11.1675 57.6547 11.1675 57.7888 11.3016C57.9229 11.4356 57.9229 11.6536 57.7888 11.7876C57.201 12.3754 56.2928 12.4483 55.6252 12.0063L54.4861 13.1454L57.8892 16.5486ZM57.7152 9.22188L58.3471 9.85438L59.2566 8.94412C59.3914 8.81006 59.6086 8.81006 59.7434 8.94412C59.8774 9.07887 59.8774 9.29613 59.7434 9.43088L58.8331 10.3404C59.6561 11.1634 60.6316 12.1389 60.6316 12.1389L62.0905 10.6807L59.1734 7.76369L57.7152 9.22188ZM49.6529 9.85438L50.2847 9.22188L48.8266 7.76369L45.9095 10.6807L47.3684 12.1389C47.3684 12.1389 48.3439 11.1634 49.1669 10.3404L48.2566 9.43088C48.1226 9.29613 48.1226 9.07887 48.2566 8.94412C48.3914 8.81006 48.6086 8.81006 48.7434 8.94412L49.6529 9.85438ZM60.875 5.85931C60.3057 5.85931 59.8437 6.32131 59.8437 6.89056C59.8437 7.45981 60.3057 7.92181 60.875 7.92181C61.4442 7.92181 61.9062 7.45981 61.9062 6.89056C61.9062 6.32131 61.4442 5.85931 60.875 5.85931ZM52.2235 6.93456L50.8485 4.87206C50.7433 4.71394 50.5295 4.67131 50.3721 4.7765C50.2139 4.88169 50.1713 5.0955 50.2765 5.25294L51.6515 7.31544C51.7567 7.47356 51.9705 7.51619 52.1279 7.411C52.2861 7.30581 52.3287 7.092 52.2235 6.93456ZM56.3485 7.31544L57.7235 5.25294C57.8287 5.0955 57.7861 4.88169 57.6279 4.7765C57.4705 4.67131 57.2567 4.71394 57.1515 4.87206L55.7765 6.93456C55.6713 7.092 55.7139 7.30581 55.8721 7.411C56.0295 7.51619 56.2433 7.47356 56.3485 7.31544ZM60.875 6.54681C61.0647 6.54681 61.2187 6.70081 61.2187 6.89056C61.2187 7.08031 61.0647 7.23431 60.875 7.23431C60.6852 7.23431 60.5312 7.08031 60.5312 6.89056C60.5312 6.70081 60.6852 6.54681 60.875 6.54681ZM54.3437 6.4375V4.375C54.3437 4.18525 54.1897 4.03125 54 4.03125C53.8102 4.03125 53.6562 4.18525 53.6562 4.375V6.4375C53.6562 6.62725 53.8102 6.78125 54 6.78125C54.1897 6.78125 54.3437 6.62725 54.3437 6.4375Z" fill="#203E5F"/>
<circle cx="7.5" cy="38.5" r="7.5" fill="white"/>
<g clip-path="url(#clip0_149_29)">
<path d="M6.35873 41.8816H8.63092V43.4122H6.35873V41.8816Z" fill="#6288CC"/>
<path d="M3.10862 35.8256H11.8923C12.1576 35.8256 12.3727 36.0407 12.3727 36.306V41.6857C12.3727 41.951 12.1576 42.1661 11.8923 42.1661H3.10862C2.84331 42.1661 2.62823 41.951 2.62823 41.6857V36.306C2.62823 36.0407 2.84331 35.8256 3.10862 35.8256Z" fill="#A8B7EE"/>
<path d="M2.62737 36.306V40.8787H12.3727V36.306C12.3727 36.1786 12.3221 36.0564 12.232 35.9663C12.1419 35.8762 12.0197 35.8256 11.8923 35.8256H3.10776C2.98035 35.8256 2.85816 35.8762 2.76807 35.9663C2.67798 36.0564 2.62737 36.1786 2.62737 36.306Z" fill="#3B579F"/>
<path d="M3.21687 36.2338L3.72476 36.1333L3.9989 36.9076L3.44375 36.9987L3.21687 36.2338Z" fill="#FF4155"/>
<path d="M6.21951 35.2602C6.24277 35.389 6.22731 35.5218 6.17507 35.6418C6.12284 35.7618 6.03618 35.8637 5.92606 35.9344C5.81594 36.0052 5.68731 36.0417 5.55643 36.0394C5.42556 36.037 5.29832 35.9959 5.19081 35.9212C5.08331 35.8466 5.00036 35.7417 4.95248 35.6198C4.90459 35.498 4.89391 35.3647 4.92178 35.2368C4.94966 35.1089 5.01484 34.9922 5.10908 34.9013C5.20333 34.8105 5.32239 34.7497 5.45123 34.7265C5.62387 34.6954 5.80177 34.7342 5.94583 34.8343C6.0899 34.9344 6.18833 35.0875 6.21951 35.2602Z" fill="#FFB331"/>
<path d="M5.16165 34.3355C4.73116 34.7761 4.17865 35.0778 3.57525 35.2017C3.43689 35.6022 3.54603 35.9331 3.76087 36.233C4.36936 36.1384 4.99224 36.2281 5.54923 36.4908C5.67814 35.6813 5.56384 34.9551 5.16165 34.3355Z" fill="#BDCBF5"/>
<path d="M3.00348 36.37L3.76054 36.2342L3.57541 35.2022L2.81836 35.3381C2.75801 35.3489 2.70444 35.3832 2.66942 35.4336C2.6344 35.4839 2.62081 35.5461 2.63164 35.6064L2.73497 36.1824C2.74033 36.2123 2.75152 36.2409 2.76791 36.2664C2.7843 36.292 2.80556 36.3141 2.83048 36.3314C2.8554 36.3487 2.88349 36.361 2.91315 36.3675C2.9428 36.374 2.97345 36.3745 3.00333 36.3692L3.00348 36.37Z" fill="#E10459"/>
<path d="M5.80014 36.6704C5.77237 36.6756 5.74385 36.6753 5.7162 36.6695C5.68855 36.6637 5.66233 36.6525 5.63902 36.6365C5.61571 36.6205 5.59578 36.6001 5.58037 36.5765C5.56495 36.5528 5.55436 36.5263 5.5492 36.4985L5.16162 34.338C5.15129 34.2819 5.16356 34.2239 5.19574 34.1768C5.22793 34.1296 5.27744 34.0971 5.33349 34.0863C5.38962 34.0762 5.44746 34.0885 5.49456 34.1207C5.54166 34.1528 5.57425 34.2022 5.58529 34.2581L5.97545 36.4195C5.98545 36.476 5.9726 36.5342 5.93973 36.5812C5.90685 36.6283 5.85665 36.6603 5.80014 36.6704Z" fill="#E10459"/>
<path d="M8.14627 34.0158H11.558V36.7228H8.14627V34.0158Z" fill="#E10459"/>
<path d="M10.4614 34.9473V35.7912C10.4618 35.8317 10.4515 35.8715 10.4315 35.9066C10.4116 35.9418 10.3827 35.971 10.3478 35.9914C10.3129 36.0119 10.2733 36.0227 10.2329 36.0228C10.1925 36.023 10.1527 36.0125 10.1177 35.9923L9.35712 35.5695C9.32129 35.5498 9.2914 35.5208 9.27059 35.4856C9.24978 35.4504 9.2388 35.4102 9.2388 35.3693C9.2388 35.3284 9.24978 35.2882 9.27059 35.253C9.2914 35.2178 9.32129 35.1888 9.35712 35.1691L10.1211 34.7471C10.156 34.7276 10.1953 34.7175 10.2352 34.718C10.2752 34.7184 10.3143 34.7293 10.3487 34.7495C10.3832 34.7698 10.4117 34.7987 10.4315 34.8334C10.4512 34.8681 10.4616 34.9074 10.4614 34.9473Z" fill="#DBDFEE"/>
<path d="M7.50001 37.3313H11.558V39.9927H7.50001V37.3313Z" fill="#FF9102"/>
<path d="M11.558 37.3313L9.529 38.6616L7.50001 37.3313" fill="#FFB331"/>
<path d="M4.05131 37.3313H6.83655V39.2666H4.05131V37.3313Z" fill="#FFDC41"/>
<path d="M3.25212 38.0574H6.03735V39.9927H3.25212V38.0574Z" fill="#FBEFBC"/>
<path d="M2.57409 36.0164L2.50448 35.6297C2.48744 35.5356 2.50846 35.4385 2.56293 35.3599C2.61739 35.2813 2.70084 35.2275 2.79495 35.2103C3.11979 35.0891 4.12526 35.1888 5.02932 34.2865C5.02605 34.2413 5.0317 34.196 5.04595 34.153C5.0602 34.1101 5.08277 34.0703 5.11238 34.0361C5.14199 34.0019 5.17805 33.9738 5.2185 33.9535C5.25895 33.9332 5.30301 33.9211 5.34815 33.9178C5.39329 33.9145 5.43864 33.9202 5.48159 33.9344C5.52455 33.9487 5.56428 33.9713 5.59852 34.0009C5.66766 34.0607 5.71021 34.1455 5.71682 34.2366L5.78127 34.6191C5.9235 34.6587 6.05181 34.7374 6.15172 34.8461C6.25164 34.9548 6.31918 35.0893 6.34674 35.2344C6.37496 35.3895 6.35548 35.5495 6.29088 35.6933H8.01565V34.0158C8.01565 33.9816 8.02923 33.9488 8.0534 33.9246C8.07758 33.9005 8.11037 33.8869 8.14456 33.8869H11.558C11.5922 33.8869 11.625 33.9005 11.6491 33.9246C11.6733 33.9488 11.6869 33.9816 11.6869 34.0158V35.6967H11.8923C12.0538 35.6969 12.2087 35.7612 12.3229 35.8754C12.4371 35.9896 12.5014 36.1445 12.5016 36.306V41.6857C12.5014 41.8472 12.4371 42.0021 12.3229 42.1163C12.2087 42.2305 12.0538 42.2948 11.8923 42.295H11.4583C11.4241 42.295 11.3913 42.2814 11.3672 42.2572C11.343 42.2331 11.3294 42.2003 11.3294 42.1661C11.3294 42.1319 11.343 42.0991 11.3672 42.0749C11.3913 42.0508 11.4241 42.0372 11.4583 42.0372H11.8923C11.9855 42.0372 12.0749 42.0002 12.1408 41.9342C12.2067 41.8683 12.2438 41.7789 12.2438 41.6857V41.0077H6.15854C6.12435 41.0077 6.09156 40.9941 6.06739 40.9699C6.04321 40.9457 6.02963 40.9129 6.02963 40.8787C6.02963 40.8446 6.04321 40.8118 6.06739 40.7876C6.09156 40.7634 6.12435 40.7498 6.15854 40.7498H12.2438V36.306C12.2438 36.2128 12.2067 36.1234 12.1408 36.0575C12.0749 35.9916 11.9855 35.9545 11.8923 35.9545H11.6869V36.7228C11.6869 36.757 11.6733 36.7898 11.6491 36.814C11.625 36.8381 11.5922 36.8517 11.558 36.8517H8.14627C8.11209 36.8517 8.0793 36.8381 8.05512 36.814C8.03095 36.7898 8.01737 36.757 8.01737 36.7228V35.9545H6.10354C6.0812 35.9752 6.05885 35.9949 6.03393 36.0138L6.10268 36.3971C6.12787 36.4853 6.11698 36.5799 6.07242 36.6601C6.02786 36.7403 5.95327 36.7995 5.86506 36.8246C5.77686 36.8498 5.68226 36.8389 5.60208 36.7944C5.5219 36.7498 5.46271 36.6752 5.43752 36.587C4.96445 36.3772 4.44552 36.292 3.93018 36.3395L4.1201 36.8672C4.12669 36.885 4.12924 36.9041 4.12756 36.9231C4.12589 36.9421 4.12003 36.9604 4.11042 36.9769C4.10081 36.9933 4.08767 37.0074 4.07196 37.0182C4.05625 37.0289 4.03835 37.036 4.01956 37.0391C3.51424 37.125 3.4601 37.1319 3.44377 37.1319C3.41588 37.1319 3.38874 37.1228 3.36643 37.1061C3.34412 37.0894 3.32783 37.0658 3.32002 37.0391L3.1533 36.477L3.02698 36.5002C2.93284 36.5172 2.83582 36.4962 2.75713 36.4418V40.7498H3.38791C3.4221 40.7498 3.45489 40.7634 3.47907 40.7876C3.50324 40.8118 3.51682 40.8446 3.51682 40.8787C3.51682 40.9129 3.50324 40.9457 3.47907 40.9699C3.45489 40.9941 3.4221 41.0077 3.38791 41.0077H2.75713V41.6857C2.75713 41.7789 2.79416 41.8683 2.86008 41.9342C2.926 42.0002 3.0154 42.0372 3.10862 42.0372H10.6127C10.6469 42.0372 10.6797 42.0508 10.7038 42.0749C10.728 42.0991 10.7416 42.1319 10.7416 42.1661C10.7416 42.2003 10.728 42.2331 10.7038 42.2572C10.6797 42.2814 10.6469 42.295 10.6127 42.295H8.75987V43.2833H9.4551C9.48929 43.2833 9.52208 43.2969 9.54625 43.321C9.57043 43.3452 9.58401 43.378 9.58401 43.4122C9.58401 43.4464 9.57043 43.4792 9.54625 43.5033C9.52208 43.5275 9.48929 43.5411 9.4551 43.5411H5.53463C5.50045 43.5411 5.46766 43.5275 5.44348 43.5033C5.41931 43.4792 5.40573 43.4464 5.40573 43.4122C5.40573 43.378 5.41931 43.3452 5.44348 43.321C5.46766 43.2969 5.50045 43.2833 5.53463 43.2833H6.22987V42.295H3.10776C2.94623 42.2948 2.79139 42.2305 2.67717 42.1163C2.56295 42.0021 2.49869 41.8472 2.49846 41.6857V36.306C2.49864 36.2046 2.52467 36.1049 2.57409 36.0164ZM8.27346 36.5939H11.4291V34.1447H8.27346V36.5939ZM6.48596 43.2833H8.50206V42.295H6.48768L6.48596 43.2833ZM6.09065 35.2834C6.07675 35.2074 6.04649 35.1354 6.00197 35.0723C5.95745 35.0093 5.89974 34.9566 5.83284 34.9181L5.97549 35.7139C6.0256 35.6552 6.06207 35.5862 6.08228 35.5118C6.10249 35.4373 6.10594 35.3593 6.09237 35.2834H6.09065ZM5.78127 36.5432C5.79264 36.5413 5.80352 36.5372 5.81327 36.5311C5.82301 36.5249 5.83142 36.5169 5.83799 36.5074C5.84457 36.498 5.84917 36.4873 5.85153 36.476C5.8539 36.4647 5.85397 36.4531 5.85174 36.4418C5.52346 34.6328 5.96174 37.0717 5.46073 34.2822C5.45897 34.2707 5.45492 34.2598 5.44882 34.2499C5.44272 34.2401 5.43469 34.2316 5.42522 34.2249C5.41575 34.2182 5.40503 34.2136 5.39371 34.2112C5.38238 34.2087 5.37069 34.2086 5.35932 34.2109C5.34795 34.2127 5.33707 34.2168 5.32733 34.223C5.31758 34.2291 5.30918 34.2372 5.3026 34.2466C5.29603 34.2561 5.29142 34.2668 5.28906 34.278C5.2867 34.2893 5.28663 34.301 5.28885 34.3123L5.67643 36.4736C5.67835 36.4852 5.68265 36.4964 5.68906 36.5063C5.69547 36.5162 5.70386 36.5247 5.71369 36.5312C5.72353 36.5378 5.73461 36.5422 5.74624 36.5443C5.75786 36.5463 5.76979 36.546 5.78127 36.5432ZM5.38338 36.2854C5.35245 36.1135 5.4951 36.9093 5.08088 34.6002C4.69223 34.9393 4.22864 35.1814 3.72823 35.3066L3.86916 36.092C4.38063 36.0343 4.89847 36.0991 5.37995 36.2811L5.38338 36.2854ZM3.53831 36.8577L3.82963 36.8096L3.67924 36.3799L3.41284 36.428L3.53831 36.8577ZM2.98487 36.2467L3.61479 36.1341L3.47471 35.3555L2.84393 35.469C2.83037 35.4708 2.81734 35.4754 2.8056 35.4825C2.79387 35.4895 2.78368 35.4989 2.77565 35.5099C2.76762 35.521 2.76192 35.5336 2.75888 35.5469C2.75585 35.5603 2.75555 35.5741 2.75799 35.5876L2.8594 36.1608C2.86174 36.1743 2.86681 36.1872 2.87429 36.1987C2.88178 36.2102 2.89152 36.2201 2.90293 36.2277C2.91434 36.2354 2.92718 36.2406 2.94067 36.2431C2.95417 36.2457 2.96803 36.2454 2.98143 36.2424L2.98487 36.2467Z" fill="#203E5F"/>
<path d="M5.31205 41.0077H4.23439C4.2002 41.0077 4.16741 40.9941 4.14324 40.9699C4.11906 40.9457 4.10548 40.9129 4.10548 40.8788C4.10548 40.8446 4.11906 40.8118 4.14324 40.7876C4.16741 40.7634 4.2002 40.7498 4.23439 40.7498H5.31205C5.34623 40.7498 5.37902 40.7634 5.4032 40.7876C5.42737 40.8118 5.44095 40.8446 5.44095 40.8788C5.44095 40.9129 5.42737 40.9457 5.4032 40.9699C5.37902 40.9941 5.34623 41.0077 5.31205 41.0077ZM7.08837 41.6685C7.05419 41.6685 7.0214 41.6549 6.99722 41.6308C6.97305 41.6066 6.95947 41.5738 6.95947 41.5396C6.95947 41.5054 6.97305 41.4726 6.99722 41.4485C7.0214 41.4243 7.05419 41.4107 7.08837 41.4107H7.91166C7.94584 41.4107 7.97863 41.4243 8.00281 41.4485C8.02698 41.4726 8.04056 41.5054 8.04056 41.5396C8.04056 41.5738 8.02698 41.6066 8.00281 41.6308C7.97863 41.6549 7.94584 41.6685 7.91166 41.6685H7.08837ZM7.2783 35.2344L6.84861 35.3117C6.81442 35.3178 6.77923 35.31 6.75079 35.2901C6.72234 35.2702 6.70297 35.2398 6.69693 35.2056C6.69089 35.1714 6.69868 35.1362 6.71858 35.1078C6.73849 35.0793 6.76887 35.0599 6.80306 35.0539L7.23275 34.9774C7.26682 34.9714 7.3019 34.9791 7.33027 34.999C7.35863 35.0188 7.37796 35.0491 7.384 35.0831C7.39004 35.1172 7.3823 35.1523 7.36247 35.1806C7.34265 35.209 7.31237 35.2283 7.2783 35.2344ZM6.4258 34.4248C6.41609 34.439 6.4037 34.451 6.38934 34.4603C6.37497 34.4696 6.35891 34.476 6.34207 34.4792C6.32524 34.4823 6.30795 34.482 6.2912 34.4785C6.27445 34.4749 6.25857 34.4681 6.24447 34.4584C6.23036 34.4487 6.2183 34.4363 6.20899 34.4219C6.19967 34.4075 6.19327 34.3915 6.19016 34.3746C6.18704 34.3578 6.18728 34.3405 6.19085 34.3238C6.19441 34.307 6.20125 34.2911 6.21095 34.277L6.46103 33.9187C6.47068 33.9046 6.483 33.8926 6.49729 33.8833C6.51158 33.874 6.52757 33.8677 6.54432 33.8645C6.56108 33.8614 6.57829 33.8616 6.59496 33.8652C6.61164 33.8687 6.62745 33.8755 6.6415 33.8852C6.65555 33.8948 6.66756 33.9071 6.67685 33.9214C6.68614 33.9357 6.69252 33.9517 6.69563 33.9685C6.69875 33.9852 6.69853 34.0024 6.69499 34.0191C6.69145 34.0358 6.68466 34.0516 6.67501 34.0656L6.4258 34.4248ZM6.87955 36.4839L6.52119 36.2347C6.49304 36.2152 6.47378 36.1853 6.46766 36.1516C6.46154 36.118 6.46904 36.0832 6.48853 36.0551C6.50802 36.0269 6.53789 36.0077 6.57157 36.0016C6.60525 35.9954 6.63999 36.0029 6.66814 36.0224L7.0265 36.2725C7.04136 36.2817 7.05419 36.2939 7.06421 36.3082C7.07422 36.3226 7.08121 36.3388 7.08476 36.3559C7.0883 36.3731 7.08832 36.3907 7.08481 36.4079C7.08131 36.425 7.07435 36.4412 7.06437 36.4556C7.05438 36.47 7.04158 36.4821 7.02674 36.4914C7.0119 36.5007 6.99533 36.5068 6.97804 36.5094C6.96074 36.5121 6.9431 36.5112 6.92616 36.5068C6.90923 36.5024 6.89337 36.4946 6.87955 36.4839ZM9.29783 35.0565L10.0584 34.6328C10.1131 34.6014 10.1751 34.5851 10.2381 34.5854C10.3012 34.5857 10.363 34.6027 10.4174 34.6347C10.4717 34.6666 10.5167 34.7123 10.5477 34.7673C10.5786 34.8222 10.5945 34.8843 10.5938 34.9473V35.7913C10.594 35.8537 10.578 35.9152 10.5471 35.9695C10.5162 36.0238 10.4717 36.0691 10.4179 36.1008C10.364 36.1326 10.3028 36.1496 10.2404 36.1504C10.1779 36.1511 10.1163 36.1354 10.0618 36.1049L9.30126 35.683C9.24541 35.6519 9.19887 35.6065 9.16647 35.5514C9.13406 35.4964 9.11698 35.4336 9.11698 35.3697C9.11698 35.3058 9.13406 35.2431 9.16647 35.188C9.19887 35.1329 9.24541 35.0875 9.30126 35.0565H9.29783ZM9.4233 35.457L10.1838 35.8798C10.199 35.888 10.216 35.8923 10.2332 35.892C10.2505 35.8918 10.2674 35.8872 10.2823 35.8786C10.2972 35.8699 10.3097 35.8576 10.3185 35.8428C10.3273 35.8279 10.3321 35.8111 10.3325 35.7938V34.9473C10.3324 34.93 10.3277 34.913 10.319 34.898C10.3102 34.883 10.2977 34.8706 10.2827 34.8619C10.2677 34.8532 10.2507 34.8486 10.2333 34.8485C10.216 34.8485 10.1989 34.8529 10.1838 34.8614L9.4233 35.2834C9.40814 35.2922 9.39557 35.3049 9.38684 35.3201C9.3781 35.3354 9.3735 35.3526 9.3735 35.3702C9.3735 35.3877 9.3781 35.405 9.38684 35.4202C9.39557 35.4354 9.40814 35.4481 9.4233 35.457ZM11.558 40.1216H7.50001C7.46583 40.1216 7.43304 40.1081 7.40886 40.0839C7.38469 40.0597 7.37111 40.0269 7.37111 39.9927V37.333C7.37064 37.3158 7.37365 37.2988 7.37994 37.2828C7.38623 37.2669 7.39568 37.2524 7.40772 37.2402C7.41976 37.228 7.43414 37.2183 7.45 37.2118C7.46586 37.2053 7.48287 37.2021 7.50001 37.2023H11.5588C11.5929 37.2026 11.6254 37.2163 11.6494 37.2404C11.6734 37.2646 11.6869 37.2972 11.6869 37.3313V39.9953C11.6862 40.0291 11.6723 40.0612 11.6482 40.0848C11.6241 40.1084 11.5917 40.1217 11.558 40.1216ZM11.4291 39.8638V37.5693L9.59947 38.7724C9.57843 38.7859 9.55398 38.7931 9.529 38.7931C9.50402 38.7931 9.47956 38.7859 9.45853 38.7724L7.62892 37.5693V39.8638H11.4291ZM11.1266 37.4576H7.9297L9.529 38.5077L11.1266 37.4576ZM6.03908 40.1216H3.25384C3.21965 40.1216 3.18687 40.1081 3.16269 40.0839C3.13852 40.0597 3.12494 40.0269 3.12494 39.9927V38.0574C3.12494 38.0232 3.13852 37.9904 3.16269 37.9663C3.18687 37.9421 3.21965 37.9285 3.25384 37.9285H3.92416V37.327C3.92416 37.2928 3.93774 37.26 3.96191 37.2358C3.98609 37.2116 4.01887 37.198 4.05306 37.198H6.83658C6.87077 37.198 6.90355 37.2116 6.92773 37.2358C6.9519 37.26 6.96548 37.2928 6.96548 37.327V39.2666C6.96548 39.3008 6.9519 39.3335 6.92773 39.3577C6.90355 39.3819 6.87077 39.3955 6.83658 39.3955H6.16626V39.997C6.16516 40.0302 6.15133 40.0616 6.12764 40.0848C6.10395 40.108 6.07224 40.1212 6.03908 40.1216ZM3.38275 39.8638H5.90845V38.1863H3.38103L3.38275 39.8638ZM6.70767 39.1377V37.4602H4.18025V37.9285H6.03908C6.07327 37.9285 6.10605 37.9421 6.13023 37.9663C6.1544 37.9904 6.16798 38.0232 6.16798 38.0574V39.1377H6.70767Z" fill="#203E5F"/>
<path d="M5.53033 38.6495H5.28971C5.25552 38.6495 5.22273 38.6359 5.19856 38.6118C5.17438 38.5876 5.1608 38.5548 5.1608 38.5206C5.1608 38.4864 5.17438 38.4536 5.19856 38.4295C5.22273 38.4053 5.25552 38.3917 5.28971 38.3917H5.53033C5.56452 38.3917 5.59731 38.4053 5.62149 38.4295C5.64566 38.4536 5.65924 38.4864 5.65924 38.5206C5.65924 38.5548 5.64566 38.5876 5.62149 38.6118C5.59731 38.6359 5.56452 38.6495 5.53033 38.6495ZM5.01643 38.5206C5.01643 38.5548 5.00285 38.5876 4.97867 38.6118C4.9545 38.6359 4.92171 38.6495 4.88752 38.6495H3.76002C3.72583 38.6495 3.69305 38.6359 3.66887 38.6118C3.6447 38.5876 3.63112 38.5548 3.63112 38.5206C3.63112 38.4864 3.6447 38.4536 3.66887 38.4295C3.69305 38.4053 3.72583 38.3917 3.76002 38.3917H4.88752C4.92171 38.3917 4.9545 38.4053 4.97867 38.4295C5.00285 38.4536 5.01643 38.4864 5.01643 38.5206ZM5.28971 39.3998H5.53033C5.56452 39.3998 5.59731 39.4133 5.62149 39.4375C5.64566 39.4617 5.65924 39.4945 5.65924 39.5287C5.65924 39.5629 5.64566 39.5956 5.62149 39.6198C5.59731 39.644 5.56452 39.6576 5.53033 39.6576H5.28971C5.25552 39.6576 5.22273 39.644 5.19856 39.6198C5.17438 39.5956 5.1608 39.5629 5.1608 39.5287C5.1608 39.4945 5.17438 39.4617 5.19856 39.4375C5.22273 39.4133 5.25552 39.3998 5.28971 39.3998ZM3.76002 39.3998H4.88752C4.92171 39.3998 4.9545 39.4133 4.97867 39.4375C5.00285 39.4617 5.01643 39.4945 5.01643 39.5287C5.01643 39.5629 5.00285 39.5956 4.97867 39.6198C4.9545 39.644 4.92171 39.6576 4.88752 39.6576H3.76002C3.72583 39.6576 3.69305 39.644 3.66887 39.6198C3.6447 39.5956 3.63112 39.5629 3.63112 39.5287C3.63112 39.4945 3.6447 39.4617 3.66887 39.4375C3.69305 39.4133 3.72583 39.3998 3.76002 39.3998ZM3.76002 38.8962H3.99979C4.03398 38.8962 4.06676 38.9098 4.09094 38.9339C4.11511 38.9581 4.12869 38.9909 4.12869 39.0251C4.12869 39.0593 4.11511 39.0921 4.09094 39.1162C4.06676 39.1404 4.03398 39.154 3.99979 39.154H3.76002C3.72583 39.154 3.69305 39.1404 3.66887 39.1162C3.6447 39.0921 3.63112 39.0593 3.63112 39.0251C3.63112 38.9909 3.6447 38.9581 3.66887 38.9339C3.69305 38.9098 3.72583 38.8962 3.76002 38.8962ZM5.53033 39.154H4.40197C4.36779 39.154 4.335 39.1404 4.31082 39.1162C4.28665 39.0921 4.27307 39.0593 4.27307 39.0251C4.27307 38.9909 4.28665 38.9581 4.31082 38.9339C4.335 38.9098 4.36779 38.8962 4.40197 38.8962H5.53033C5.56452 38.8962 5.59731 38.9098 5.62149 38.9339C5.64566 38.9581 5.65924 38.9909 5.65924 39.0251C5.65924 39.0593 5.64566 39.0921 5.62149 39.1162C5.59731 39.1404 5.56452 39.154 5.53033 39.154Z" fill="#203E5F"/>
</g>
<path d="M16.6164 32.3865C16.5538 32.5984 16.6747 32.8209 16.8865 32.8836L20.3387 33.9046C20.5506 33.9673 20.7731 33.8464 20.8357 33.6345C20.8984 33.4227 20.7775 33.2001 20.5656 33.1375L17.497 32.2299L18.4046 29.1613C18.4673 28.9494 18.3464 28.7269 18.1345 28.6643C17.9227 28.6016 17.7001 28.7225 17.6375 28.9344L16.6164 32.3865ZM39.809 19.6486L16.809 32.1486L17.191 32.8514L40.191 20.3514L39.809 19.6486Z" fill="#203E5F"/>
<circle cx="7.5" cy="7.5" r="7.5" transform="matrix(-1 0 0 1 106 31)" fill="white"/>
<path d="M103.037 42.328H93.9092C93.7523 42.328 93.6251 42.2008 93.6251 42.0438V35.0059C93.6251 34.849 93.7523 34.7218 93.9092 34.7218H103.037C103.194 34.7218 103.322 34.849 103.322 35.0059V42.0438C103.322 42.2008 103.194 42.328 103.037 42.328Z" stroke="#474747" stroke-width="0.7" stroke-miterlimit="10" stroke-linecap="round" stroke-linejoin="round"/>
<path d="M93.682 36.091H103.296" stroke="#474747" stroke-width="0.7" stroke-miterlimit="10" stroke-linecap="round" stroke-linejoin="round"/>
<path d="M94.5315 35.6098C94.6342 35.6098 94.7175 35.5265 94.7175 35.4237C94.7175 35.321 94.6342 35.2377 94.5315 35.2377C94.4287 35.2377 94.3454 35.321 94.3454 35.4237C94.3454 35.5265 94.4287 35.6098 94.5315 35.6098Z" fill="#474747"/>
<path d="M95.1915 35.6098C95.2942 35.6098 95.3775 35.5265 95.3775 35.4237C95.3775 35.321 95.2942 35.2377 95.1915 35.2377C95.0887 35.2377 95.0054 35.321 95.0054 35.4237C95.0054 35.5265 95.0887 35.6098 95.1915 35.6098Z" fill="#474747"/>
<path d="M95.8515 35.6098C95.9542 35.6098 96.0375 35.5265 96.0375 35.4237C96.0375 35.321 95.9542 35.2377 95.8515 35.2377C95.7487 35.2377 95.6654 35.321 95.6654 35.4237C95.6654 35.5265 95.7487 35.6098 95.8515 35.6098Z" fill="#474747"/>
<path d="M98.1699 41H99.9739" stroke="#474747" stroke-width="0.7" stroke-miterlimit="10" stroke-linecap="round" stroke-linejoin="round"/>
<path d="M96 37.9976L97.1115 39.1089L96.0114 40.205" stroke="#474747" stroke-width="0.7" stroke-miterlimit="10" stroke-linecap="round" stroke-linejoin="round"/>
<circle cx="27.5" cy="54.5" r="7.5" fill="white"/>
<path d="M24.9792 59.3125H30.0208C30.2639 59.3125 30.4971 59.2159 30.669 59.044C30.8409 58.8721 30.9375 58.6389 30.9375 58.3958V57.9375C30.9367 57.2692 30.6709 56.6284 30.1983 56.1559C29.7257 55.6833 29.085 55.4175 28.4167 55.4167H26.5833C25.915 55.4175 25.2743 55.6833 24.8017 56.1559C24.3291 56.6284 24.0633 57.2692 24.0625 57.9375V58.3958C24.0625 58.6389 24.1591 58.8721 24.331 59.044C24.5029 59.2159 24.7361 59.3125 24.9792 59.3125Z" fill="#2A4251"/>
<path d="M24.75 54.7292H26.125C26.1858 54.7292 26.2441 54.705 26.287 54.662C26.33 54.6191 26.3542 54.5608 26.3542 54.5V52.8958C26.3542 52.8351 26.33 52.7768 26.287 52.7338C26.2441 52.6908 26.1858 52.6667 26.125 52.6667H24.75C24.5677 52.6667 24.3928 52.7391 24.2639 52.868C24.1349 52.997 24.0625 53.1718 24.0625 53.3542V54.0417C24.0625 54.224 24.1349 54.3989 24.2639 54.5278C24.3928 54.6567 24.5677 54.7292 24.75 54.7292ZM28.875 54.7292H30.25C30.4323 54.7292 30.6072 54.6567 30.7361 54.5278C30.8651 54.3989 30.9375 54.224 30.9375 54.0417V53.3542C30.9375 53.1718 30.8651 52.997 30.7361 52.868C30.6072 52.7391 30.4323 52.6667 30.25 52.6667H28.875C28.8142 52.6667 28.7559 52.6908 28.713 52.7338C28.67 52.7768 28.6458 52.8351 28.6458 52.8958V54.5C28.6458 54.5608 28.67 54.6191 28.713 54.662C28.7559 54.705 28.8142 54.7292 28.875 54.7292Z" fill="#54C0EB"/>
<path d="M27.5 55.875C28.7656 55.875 29.7916 54.7464 29.7916 53.3542C29.7916 51.962 28.7656 50.8333 27.5 50.8333C26.2343 50.8333 25.2083 51.962 25.2083 53.3542C25.2083 54.7464 26.2343 55.875 27.5 55.875Z" fill="#40596B"/>
<path d="M28.1875 49.6875H26.8125C26.2657 49.6881 25.7414 49.9056 25.3548 50.2923C24.9681 50.6789 24.7506 51.2032 24.75 51.75V52.6667C24.75 52.7274 24.7741 52.7857 24.8171 52.8287C24.8601 52.8717 24.9184 52.8958 24.9792 52.8958C25.0399 52.8958 25.0982 52.8717 25.1412 52.8287C25.1842 52.7857 25.2083 52.7274 25.2083 52.6667V51.75C25.2089 51.3247 25.3781 50.917 25.6788 50.6163C25.9795 50.3156 26.3872 50.1464 26.8125 50.1458H28.1875C28.6128 50.1464 29.0205 50.3156 29.3212 50.6163C29.6219 50.917 29.7911 51.3247 29.7917 51.75V52.6667C29.7917 52.7274 29.8158 52.7857 29.8588 52.8287C29.9018 52.8717 29.9601 52.8958 30.0208 52.8958C30.0816 52.8958 30.1399 52.8717 30.1829 52.8287C30.2259 52.7857 30.25 52.7274 30.25 52.6667V51.75C30.2494 51.2032 30.0319 50.6789 29.6452 50.2923C29.2586 49.9056 28.7343 49.6881 28.1875 49.6875ZM26.5833 54.7292H25.4375C25.3767 54.7292 25.3184 54.705 25.2755 54.662C25.2325 54.6191 25.2083 54.5608 25.2083 54.5C25.2083 54.4392 25.2325 54.3809 25.2755 54.338C25.3184 54.295 25.3767 54.2708 25.4375 54.2708H26.5833C26.6441 54.2708 26.7024 54.295 26.7454 54.338C26.7884 54.3809 26.8125 54.4392 26.8125 54.5C26.8125 54.5608 26.7884 54.6191 26.7454 54.662C26.7024 54.705 26.6441 54.7292 26.5833 54.7292Z" fill="#54C0EB"/>
<path d="M25.7148 54.7292H24.75C24.5677 54.7292 24.3928 54.6567 24.2639 54.5278C24.1349 54.3989 24.0625 54.224 24.0625 54.0417V53.3542C24.0625 53.1718 24.1349 52.997 24.2639 52.868C24.3928 52.7391 24.5677 52.6667 24.75 52.6667H25.4788C25.5395 52.6667 25.5978 52.6908 25.6408 52.7338C25.6838 52.7768 25.7079 52.8351 25.7079 52.8958C25.7079 52.9566 25.6838 53.0149 25.6408 53.0579C25.5978 53.1009 25.5395 53.125 25.4788 53.125H24.75C24.6892 53.125 24.6309 53.1491 24.588 53.1921C24.545 53.2351 24.5208 53.2934 24.5208 53.3542V54.0417C24.5208 54.1024 24.545 54.1607 24.588 54.2037C24.6309 54.2467 24.6892 54.2708 24.75 54.2708H25.7148C25.7756 54.2708 25.8339 54.295 25.8768 54.338C25.9198 54.3809 25.944 54.4392 25.944 54.5C25.944 54.5608 25.9198 54.6191 25.8768 54.662C25.8339 54.705 25.7756 54.7292 25.7148 54.7292ZM30.25 54.7292H29.2852C29.2244 54.7292 29.1661 54.705 29.1232 54.662C29.0802 54.6191 29.056 54.5608 29.056 54.5C29.056 54.4392 29.0802 54.3809 29.1232 54.338C29.1661 54.295 29.2244 54.2708 29.2852 54.2708H30.25C30.3108 54.2708 30.3691 54.2467 30.412 54.2037C30.455 54.1607 30.4792 54.1024 30.4792 54.0417V53.3542C30.4792 53.2934 30.455 53.2351 30.412 53.1921C30.3691 53.1491 30.3108 53.125 30.25 53.125H29.5213C29.4605 53.125 29.4022 53.1009 29.3592 53.0579C29.3162 53.0149 29.2921 52.9566 29.2921 52.8958C29.2921 52.8351 29.3162 52.7768 29.3592 52.7338C29.4022 52.6908 29.4605 52.6667 29.5213 52.6667H30.25C30.4323 52.6667 30.6072 52.7391 30.7361 52.868C30.8651 52.997 30.9375 53.1718 30.9375 53.3542V54.0417C30.9375 54.224 30.8651 54.3989 30.7361 54.5278C30.6072 54.6567 30.4323 54.7292 30.25 54.7292Z" fill="#232323"/>
<path d="M30.0208 53.125C29.9601 53.125 29.9018 53.1009 29.8588 53.0579C29.8158 53.0149 29.7917 52.9566 29.7917 52.8958V51.75C29.7912 51.3247 29.622 50.917 29.3213 50.6162C29.0205 50.3155 28.6128 50.1463 28.1875 50.1458H26.8125C26.3872 50.1463 25.9795 50.3155 25.6787 50.6162C25.378 50.917 25.2088 51.3247 25.2083 51.75V52.8958C25.2083 52.9566 25.1842 53.0149 25.1412 53.0579C25.0982 53.1009 25.0399 53.125 24.9792 53.125C24.9184 53.125 24.8601 53.1009 24.8171 53.0579C24.7741 53.0149 24.75 52.9566 24.75 52.8958V51.75C24.7506 51.2032 24.9681 50.6789 25.3548 50.2923C25.7414 49.9056 26.2657 49.6881 26.8125 49.6875H28.1875C28.7343 49.6881 29.2586 49.9056 29.6452 50.2923C30.0319 50.6789 30.2494 51.2032 30.25 51.75V52.8958C30.25 52.9566 30.2259 53.0149 30.1829 53.0579C30.1399 53.1009 30.0816 53.125 30.0208 53.125ZM30.0208 59.3125H24.9792C24.7361 59.3125 24.5029 59.2159 24.331 59.044C24.1591 58.8721 24.0625 58.6389 24.0625 58.3958V57.9375C24.0633 57.2692 24.3291 56.6284 24.8017 56.1559C25.2743 55.6833 25.915 55.4175 26.5833 55.4167H28.4167C29.085 55.4175 29.7257 55.6833 30.1983 56.1559C30.6709 56.6284 30.9367 57.2692 30.9375 57.9375V58.3958C30.9375 58.6389 30.8409 58.8721 30.669 59.044C30.4971 59.2159 30.2639 59.3125 30.0208 59.3125ZM26.5833 55.875C26.0365 55.8756 25.5123 56.0931 25.1256 56.4798C24.7389 56.8664 24.5214 57.3907 24.5208 57.9375V58.3958C24.5208 58.5174 24.5691 58.634 24.6551 58.7199C24.741 58.8059 24.8576 58.8542 24.9792 58.8542H30.0208C30.1424 58.8542 30.259 58.8059 30.3449 58.7199C30.4309 58.634 30.4792 58.5174 30.4792 58.3958V57.9375C30.4786 57.3907 30.2611 56.8664 29.8744 56.4798C29.4877 56.0931 28.9635 55.8756 28.4167 55.875H26.5833Z" fill="#232323"/>
<path d="M27.5 55.875C26.2364 55.875 25.2083 54.7441 25.2083 53.3542C25.2083 51.9643 26.2364 50.8333 27.5 50.8333C28.7636 50.8333 29.7916 51.9643 29.7916 53.3542C29.7916 54.7441 28.7636 55.875 27.5 55.875ZM27.5 51.2917C26.4891 51.2917 25.6666 52.217 25.6666 53.3542C25.6666 54.4913 26.4891 55.4167 27.5 55.4167C28.5108 55.4167 29.3333 54.4913 29.3333 53.3542C29.3333 52.217 28.5108 51.2917 27.5 51.2917Z" fill="#232323"/>
<path d="M26.5833 54.7292H25.4375C25.3767 54.7292 25.3184 54.705 25.2754 54.662C25.2325 54.6191 25.2083 54.5608 25.2083 54.5C25.2083 54.4392 25.2325 54.3809 25.2754 54.338C25.3184 54.295 25.3767 54.2708 25.4375 54.2708H26.5833C26.6441 54.2708 26.7024 54.295 26.7454 54.338C26.7883 54.3809 26.8125 54.4392 26.8125 54.5C26.8125 54.5608 26.7883 54.6191 26.7454 54.662C26.7024 54.705 26.6441 54.7292 26.5833 54.7292Z" fill="#232323"/>
<circle cx="53.5" cy="57.5" r="7.5" fill="white"/>
<path d="M53.5 55.25C53.5 55.008 53.5 54.8869 53.59 54.812C53.68 54.737 53.7858 54.7564 53.9973 54.7953C54.3049 54.8519 54.602 54.9608 54.875 55.1184C55.2931 55.3598 55.6402 55.7069 55.8816 56.125C56.1229 56.5431 56.25 57.0173 56.25 57.5C56.25 57.9827 56.1229 58.4569 55.8816 58.875C55.6402 59.2931 55.2931 59.6402 54.875 59.8816C54.4569 60.1229 53.9827 60.25 53.5 60.25C53.0173 60.25 52.5431 60.1229 52.125 59.8816C51.852 59.7239 51.6092 59.5212 51.4063 59.283C51.2669 59.1192 51.1972 59.0374 51.2171 58.922C51.237 58.8065 51.3418 58.746 51.5514 58.625L53.25 57.6443C53.372 57.5739 53.433 57.5387 53.4665 57.4807C53.5 57.4226 53.5 57.3522 53.5 57.2113L53.5 55.25Z" fill="#33363F"/>
<circle cx="53.5" cy="57.5" r="4.01667" stroke="#33363F" stroke-width="0.7"/>
<circle cx="7.5" cy="7.5" r="7.5" transform="matrix(-1 0 0 1 85 47)" fill="white"/>
<g clip-path="url(#clip1_149_29)">
<path d="M77.8303 54.0336C77.8956 53.9547 77.9371 53.8587 77.95 53.757C77.9628 53.6553 77.9465 53.5521 77.9028 53.4593C77.8592 53.3666 77.79 53.2882 77.7035 53.2332C77.6169 53.1783 77.5165 53.1492 77.414 53.1492C77.3115 53.1492 77.2112 53.1783 77.1246 53.2332C77.0381 53.2882 76.9689 53.3666 76.9253 53.4593C76.8816 53.5521 76.8653 53.6553 76.8781 53.757C76.891 53.8587 76.9325 53.9547 76.9978 54.0336C76.9208 54.0957 76.8586 54.1742 76.8159 54.2634C76.7733 54.3526 76.7511 54.4502 76.7511 54.5491V55.0402C76.7511 55.0858 76.7692 55.1295 76.8014 55.1617C76.8337 55.1939 76.8774 55.2121 76.923 55.2121H77.9051C77.9507 55.2121 77.9944 55.1939 78.0266 55.1617C78.0589 55.1295 78.077 55.0858 78.077 55.0402V54.5491C78.077 54.4502 78.0548 54.3526 78.0121 54.2634C77.9694 54.1742 77.9073 54.0957 77.8303 54.0336ZM77.2176 53.6897C77.2176 53.6509 77.2291 53.6129 77.2507 53.5806C77.2723 53.5483 77.303 53.5231 77.3389 53.5083C77.3748 53.4934 77.4143 53.4895 77.4524 53.4971C77.4905 53.5047 77.5255 53.5234 77.5529 53.5508C77.5804 53.5783 77.5991 53.6133 77.6067 53.6514C77.6143 53.6895 77.6104 53.729 77.5955 53.7649C77.5807 53.8008 77.5555 53.8315 77.5232 53.8531C77.4909 53.8746 77.4529 53.8862 77.414 53.8862C77.362 53.8861 77.312 53.8654 77.2752 53.8286C77.2384 53.7917 77.2177 53.7418 77.2176 53.6897ZM77.7332 54.8683H77.0948V54.5491C77.0948 54.4645 77.1285 54.3833 77.1883 54.3234C77.2482 54.2635 77.3294 54.2299 77.414 54.2299C77.4987 54.2299 77.5799 54.2635 77.6397 54.3234C77.6996 54.3833 77.7332 54.4645 77.7332 54.5491V54.8683ZM81.4397 57.8149C81.505 57.7359 81.5465 57.64 81.5593 57.5383C81.5722 57.4366 81.5558 57.3333 81.5122 57.2406C81.4685 57.1478 81.3994 57.0694 81.3129 57.0145C81.2263 56.9596 81.1259 56.9304 81.0234 56.9304C80.9209 56.9304 80.8205 56.9596 80.734 57.0145C80.6474 57.0694 80.5783 57.1478 80.5347 57.2406C80.491 57.3333 80.4746 57.4366 80.4875 57.5383C80.5003 57.64 80.5418 57.7359 80.6072 57.8149C80.5302 57.8769 80.468 57.9554 80.4253 58.0446C80.3826 58.1338 80.3605 58.2315 80.3605 58.3304V58.8214C80.3605 58.867 80.3786 58.9107 80.4108 58.943C80.443 58.9752 80.4868 58.9933 80.5323 58.9933H81.5145C81.5601 58.9933 81.6038 58.9752 81.636 58.943C81.6683 58.9107 81.6864 58.867 81.6864 58.8214V58.3304C81.6864 58.2315 81.6642 58.1338 81.6215 58.0446C81.5788 57.9554 81.5167 57.8769 81.4397 57.8149ZM80.827 57.471C80.827 57.4321 80.8385 57.3942 80.8601 57.3619C80.8817 57.3296 80.9124 57.3044 80.9482 57.2895C80.9841 57.2746 81.0236 57.2707 81.0617 57.2783C81.0998 57.2859 81.1348 57.3046 81.1623 57.3321C81.1898 57.3596 81.2085 57.3946 81.2161 57.4327C81.2237 57.4708 81.2198 57.5103 81.2049 57.5462C81.19 57.582 81.1649 57.6127 81.1325 57.6343C81.1002 57.6559 81.0623 57.6674 81.0234 57.6674C80.9713 57.6674 80.9214 57.6466 80.8846 57.6098C80.8478 57.573 80.827 57.5231 80.827 57.471ZM81.3426 58.6496H80.7042V58.3304C80.7042 58.2457 80.7379 58.1645 80.7977 58.1047C80.8576 58.0448 80.9388 58.0112 81.0234 58.0112C81.1081 58.0112 81.1893 58.0448 81.2491 58.1047C81.309 58.1645 81.3426 58.2457 81.3426 58.3304V58.6496Z" fill="#231F20"/>
<path d="M81.0234 56.5625C80.6611 56.5622 80.3116 56.6971 80.0435 56.9409L80.1137 56.8707L78.4813 55.2383C78.7199 54.9836 78.8592 54.6518 78.8737 54.3032C78.8883 53.9545 78.7772 53.6122 78.5607 53.3386L79.9418 51.9575C80.1916 52.2323 80.5369 52.4013 80.9071 52.4301C81.2774 52.4588 81.6446 52.3451 81.9339 52.1122C82.2231 51.8793 82.4125 51.5448 82.4634 51.1769C82.5142 50.8091 82.4228 50.4357 82.2076 50.133C81.9924 49.8303 81.6698 49.6212 81.3057 49.5484C80.9415 49.4756 80.5633 49.5445 80.2483 49.7412C79.9333 49.9378 79.7052 50.2473 79.6107 50.6064C79.5162 50.9656 79.5624 51.3472 79.7398 51.6735L78.3178 53.0955C78.0276 52.8661 77.661 52.7555 77.2924 52.7863C76.9238 52.8171 76.5806 52.9868 76.3325 53.2612L74.9575 51.8863C75.2322 51.6365 75.4011 51.2911 75.4298 50.9209C75.4584 50.5506 75.3447 50.1834 75.1117 49.8942C74.8787 49.6051 74.5441 49.4157 74.1762 49.365C73.8084 49.3142 73.435 49.4058 73.1324 49.621C72.8298 49.8362 72.6207 50.1589 72.548 50.523C72.4753 50.8872 72.5443 51.2654 72.741 51.5804C72.9378 51.8953 73.2473 52.1233 73.6065 52.2177C73.9656 52.3122 74.3472 52.2659 74.6734 52.0884L76.1303 53.5453C75.9839 53.8144 75.926 54.1229 75.9649 54.4268C76.0037 54.7307 76.1373 55.0146 76.3467 55.2383L74.7543 56.8306C74.4384 56.6313 74.0583 56.5602 73.6917 56.6319C73.3251 56.7035 72.9998 56.9125 72.7821 57.2161C72.5645 57.5196 72.4711 57.8949 72.5209 58.2651C72.5708 58.6352 72.7602 58.9724 73.0503 59.2076C73.3405 59.4427 73.7096 59.5582 74.082 59.5303C74.4545 59.5024 74.8023 59.3333 75.0542 59.0575C75.3061 58.7818 75.4432 58.4202 75.4373 58.0467C75.4315 57.6732 75.2832 57.3161 75.0228 57.0483L76.61 55.4611C76.8485 55.619 77.1281 55.7031 77.414 55.7031C77.6999 55.7031 77.9796 55.619 78.218 55.4611L79.8706 57.1137L79.9408 57.0435C79.7164 57.2918 79.584 57.6096 79.5659 57.9439C79.5479 58.2781 79.6451 58.6084 79.8415 58.8794C80.0379 59.1505 80.3214 59.3459 80.6446 59.4328C80.9678 59.5198 81.3111 59.4931 81.6169 59.3572C81.9228 59.2213 82.1727 58.9845 82.3248 58.6863C82.4769 58.3882 82.522 58.0468 82.4524 57.7194C82.3829 57.392 82.203 57.0984 81.9429 56.8878C81.6827 56.6772 81.3581 56.5624 81.0234 56.5625ZM81.0234 49.8594C81.2444 49.8594 81.4604 49.9249 81.6441 50.0477C81.8278 50.1704 81.971 50.3449 82.0556 50.549C82.1401 50.7532 82.1622 50.9778 82.1191 51.1945C82.076 51.4112 81.9696 51.6103 81.8134 51.7665C81.6572 51.9228 81.4581 52.0292 81.2414 52.0723C81.0247 52.1154 80.8 52.0933 80.5959 52.0087C80.3918 51.9242 80.2173 51.781 80.0945 51.5972C79.9718 51.4135 79.9062 51.1975 79.9062 50.9766C79.9066 50.6804 80.0244 50.3964 80.2338 50.187C80.4433 49.9775 80.7272 49.8597 81.0234 49.8594ZM72.8594 50.8047C72.8594 50.5837 72.9249 50.3677 73.0476 50.184C73.1704 50.0003 73.3449 49.8571 73.549 49.7725C73.7532 49.688 73.9778 49.6659 74.1945 49.709C74.4112 49.7521 74.6103 49.8585 74.7665 50.0147C74.9228 50.171 75.0292 50.37 75.0723 50.5867C75.1154 50.8035 75.0933 51.0281 75.0087 51.2322C74.9241 51.4364 74.7809 51.6108 74.5972 51.7336C74.4135 51.8564 74.1975 51.9219 73.9765 51.9219C73.6804 51.9215 73.3964 51.8037 73.1869 51.5943C72.9775 51.3848 72.8597 51.1009 72.8594 50.8047ZM73.9765 59.1836C73.7556 59.1836 73.5396 59.1181 73.3559 58.9953C73.1722 58.8726 73.029 58.6981 72.9444 58.4939C72.8598 58.2898 72.8377 58.0652 72.8808 57.8485C72.9239 57.6317 73.0303 57.4327 73.1866 57.2764C73.3428 57.1202 73.5419 57.0138 73.7586 56.9707C73.9753 56.9276 74.1999 56.9497 74.4041 57.0343C74.6082 57.1188 74.7827 57.262 74.9055 57.4457C75.0282 57.6295 75.0937 57.8455 75.0937 58.0664C75.0934 58.3626 74.9756 58.6466 74.7661 58.856C74.5567 59.0655 74.2727 59.1833 73.9765 59.1836ZM76.2969 54.2422C76.2969 54.0212 76.3624 53.8052 76.4851 53.6215C76.6079 53.4378 76.7824 53.2946 76.9865 53.21C77.1907 53.1255 77.4153 53.1034 77.632 53.1465C77.8487 53.1896 78.0478 53.296 78.204 53.4522C78.3603 53.6085 78.4667 53.8075 78.5098 54.0242C78.5529 54.241 78.5308 54.4656 78.4462 54.6697C78.3616 54.8739 78.2184 55.0483 78.0347 55.1711C77.851 55.2939 77.635 55.3594 77.414 55.3594C77.1179 55.359 76.8339 55.2412 76.6244 55.0318C76.415 54.8224 76.2972 54.5384 76.2969 54.2422ZM81.0234 59.1406C80.8025 59.1406 80.5865 59.0751 80.4027 58.9523C80.219 58.8296 80.0758 58.6551 79.9913 58.451C79.9067 58.2468 79.8846 58.0222 79.9277 57.8055C79.9708 57.5888 80.0772 57.3897 80.2335 57.2335C80.3897 57.0772 80.5888 56.9708 80.8055 56.9277C81.0222 56.8846 81.2468 56.9067 81.451 56.9913C81.6551 57.0759 81.8296 57.219 81.9523 57.4028C82.0751 57.5865 82.1406 57.8025 82.1406 58.0234C82.1403 58.3196 82.0225 58.6036 81.813 58.813C81.6036 59.0225 81.3196 59.1403 81.0234 59.1406Z" fill="#231F20"/>
<path d="M80.5323 51.9464H81.5145C81.5601 51.9464 81.6038 51.9283 81.636 51.8961C81.6683 51.8639 81.6864 51.8201 81.6864 51.7746V51.2835C81.6864 51.1846 81.6642 51.087 81.6215 50.9977C81.5788 50.9085 81.5167 50.83 81.4397 50.768C81.505 50.689 81.5465 50.5931 81.5593 50.4914C81.5722 50.3897 81.5558 50.2864 81.5122 50.1937C81.4685 50.101 81.3994 50.0225 81.3129 49.9676C81.2263 49.9127 81.1259 49.8835 81.0234 49.8835C80.9209 49.8835 80.8205 49.9127 80.734 49.9676C80.6474 50.0225 80.5783 50.101 80.5347 50.1937C80.491 50.2864 80.4746 50.3897 80.4875 50.4914C80.5003 50.5931 80.5418 50.689 80.6072 50.768C80.5302 50.83 80.468 50.9085 80.4253 50.9977C80.3826 51.087 80.3605 51.1846 80.3605 51.2835V51.7746C80.3605 51.8201 80.3786 51.8639 80.4108 51.8961C80.443 51.9283 80.4868 51.9464 80.5323 51.9464ZM81.3426 51.6027H80.7042V51.2835C80.7042 51.1988 80.7379 51.1176 80.7977 51.0578C80.8576 50.9979 80.9388 50.9643 81.0234 50.9643C81.1081 50.9643 81.1893 50.9979 81.2491 51.0578C81.309 51.1176 81.3426 51.1988 81.3426 51.2835V51.6027ZM80.827 50.4241C80.827 50.3853 80.8385 50.3473 80.8601 50.315C80.8817 50.2827 80.9124 50.2575 80.9482 50.2426C80.9841 50.2278 81.0236 50.2239 81.0617 50.2315C81.0998 50.239 81.1348 50.2577 81.1623 50.2852C81.1898 50.3127 81.2085 50.3477 81.2161 50.3858C81.2237 50.4239 81.2198 50.4634 81.2049 50.4993C81.19 50.5352 81.1649 50.5659 81.1325 50.5874C81.1002 50.609 81.0623 50.6205 81.0234 50.6205C80.9713 50.6205 80.9214 50.5998 80.8846 50.5629C80.8478 50.5261 80.827 50.4762 80.827 50.4241ZM74.3928 50.5961C74.4581 50.5172 74.4996 50.4212 74.5125 50.3195C74.5253 50.2178 74.509 50.1146 74.4653 50.0218C74.4217 49.9291 74.3525 49.8507 74.266 49.7957C74.1794 49.7408 74.079 49.7117 73.9765 49.7117C73.874 49.7117 73.7737 49.7408 73.6871 49.7957C73.6006 49.8507 73.5314 49.9291 73.4878 50.0218C73.4441 50.1146 73.4278 50.2178 73.4406 50.3195C73.4535 50.4212 73.495 50.5172 73.5603 50.5961C73.4833 50.6582 73.4211 50.7367 73.3784 50.8259C73.3358 50.9151 73.3136 51.0127 73.3136 51.1116V51.6027C73.3136 51.6483 73.3317 51.692 73.3639 51.7242C73.3962 51.7564 73.4399 51.7746 73.4855 51.7746H74.4676C74.5132 51.7746 74.5569 51.7564 74.5891 51.7242C74.6214 51.692 74.6395 51.6483 74.6395 51.6027V51.1116C74.6395 51.0127 74.6173 50.9151 74.5746 50.8259C74.5319 50.7367 74.4698 50.6582 74.3928 50.5961ZM73.7801 50.2522C73.7801 50.2134 73.7916 50.1754 73.8132 50.1431C73.8348 50.1108 73.8655 50.0856 73.9014 50.0708C73.9373 50.0559 73.9768 50.052 74.0149 50.0596C74.053 50.0672 74.088 50.0859 74.1154 50.1133C74.1429 50.1408 74.1616 50.1758 74.1692 50.2139C74.1768 50.252 74.1729 50.2915 74.158 50.3274C74.1432 50.3633 74.118 50.394 74.0857 50.4156C74.0534 50.4371 74.0154 50.4487 73.9765 50.4487C73.9245 50.4486 73.8745 50.4279 73.8377 50.3911C73.8009 50.3542 73.7802 50.3043 73.7801 50.2522ZM74.2957 51.4308H73.6573V51.1116C73.6573 51.027 73.691 50.9458 73.7508 50.8859C73.8107 50.826 73.8919 50.7924 73.9765 50.7924C74.0612 50.7924 74.1424 50.826 74.2022 50.8859C74.2621 50.9458 74.2957 51.027 74.2957 51.1116V51.4308ZM74.3928 57.8579C74.4581 57.7789 74.4996 57.6829 74.5125 57.5812C74.5253 57.4795 74.509 57.3763 74.4653 57.2835C74.4217 57.1908 74.3525 57.1124 74.266 57.0575C74.1794 57.0025 74.079 56.9734 73.9765 56.9734C73.874 56.9734 73.7737 57.0025 73.6871 57.0575C73.6006 57.1124 73.5314 57.1908 73.4878 57.2835C73.4441 57.3763 73.4278 57.4795 73.4406 57.5812C73.4535 57.6829 73.495 57.7789 73.5603 57.8579C73.4833 57.9199 73.4211 57.9984 73.3784 58.0876C73.3358 58.1768 73.3136 58.2744 73.3136 58.3733V58.8644C73.3136 58.91 73.3317 58.9537 73.3639 58.9859C73.3962 59.0182 73.4399 59.0363 73.4855 59.0363H74.4676C74.5132 59.0363 74.5569 59.0182 74.5891 58.9859C74.6214 58.9537 74.6395 58.91 74.6395 58.8644V58.3733C74.6395 58.2744 74.6173 58.1768 74.5746 58.0876C74.5319 57.9984 74.4698 57.9199 74.3928 57.8579ZM73.7801 57.514C73.7801 57.4751 73.7916 57.4371 73.8132 57.4048C73.8348 57.3725 73.8655 57.3473 73.9014 57.3325C73.9373 57.3176 73.9768 57.3137 74.0149 57.3213C74.053 57.3289 74.088 57.3476 74.1154 57.3751C74.1429 57.4025 74.1616 57.4375 74.1692 57.4756C74.1768 57.5137 74.1729 57.5532 74.158 57.5891C74.1432 57.625 74.118 57.6557 74.0857 57.6773C74.0534 57.6989 74.0154 57.7104 73.9765 57.7104C73.9245 57.7103 73.8745 57.6896 73.8377 57.6528C73.8009 57.616 73.7802 57.566 73.7801 57.514ZM74.2957 58.6925H73.6573V58.3733C73.6573 58.2887 73.691 58.2075 73.7508 58.1476C73.8107 58.0878 73.8919 58.0541 73.9765 58.0541C74.0612 58.0541 74.1424 58.0878 74.2022 58.1476C74.2621 58.2075 74.2957 58.2887 74.2957 58.3733V58.6925Z" fill="#231F20"/>
</g>
<path d="M33.1102 44.0899C33.1599 44.3052 33.3747 44.4394 33.5899 44.3898L37.0978 43.5803C37.313 43.5306 37.4472 43.3158 37.3976 43.1006C37.3479 42.8853 37.1331 42.7511 36.9179 42.8007L33.7998 43.5203L33.0803 40.4022C33.0306 40.187 32.8158 40.0528 32.6006 40.1024C32.3853 40.1521 32.2511 40.3669 32.3007 40.5821L33.1102 44.0899ZM45.6608 23.788L33.1608 43.788L33.8392 44.212L46.3392 24.212L45.6608 23.788Z" fill="#203E5F"/>
<defs>
<clipPath id="clip0_149_29">
<rect width="11" height="11" fill="white" transform="matrix(-1 0 0 1 13 33)"/>
</clipPath>
<clipPath id="clip1_149_29">
<rect width="11" height="11" fill="white" transform="translate(72 49)"/>
</clipPath>
</defs>
</svg>
