<svg width="137" height="85" viewBox="0 0 137 85" fill="none" xmlns="http://www.w3.org/2000/svg">
<path d="M68.8633 61.0281C69.0195 61.1843 69.2728 61.1843 69.429 61.0281L71.9745 58.4825C72.1308 58.3263 72.1308 58.0731 71.9745 57.9168C71.8183 57.7606 71.5651 57.7606 71.4089 57.9168L69.1461 60.1796L66.8834 57.9168C66.7272 57.7606 66.4739 57.7606 66.3177 57.9168C66.1615 58.0731 66.1615 58.3263 66.3177 58.4825L68.8633 61.0281ZM69.5461 60.7453L69.5461 35.5424L68.7461 35.5424L68.7461 60.7453L69.5461 60.7453Z" fill="white"/>
<path d="M94.2336 59.1896C94.4451 59.2534 94.6683 59.1336 94.7321 58.9221L95.7716 55.4754C95.8353 55.2639 95.7156 55.0408 95.5041 54.977C95.2926 54.9132 95.0694 55.0329 95.0056 55.2444L94.0817 58.3082L91.018 57.3842C90.8064 57.3204 90.5833 57.4401 90.5195 57.6516C90.4557 57.8631 90.5755 58.0863 90.787 58.1501L94.2336 59.1896ZM94.7016 58.6175L80.4846 32.1222L79.7797 32.5005L93.9967 58.9957L94.7016 58.6175Z" fill="white"/>
<path d="M114.469 42.3952C114.684 42.3473 114.82 42.1336 114.772 41.918L113.991 38.4037C113.944 38.188 113.73 38.0521 113.514 38.1C113.299 38.1479 113.163 38.3616 113.211 38.5772L113.905 41.701L110.781 42.3952C110.565 42.4431 110.429 42.6568 110.477 42.8725C110.525 43.0881 110.739 43.2241 110.954 43.1762L114.469 42.3952ZM114.597 41.6673L86.1627 23.5729L85.7332 24.2479L114.167 42.3422L114.597 41.6673Z" fill="white"/>
<circle cx="69.1463" cy="16.1557" r="16.1557" fill="white"/>
<path fill-rule="evenodd" clip-rule="evenodd" d="M69.3482 28.7571V30.5342C69.3482 30.7794 69.5473 30.9785 69.7925 30.9785C70.0377 30.9785 70.2368 30.7794 70.2368 30.5342V28.7571C70.2368 28.5118 70.0377 28.3128 69.7925 28.3128C69.5473 28.3128 69.3482 28.5118 69.3482 28.7571ZM72.6812 28.1147L73.8657 29.8918C74.0016 30.0961 74.278 30.1512 74.4814 30.0153C74.6858 29.8793 74.7409 29.603 74.6049 29.3995L73.4205 27.6224C73.2845 27.418 73.0082 27.3629 72.8038 27.4989C72.6003 27.6348 72.5453 27.9112 72.6812 28.1147ZM66.1645 27.6224L64.98 29.3995C64.8441 29.603 64.8992 29.8793 65.1036 30.0153C65.307 30.1512 65.5834 30.0961 65.7193 29.8918L66.9038 28.1147C67.0397 27.9112 66.9846 27.6348 66.7812 27.4989C66.5768 27.3629 66.3004 27.418 66.1645 27.6224ZM61.6097 5.34527L61.6035 5.33994C61.4302 5.16667 61.1486 5.16755 60.9753 5.34082L57.9373 8.39481C57.9222 8.40636 57.9071 8.4188 57.8938 8.43302L57.0336 9.29314C56.9297 9.39622 56.8879 9.53839 56.9084 9.67345V13.7057C56.9084 13.823 56.9555 13.9359 57.0381 14.0194L57.7649 14.7462C57.9391 14.9195 58.2199 14.9195 58.394 14.7462L58.7077 14.4326L60.7114 16.4363C60.2929 17.2689 60.4306 18.3094 61.1264 19.0051L64.1377 22.0165C63.6268 22.538 63.6294 23.3751 64.1466 23.8922C64.255 24.0006 64.3794 24.0877 64.5153 24.1526L64.4069 24.2601C64.1572 24.5106 64.0168 24.8492 64.0168 25.2028C64.0168 25.5565 64.1572 25.895 64.4069 26.1456C64.9276 26.6654 65.7718 26.6654 66.2925 26.1456L66.6603 25.7768C66.7252 25.9128 66.8123 26.0372 66.9207 26.1456C67.4414 26.6654 68.2846 26.6654 68.8053 26.1456L69.7925 25.1584L70.7797 26.1456C71.3004 26.6654 72.1436 26.6654 72.6643 26.1456C72.7727 26.0372 72.8598 25.9128 72.9247 25.7768L73.2925 26.1456C73.8132 26.6654 74.6574 26.6654 75.1781 26.1456C75.4278 25.895 75.5681 25.5565 75.5681 25.2028C75.5681 24.8492 75.4278 24.5106 75.1781 24.2601L75.0697 24.1526C75.2056 24.0877 75.33 24.0006 75.4384 23.8922C75.9556 23.3751 75.9582 22.538 75.4473 22.0165L78.4586 19.0051C79.1544 18.3094 79.2921 17.2689 78.8736 16.4363L80.8773 14.4326L81.191 14.7462C81.3651 14.9195 81.6459 14.9195 81.8201 14.7462L82.5469 14.0194C82.6295 13.9359 82.6766 13.823 82.6766 13.7057V9.61214C82.6766 9.5526 82.6651 9.49574 82.6438 9.44331L82.6429 9.44153C82.6215 9.39 82.5896 9.34113 82.5469 9.29848L78.6097 5.34082C78.4364 5.16755 78.1547 5.16667 77.9815 5.33994C77.8073 5.51232 77.8064 5.79399 77.9797 5.96815L78.0055 5.99392L75.5362 8.46323C75.3629 8.6365 75.3629 8.91817 75.5362 9.09144L75.8507 9.40599L73.7288 11.5279C72.978 11.3146 72.1374 11.503 71.5474 12.0939L69.7925 13.8488L68.0376 12.0939C67.4476 11.503 66.607 11.3146 65.8562 11.5279L63.7343 9.40599L64.0488 9.09144C64.2221 8.91817 64.2221 8.6365 64.0488 8.46323L61.584 5.99925L61.6097 5.97348C61.783 5.80021 61.783 5.51854 61.6097 5.34527ZM69.1643 14.477L67.4094 12.7221C66.8887 12.2014 66.0445 12.2014 65.5238 12.7221C65.5238 12.7221 63.2429 15.003 61.7546 16.4914C61.2339 17.0121 61.2339 17.8562 61.7546 18.3769L67.6377 24.2601C67.7213 24.3436 67.8341 24.3907 67.9523 24.3907C68.0705 24.3907 68.1833 24.3436 68.2659 24.2601C68.4401 24.0868 68.4401 23.806 68.2659 23.6319L67.6004 22.9663C67.5906 22.9583 67.5809 22.9494 67.572 22.9397L66.3804 21.7481C66.2072 21.5748 66.2072 21.2932 66.3804 21.1199C66.5537 20.9466 66.8354 20.9466 67.0086 21.1199L67.0095 21.119L71.4079 25.5174C71.5812 25.6907 71.8628 25.6907 72.0361 25.5174C72.1196 25.4339 72.1667 25.321 72.1667 25.2028C72.1667 25.0847 72.1196 24.9718 72.0361 24.8883L68.895 21.7472C68.7209 21.5739 68.7209 21.2923 68.895 21.119C69.0683 20.9457 69.35 20.9457 69.5233 21.119L73.9208 25.5174C74.0949 25.6907 74.3757 25.6907 74.5499 25.5174C74.6325 25.4339 74.6796 25.321 74.6796 25.2028C74.6796 25.0847 74.6325 24.9718 74.5499 24.8883L70.53 20.8693C70.5042 20.8524 70.4794 20.832 70.4563 20.8089L69.8325 20.1762C69.661 20.0012 69.6628 19.7204 69.8369 19.548C70.012 19.3756 70.2936 19.3774 70.4651 19.5525L70.4714 19.5587C70.4731 19.5569 70.474 19.5569 70.4749 19.5569L74.1811 23.264C74.2646 23.3475 74.3775 23.3937 74.4957 23.3937C74.6129 23.3937 74.7267 23.3475 74.8093 23.264C74.9835 23.0907 74.9835 22.809 74.8093 22.6358L69.7925 17.6181L69.4335 17.9771C69.1838 18.2276 68.8444 18.368 68.4916 18.368C68.138 18.368 67.7986 18.2276 67.5489 17.9771C67.2992 17.7274 67.1588 17.3879 67.1588 17.0352C67.1588 16.6815 67.2992 16.3421 67.5489 16.0924L69.1643 14.477ZM66.0223 23.9011L65.0351 24.8883C64.9525 24.9718 64.9054 25.0847 64.9054 25.2028C64.9054 25.321 64.9525 25.4339 65.0351 25.5174C65.2093 25.6907 65.4901 25.6907 65.6642 25.5174L66.6505 24.5302L66.0223 23.9011ZM68.5636 25.1309C68.3761 25.2277 68.1664 25.2793 67.9523 25.2793C67.7675 25.2793 67.5862 25.241 67.42 25.1682C67.4191 25.1797 67.4183 25.1913 67.4183 25.2028C67.4183 25.321 67.4654 25.4339 67.5489 25.5174C67.7221 25.6907 68.0038 25.6907 68.1771 25.5174L68.5636 25.1309ZM64.7659 22.6447C64.6015 22.8188 64.6051 23.0934 64.7757 23.264C64.8583 23.3475 64.972 23.3937 65.0893 23.3937C65.2031 23.3937 65.3115 23.3511 65.3941 23.2729L64.7659 22.6447ZM74.8191 21.3882L77.8304 18.3769C78.3511 17.8562 78.3511 17.0121 77.8304 16.4914L74.0611 12.7221C73.5404 12.2014 72.6963 12.2014 72.1756 12.7221L68.1771 16.7206C68.0936 16.8042 68.0474 16.917 68.0474 17.0352C68.0474 17.1525 68.0936 17.2653 68.1771 17.3488C68.2606 17.4324 68.3735 17.4795 68.4916 17.4795C68.6089 17.4795 68.7218 17.4324 68.8053 17.3488C69.7223 16.4318 71.5474 14.6067 71.5474 14.6067C71.7216 14.4335 72.0023 14.4335 72.1756 14.6067C72.6963 15.1265 73.5404 15.1265 74.0611 14.6067C74.2344 14.4335 74.5161 14.4335 74.6894 14.6067C74.8626 14.78 74.8626 15.0617 74.6894 15.235C73.9296 15.9947 72.7558 16.0889 71.8931 15.5175L70.4207 16.9899L74.8191 21.3882ZM74.5943 11.9188L75.4109 12.7363L76.5864 11.5599C76.7606 11.3866 77.0414 11.3866 77.2155 11.5599C77.3888 11.734 77.3888 12.0148 77.2155 12.189L76.0391 13.3645C77.1027 14.4281 78.3636 15.689 78.3636 15.689L80.2491 13.8044L76.4789 10.0342L74.5943 11.9188ZM64.1741 12.7363L64.9907 11.9188L63.1061 10.0342L59.3359 13.8044L61.2214 15.689C61.2214 15.689 62.4823 14.4281 63.5459 13.3645L62.3695 12.189C62.1962 12.0148 62.1962 11.734 62.3695 11.5599C62.5436 11.3866 62.8244 11.3866 62.9986 11.5599L64.1741 12.7363ZM78.6781 7.57289C77.9424 7.57289 77.3453 8.17 77.3453 8.90573C77.3453 9.64146 77.9424 10.2386 78.6781 10.2386C79.4138 10.2386 80.011 9.64146 80.011 8.90573C80.011 8.17 79.4138 7.57289 78.6781 7.57289ZM67.4965 8.9626L65.7193 6.29692C65.5834 6.09255 65.307 6.03746 65.1036 6.17341C64.8992 6.30936 64.8441 6.5857 64.98 6.78918L66.7572 9.45486C66.8931 9.65923 67.1695 9.71432 67.3729 9.57837C67.5773 9.44242 67.6324 9.16608 67.4965 8.9626ZM72.8278 9.45486L74.6049 6.78918C74.7409 6.5857 74.6858 6.30936 74.4814 6.17341C74.278 6.03746 74.0016 6.09255 73.8657 6.29692L72.0885 8.9626C71.9526 9.16608 72.0077 9.44242 72.212 9.57837C72.4155 9.71432 72.6919 9.65923 72.8278 9.45486ZM78.6781 8.46145C78.9234 8.46145 79.1224 8.66049 79.1224 8.90573C79.1224 9.15097 78.9234 9.35001 78.6781 9.35001C78.4329 9.35001 78.2338 9.15097 78.2338 8.90573C78.2338 8.66049 78.4329 8.46145 78.6781 8.46145ZM70.2368 8.32017V5.65449C70.2368 5.40924 70.0377 5.21021 69.7925 5.21021C69.5473 5.21021 69.3482 5.40924 69.3482 5.65449V8.32017C69.3482 8.56541 69.5473 8.76445 69.7925 8.76445C70.0377 8.76445 70.2368 8.56541 70.2368 8.32017Z" fill="#203E5F"/>
<circle cx="9.6934" cy="49.7594" r="9.6934" fill="white"/>
<g clip-path="url(#clip0_244_10040)">
<path d="M8.21833 54.1301H11.155V56.1082H8.21833V54.1301Z" fill="#6288CC"/>
<path d="M4.01772 46.3029H15.3702C15.7131 46.3029 15.9911 46.5809 15.9911 46.9238V53.8768C15.9911 54.2197 15.7131 54.4977 15.3702 54.4977H4.01772C3.67482 54.4977 3.39684 54.2197 3.39684 53.8768V46.9238C3.39684 46.5809 3.67482 46.3029 4.01772 46.3029Z" fill="#A8B7EE"/>
<path d="M3.39573 46.9238V52.8339H15.9911V46.9238C15.9911 46.7592 15.9257 46.6012 15.8092 46.4848C15.6928 46.3684 15.5349 46.3029 15.3702 46.3029H4.01661C3.85195 46.3029 3.69402 46.3684 3.57758 46.4848C3.46115 46.6012 3.39573 46.7592 3.39573 46.9238Z" fill="#3B579F"/>
<path d="M4.1576 46.8305L4.81402 46.7006L5.16833 47.7013L4.45082 47.8191L4.1576 46.8305Z" fill="#FF4155"/>
<path d="M8.03839 45.5721C8.06845 45.7386 8.04847 45.9103 7.98096 46.0654C7.91345 46.2205 7.80145 46.3521 7.65912 46.4436C7.5168 46.5351 7.35055 46.5823 7.1814 46.5792C7.01224 46.5762 6.84779 46.523 6.70885 46.4265C6.5699 46.33 6.4627 46.1944 6.40081 46.037C6.33892 45.8795 6.32511 45.7073 6.36114 45.542C6.39717 45.3767 6.48141 45.2258 6.60322 45.1084C6.72502 44.991 6.87891 44.9123 7.04542 44.8824C7.26855 44.8422 7.49848 44.8924 7.68468 45.0217C7.87087 45.151 7.99809 45.349 8.03839 45.5721Z" fill="#FFB331"/>
<path d="M6.67119 44.377C6.11479 44.9465 5.40071 45.3364 4.62083 45.4966C4.44201 46.0142 4.58307 46.4418 4.86074 46.8294C5.64719 46.7072 6.45223 46.8232 7.17211 47.1627C7.33872 46.1164 7.19099 45.1778 6.67119 44.377Z" fill="#BDCBF5"/>
<path d="M3.88185 47.0066L4.86031 46.831L4.62105 45.4973L3.64259 45.6728C3.5646 45.6868 3.49535 45.7312 3.45009 45.7962C3.40484 45.8613 3.38727 45.9416 3.40126 46.0196L3.53482 46.7641C3.54175 46.8028 3.55621 46.8396 3.57739 46.8727C3.59857 46.9057 3.62605 46.9342 3.65826 46.9566C3.69046 46.9791 3.72677 46.9949 3.7651 47.0033C3.80343 47.0117 3.84304 47.0124 3.88166 47.0055L3.88185 47.0066Z" fill="#E10459"/>
<path d="M7.49643 47.3948C7.46055 47.4015 7.42368 47.4011 7.38795 47.3936C7.35222 47.3861 7.31832 47.3716 7.28819 47.351C7.25807 47.3303 7.23231 47.304 7.21239 47.2734C7.19247 47.2428 7.17878 47.2085 7.17211 47.1726L6.67118 44.3803C6.65783 44.3077 6.67368 44.2328 6.71528 44.1719C6.75689 44.1109 6.82087 44.0689 6.89332 44.0549C6.96586 44.0418 7.04062 44.0578 7.10149 44.0994C7.16237 44.1409 7.20448 44.2047 7.21876 44.277L7.72301 47.0704C7.73594 47.1435 7.71933 47.2187 7.67684 47.2795C7.63436 47.3403 7.56947 47.3818 7.49643 47.3948Z" fill="#E10459"/>
<path d="M10.5286 43.9638H14.9381V47.4625H10.5286V43.9638Z" fill="#E10459"/>
<path d="M13.5209 45.1678V46.2585C13.5213 46.3108 13.508 46.3622 13.4823 46.4076C13.4565 46.4531 13.4192 46.4909 13.3741 46.5173C13.329 46.5436 13.2777 46.5576 13.2255 46.5578C13.1732 46.5581 13.1219 46.5445 13.0766 46.5184L12.0936 45.972C12.0473 45.9465 12.0087 45.909 11.9818 45.8635C11.9549 45.818 11.9407 45.766 11.9407 45.7132C11.9407 45.6603 11.9549 45.6084 11.9818 45.5629C12.0087 45.5174 12.0473 45.4799 12.0936 45.4544L13.081 44.909C13.1261 44.8838 13.1769 44.8708 13.2285 44.8714C13.2802 44.8719 13.3307 44.886 13.3752 44.9121C13.4197 44.9383 13.4566 44.9757 13.4821 45.0206C13.5077 45.0654 13.521 45.1162 13.5209 45.1678Z" fill="#DBDFEE"/>
<path d="M9.69338 48.2489H14.9381V51.6887H9.69338V48.2489Z" fill="#FF9102"/>
<path d="M14.9381 48.2489L12.3157 49.9683L9.69338 48.2489" fill="#FFB331"/>
<path d="M5.23615 48.2489H8.83594V50.7502H5.23615V48.2489Z" fill="#FFDC41"/>
<path d="M4.20319 49.1874H7.80298V51.6887H4.20319V49.1874Z" fill="#FBEFBC"/>
<path d="M3.32689 46.5495L3.23692 46.0497C3.2149 45.9281 3.24207 45.8026 3.31247 45.701C3.38286 45.5994 3.49071 45.5299 3.61234 45.5077C4.03218 45.3511 5.33171 45.4799 6.50016 44.3137C6.49593 44.2553 6.50324 44.1967 6.52166 44.1412C6.54008 44.0857 6.56925 44.0343 6.60751 43.9901C6.64578 43.9459 6.69238 43.9096 6.74467 43.8833C6.79695 43.8571 6.85389 43.8414 6.91223 43.8372C6.97058 43.833 7.02918 43.8403 7.0847 43.8587C7.14023 43.8771 7.19158 43.9063 7.23582 43.9445C7.32518 44.0218 7.38018 44.1314 7.38872 44.2493L7.47203 44.7435C7.65585 44.7948 7.82168 44.8965 7.95082 45.037C8.07995 45.1775 8.16725 45.3513 8.20287 45.5388C8.23934 45.7392 8.21416 45.9461 8.13067 46.1319H10.3599V43.9638C10.3599 43.9196 10.3774 43.8773 10.4086 43.846C10.4399 43.8148 10.4823 43.7972 10.5265 43.7972H14.9382C14.9824 43.7972 15.0247 43.8148 15.056 43.846C15.0872 43.8773 15.1048 43.9196 15.1048 43.9638V46.1363H15.3702C15.579 46.1366 15.7791 46.2197 15.9267 46.3673C16.0744 46.5149 16.1574 46.7151 16.1577 46.9238V53.8768C16.1574 54.0856 16.0744 54.2857 15.9267 54.4333C15.7791 54.581 15.579 54.664 15.3702 54.6643H14.8093C14.7651 54.6643 14.7228 54.6468 14.6915 54.6155C14.6603 54.5843 14.6427 54.5419 14.6427 54.4977C14.6427 54.4535 14.6603 54.4111 14.6915 54.3799C14.7228 54.3487 14.7651 54.3311 14.8093 54.3311H15.3702C15.4907 54.3311 15.6063 54.2832 15.6914 54.1981C15.7766 54.1129 15.8245 53.9973 15.8245 53.8768V53.0005H7.95963C7.91544 53.0005 7.87306 52.9829 7.84182 52.9517C7.81057 52.9204 7.79302 52.8781 7.79302 52.8339C7.79302 52.7897 7.81057 52.7473 7.84182 52.7161C7.87306 52.6848 7.91544 52.6673 7.95963 52.6673H15.8245V46.9238C15.8245 46.8034 15.7766 46.6878 15.6914 46.6026C15.6063 46.5174 15.4907 46.4696 15.3702 46.4696H15.1048V47.4625C15.1048 47.5067 15.0872 47.5491 15.056 47.5803C15.0247 47.6116 14.9824 47.6291 14.9382 47.6291H10.5287C10.4845 47.6291 10.4421 47.6116 10.4109 47.5803C10.3796 47.5491 10.3621 47.5067 10.3621 47.4625V46.4696H7.88854C7.85966 46.4962 7.83078 46.5218 7.79857 46.5462L7.88743 47.0416C7.91998 47.1556 7.90591 47.2778 7.84832 47.3815C7.79072 47.4851 7.69432 47.5616 7.58032 47.5941C7.46632 47.6267 7.34406 47.6126 7.24043 47.555C7.1368 47.4974 7.0603 47.401 7.02775 47.287C6.41631 47.0158 5.74563 46.9057 5.07958 46.9672L5.32504 47.6491C5.33355 47.6722 5.33685 47.6969 5.33468 47.7214C5.33252 47.7459 5.32495 47.7696 5.31253 47.7909C5.3001 47.8121 5.28313 47.8303 5.26282 47.8442C5.24252 47.8581 5.21939 47.8674 5.19509 47.8713C4.542 47.9823 4.47202 47.9912 4.45092 47.9912C4.41487 47.9912 4.37979 47.9795 4.35096 47.9579C4.32212 47.9363 4.30107 47.9059 4.29098 47.8713L4.0755 47.1449L3.91223 47.1749C3.79056 47.1968 3.66517 47.1696 3.56347 47.0993V52.6673H4.37872C4.42291 52.6673 4.46529 52.6848 4.49653 52.7161C4.52778 52.7473 4.54533 52.7897 4.54533 52.8339C4.54533 52.8781 4.52778 52.9204 4.49653 52.9517C4.46529 52.9829 4.42291 53.0005 4.37872 53.0005H3.56347V53.8768C3.56347 53.9973 3.61133 54.1129 3.69652 54.1981C3.78172 54.2832 3.89726 54.3311 4.01775 54.3311H13.7164C13.7606 54.3311 13.803 54.3487 13.8342 54.3799C13.8654 54.4111 13.883 54.4535 13.883 54.4977C13.883 54.5419 13.8654 54.5843 13.8342 54.6155C13.803 54.6468 13.7606 54.6643 13.7164 54.6643H11.3217V55.9416H12.2203C12.2645 55.9416 12.3068 55.9592 12.3381 55.9904C12.3693 56.0217 12.3869 56.064 12.3869 56.1082C12.3869 56.1524 12.3693 56.1948 12.3381 56.226C12.3068 56.2573 12.2645 56.2748 12.2203 56.2748H7.15326C7.10907 56.2748 7.06669 56.2573 7.03545 56.226C7.0042 56.1948 6.98665 56.1524 6.98665 56.1082C6.98665 56.064 7.0042 56.0217 7.03545 55.9904C7.06669 55.9592 7.10907 55.9416 7.15326 55.9416H8.05181V54.6643H4.01663C3.80787 54.664 3.60774 54.581 3.46012 54.4333C3.3125 54.2857 3.22944 54.0856 3.22915 53.8768V46.9238C3.22938 46.7928 3.26302 46.664 3.32689 46.5495ZM10.6931 47.2959H14.7716V44.1304H10.6931V47.2959ZM8.3828 55.9416H10.9885V54.6643H8.38502L8.3828 55.9416ZM7.87188 45.6021C7.85392 45.504 7.81481 45.4109 7.75727 45.3294C7.69973 45.2479 7.62514 45.1798 7.53867 45.1301L7.72305 46.1586C7.7878 46.0828 7.83494 45.9935 7.86106 45.8973C7.88718 45.8011 7.89164 45.7003 7.8741 45.6021H7.87188ZM7.47203 47.2304C7.48672 47.228 7.50078 47.2227 7.51338 47.2147C7.52597 47.2068 7.53684 47.1964 7.54533 47.1842C7.55383 47.1719 7.55978 47.1581 7.56283 47.1435C7.56589 47.129 7.56598 47.1139 7.5631 47.0993C7.13882 44.7613 7.70527 47.9135 7.05774 44.3081C7.05547 44.2933 7.05023 44.2792 7.04235 44.2664C7.03446 44.2537 7.02409 44.2427 7.01185 44.2341C6.99961 44.2255 6.98575 44.2195 6.97112 44.2163C6.95648 44.2132 6.94136 44.2131 6.92667 44.2159C6.91198 44.2183 6.89792 44.2237 6.88532 44.2316C6.87273 44.2396 6.86186 44.25 6.85337 44.2622C6.84487 44.2744 6.83892 44.2882 6.83587 44.3028C6.83281 44.3174 6.83272 44.3324 6.8356 44.347L7.33652 47.1404C7.339 47.1555 7.34456 47.1699 7.35284 47.1827C7.36113 47.1955 7.37197 47.2065 7.38468 47.2149C7.3974 47.2234 7.41171 47.2291 7.42674 47.2318C7.44177 47.2344 7.45719 47.2339 7.47203 47.2304ZM6.95777 46.8972C6.91779 46.675 7.10216 47.7035 6.5668 44.7191C6.06448 45.1574 5.46533 45.4703 4.81856 45.6321L5.00072 46.6473C5.66176 46.5727 6.33105 46.6565 6.95333 46.8916L6.95777 46.8972ZM4.5731 47.6369L4.94962 47.5747L4.75525 47.0194L4.41093 47.0816L4.5731 47.6369ZM3.8578 46.8472L4.67195 46.7017L4.4909 45.6954L3.67565 45.842C3.65813 45.8444 3.64128 45.8504 3.62611 45.8595C3.61095 45.8686 3.59778 45.8806 3.5874 45.8949C3.57702 45.9093 3.56965 45.9255 3.56573 45.9428C3.56181 45.96 3.56142 45.9779 3.56458 45.9953L3.69564 46.7361C3.69867 46.7536 3.70522 46.7703 3.71489 46.7852C3.72456 46.8 3.73715 46.8128 3.7519 46.8227C3.76665 46.8325 3.78324 46.8393 3.80068 46.8426C3.81812 46.8458 3.83605 46.8455 3.85336 46.8416L3.8578 46.8472Z" fill="#203E5F"/>
<path d="M6.86555 53.0005H5.47273C5.42854 53.0005 5.38617 52.9829 5.35492 52.9517C5.32368 52.9205 5.30613 52.8781 5.30613 52.8339C5.30613 52.7897 5.32368 52.7473 5.35492 52.7161C5.38617 52.6848 5.42854 52.6673 5.47273 52.6673H6.86555C6.90974 52.6673 6.95211 52.6848 6.98336 52.7161C7.0146 52.7473 7.03216 52.7897 7.03216 52.8339C7.03216 52.8781 7.0146 52.9205 6.98336 52.9517C6.95211 52.9829 6.90974 53.0005 6.86555 53.0005ZM9.16137 53.8546C9.11718 53.8546 9.07481 53.8371 9.04356 53.8058C9.01232 53.7746 8.99477 53.7322 8.99477 53.688C8.99477 53.6438 9.01232 53.6015 9.04356 53.5702C9.07481 53.539 9.11718 53.5214 9.16137 53.5214H10.2254C10.2696 53.5214 10.312 53.539 10.3432 53.5702C10.3745 53.6015 10.392 53.6438 10.392 53.688C10.392 53.7322 10.3745 53.7746 10.3432 53.8058C10.312 53.8371 10.2696 53.8546 10.2254 53.8546H9.16137ZM9.40684 45.5388L8.85149 45.6388C8.8073 45.6466 8.76182 45.6365 8.72506 45.6108C8.68829 45.5851 8.66325 45.5458 8.65545 45.5016C8.64764 45.4574 8.65771 45.4119 8.68343 45.3752C8.70916 45.3384 8.74843 45.3134 8.79262 45.3056L9.34797 45.2067C9.39201 45.1989 9.43735 45.2089 9.47401 45.2345C9.51067 45.2601 9.53565 45.2993 9.54345 45.3433C9.55126 45.3874 9.54125 45.4327 9.51563 45.4694C9.49001 45.506 9.45088 45.531 9.40684 45.5388ZM8.30502 44.4925C8.29248 44.5108 8.27646 44.5263 8.2579 44.5384C8.23933 44.5504 8.21858 44.5587 8.19681 44.5627C8.17505 44.5667 8.15271 44.5664 8.13106 44.5618C8.10942 44.5572 8.08889 44.5484 8.07066 44.5358C8.05243 44.5233 8.03685 44.5073 8.0248 44.4887C8.01276 44.4702 8.00449 44.4494 8.00047 44.4276C7.99644 44.4059 7.99675 44.3835 8.00136 44.3619C8.00597 44.3402 8.0148 44.3197 8.02734 44.3015L8.35056 43.8383C8.36303 43.8202 8.37896 43.8046 8.39743 43.7926C8.4159 43.7806 8.43655 43.7724 8.45821 43.7684C8.47987 43.7643 8.50211 43.7646 8.52366 43.7692C8.54521 43.7738 8.56565 43.7825 8.58381 43.795C8.60197 43.8075 8.61749 43.8234 8.6295 43.8419C8.6415 43.8603 8.64975 43.881 8.65377 43.9027C8.65779 43.9243 8.65751 43.9466 8.65294 43.9681C8.64837 43.9897 8.6396 44.0101 8.62712 44.0282L8.30502 44.4925ZM8.89147 47.1538L8.42831 46.8317C8.39193 46.8065 8.36704 46.7679 8.35913 46.7243C8.35121 46.6808 8.36092 46.6359 8.3861 46.5995C8.41129 46.5631 8.44989 46.5383 8.49343 46.5303C8.53696 46.5224 8.58186 46.5321 8.61824 46.5573L9.0814 46.8805C9.10061 46.8925 9.11719 46.9082 9.13014 46.9267C9.14308 46.9452 9.15212 46.9662 9.1567 46.9883C9.16128 47.0105 9.1613 47.0333 9.15677 47.0555C9.15224 47.0776 9.14325 47.0986 9.13035 47.1172C9.11744 47.1357 9.10089 47.1515 9.08171 47.1635C9.06253 47.1754 9.04111 47.1834 9.01876 47.1868C8.99642 47.1902 8.97361 47.189 8.95172 47.1834C8.92984 47.1777 8.90934 47.1676 8.89147 47.1538ZM12.017 45.3089L13 44.7613C13.0706 44.7208 13.1508 44.6996 13.2323 44.7C13.3138 44.7005 13.3937 44.7224 13.464 44.7637C13.5342 44.805 13.5923 44.8641 13.6323 44.9351C13.6724 45.006 13.6929 45.0863 13.6919 45.1678V46.2585C13.6923 46.3393 13.6715 46.4187 13.6316 46.4889C13.5917 46.5591 13.5341 46.6176 13.4646 46.6587C13.395 46.6997 13.3159 46.7217 13.2352 46.7227C13.1545 46.7236 13.0749 46.7033 13.0044 46.6639L12.0214 46.1186C11.9492 46.0785 11.8891 46.0198 11.8472 45.9486C11.8053 45.8774 11.7832 45.7963 11.7832 45.7137C11.7832 45.6312 11.8053 45.5501 11.8472 45.4789C11.8891 45.4077 11.9492 45.349 12.0214 45.3089H12.017ZM12.1791 45.8265L13.1621 46.3729C13.1817 46.3836 13.2037 46.3891 13.226 46.3888C13.2482 46.3885 13.2701 46.3825 13.2894 46.3714C13.3087 46.3602 13.3248 46.3443 13.3362 46.3251C13.3475 46.3059 13.3538 46.2842 13.3543 46.2619V45.1678C13.3541 45.1454 13.348 45.1234 13.3367 45.1041C13.3255 45.0847 13.3093 45.0686 13.2899 45.0574C13.2705 45.0462 13.2485 45.0402 13.2261 45.0401C13.2037 45.04 13.1816 45.0457 13.1621 45.0568L12.1791 45.6021C12.1596 45.6136 12.1433 45.6299 12.132 45.6496C12.1207 45.6693 12.1148 45.6916 12.1148 45.7143C12.1148 45.737 12.1207 45.7593 12.132 45.779C12.1433 45.7986 12.1596 45.815 12.1791 45.8265ZM14.9381 51.8554H9.6934C9.64921 51.8554 9.60683 51.8378 9.57559 51.8066C9.54434 51.7753 9.52679 51.7329 9.52679 51.6888V48.2511C9.52619 48.229 9.53007 48.207 9.53821 48.1863C9.54634 48.1657 9.55855 48.147 9.57411 48.1312C9.58967 48.1154 9.60826 48.103 9.62876 48.0946C9.64926 48.0862 9.67125 48.082 9.6934 48.0823H14.9392C14.9832 48.0826 15.0253 48.1003 15.0563 48.1315C15.0873 48.1627 15.1047 48.2049 15.1047 48.2489V51.6921C15.1039 51.7357 15.0859 51.7772 15.0548 51.8078C15.0236 51.8383 14.9817 51.8554 14.9381 51.8554ZM14.7715 51.5222V48.5566L12.4068 50.1116C12.3797 50.129 12.348 50.1382 12.3158 50.1382C12.2835 50.1382 12.2519 50.129 12.2247 50.1116L9.86 48.5566V51.5222H14.7715ZM14.3806 48.4122H10.2487L12.3158 49.7695L14.3806 48.4122ZM7.8052 51.8554H4.20542C4.16123 51.8554 4.11886 51.8378 4.08761 51.8066C4.05637 51.7753 4.03881 51.7329 4.03881 51.6888V49.1875C4.03881 49.1433 4.05637 49.1009 4.08761 49.0697C4.11886 49.0384 4.16123 49.0209 4.20542 49.0209H5.07177V48.2434C5.07177 48.1992 5.08932 48.1568 5.12057 48.1256C5.15181 48.0943 5.19419 48.0768 5.23837 48.0768H8.83594C8.88012 48.0768 8.9225 48.0943 8.95374 48.1256C8.98499 48.1568 9.00254 48.1992 9.00254 48.2434V50.7502C9.00254 50.7944 8.98499 50.8368 8.95374 50.868C8.9225 50.8993 8.88012 50.9168 8.83594 50.9168H7.96959V51.6943C7.96816 51.7371 7.95028 51.7778 7.91967 51.8078C7.88906 51.8378 7.84806 51.8548 7.8052 51.8554ZM4.37203 51.5222H7.63638V49.3541H4.3698L4.37203 51.5222ZM8.66933 50.5836V48.4155H5.40276V49.0209H7.8052C7.84939 49.0209 7.89177 49.0384 7.92301 49.0697C7.95426 49.1009 7.97181 49.1433 7.97181 49.1875V50.5836H8.66933Z" fill="#203E5F"/>
<path d="M7.1476 49.9527H6.83661C6.79242 49.9527 6.75004 49.9352 6.7188 49.9039C6.68755 49.8727 6.67 49.8303 6.67 49.7861C6.67 49.7419 6.68755 49.6995 6.7188 49.6683C6.75004 49.6371 6.79242 49.6195 6.83661 49.6195H7.1476C7.19179 49.6195 7.23417 49.6371 7.26541 49.6683C7.29666 49.6995 7.31421 49.7419 7.31421 49.7861C7.31421 49.8303 7.29666 49.8727 7.26541 49.9039C7.23417 49.9352 7.19179 49.9527 7.1476 49.9527ZM6.4834 49.7861C6.4834 49.8303 6.46585 49.8727 6.43461 49.9039C6.40336 49.9352 6.36098 49.9527 6.3168 49.9527H4.85956C4.81537 49.9527 4.77299 49.9352 4.74175 49.9039C4.71051 49.8727 4.69295 49.8303 4.69295 49.7861C4.69295 49.7419 4.71051 49.6995 4.74175 49.6683C4.77299 49.6371 4.81537 49.6195 4.85956 49.6195H6.3168C6.36098 49.6195 6.40336 49.6371 6.43461 49.6683C6.46585 49.6995 6.4834 49.7419 6.4834 49.7861ZM6.83661 50.9224H7.1476C7.19179 50.9224 7.23417 50.9399 7.26541 50.9712C7.29666 51.0024 7.31421 51.0448 7.31421 51.089C7.31421 51.1332 7.29666 51.1755 7.26541 51.2068C7.23417 51.238 7.19179 51.2556 7.1476 51.2556H6.83661C6.79242 51.2556 6.75004 51.238 6.7188 51.2068C6.68755 51.1755 6.67 51.1332 6.67 51.089C6.67 51.0448 6.68755 51.0024 6.7188 50.9712C6.75004 50.9399 6.79242 50.9224 6.83661 50.9224ZM4.85956 50.9224H6.3168C6.36098 50.9224 6.40336 50.9399 6.43461 50.9712C6.46585 51.0024 6.4834 51.0448 6.4834 51.089C6.4834 51.1332 6.46585 51.1755 6.43461 51.2068C6.40336 51.238 6.36098 51.2556 6.3168 51.2556H4.85956C4.81537 51.2556 4.77299 51.238 4.74175 51.2068C4.71051 51.1755 4.69295 51.1332 4.69295 51.089C4.69295 51.0448 4.71051 51.0024 4.74175 50.9712C4.77299 50.9399 4.81537 50.9224 4.85956 50.9224ZM4.85956 50.2715H5.16944C5.21363 50.2715 5.25601 50.289 5.28725 50.3203C5.3185 50.3515 5.33605 50.3939 5.33605 50.4381C5.33605 50.4823 5.3185 50.5247 5.28725 50.5559C5.25601 50.5871 5.21363 50.6047 5.16944 50.6047H4.85956C4.81537 50.6047 4.77299 50.5871 4.74175 50.5559C4.71051 50.5247 4.69295 50.4823 4.69295 50.4381C4.69295 50.3939 4.71051 50.3515 4.74175 50.3203C4.77299 50.289 4.81537 50.2715 4.85956 50.2715ZM7.1476 50.6047H5.68925C5.64507 50.6047 5.60269 50.5871 5.57144 50.5559C5.5402 50.5247 5.52265 50.4823 5.52265 50.4381C5.52265 50.3939 5.5402 50.3515 5.57144 50.3203C5.60269 50.289 5.64507 50.2715 5.68925 50.2715H7.1476C7.19179 50.2715 7.23417 50.289 7.26541 50.3203C7.29666 50.3515 7.31421 50.3939 7.31421 50.4381C7.31421 50.4823 7.29666 50.5247 7.26541 50.5559C7.23417 50.5871 7.19179 50.6047 7.1476 50.6047Z" fill="#203E5F"/>
</g>
<path d="M21.5881 41.8912C21.5254 42.1031 21.6464 42.3256 21.8582 42.3883L25.3104 43.4093C25.5222 43.472 25.7448 43.351 25.8074 43.1392C25.8701 42.9274 25.7491 42.7048 25.5373 42.6422L22.4687 41.7346L23.3763 38.666C23.439 38.4541 23.318 38.2316 23.1062 38.169C22.8944 38.1063 22.6718 38.2272 22.6092 38.4391L21.5881 41.8912ZM51.5071 25.4976L21.7807 41.6532L22.1627 42.3561L51.8891 26.2005L51.5071 25.4976Z" fill="white"/>
<circle cx="9.6934" cy="9.6934" r="9.6934" transform="matrix(-1 0 0 1 137 40.066)" fill="white"/>
<g clip-path="url(#clip1_244_10040)">
<path d="M133.171 54.707H121.373C121.17 54.707 121.006 54.5426 121.006 54.3397V45.2436C121.006 45.0407 121.17 44.8763 121.373 44.8763H133.171C133.374 44.8763 133.538 45.0407 133.538 45.2436V54.3397C133.538 54.5426 133.374 54.707 133.171 54.707Z" stroke="#474747" stroke-width="0.7" stroke-miterlimit="10" stroke-linecap="round" stroke-linejoin="round"/>
<path d="M121.08 46.6459H133.505" stroke="#474747" stroke-width="0.7" stroke-miterlimit="10" stroke-linecap="round" stroke-linejoin="round"/>
<path d="M122.177 46.024C122.31 46.024 122.418 45.9163 122.418 45.7835C122.418 45.6507 122.31 45.5431 122.177 45.5431C122.045 45.5431 121.937 45.6507 121.937 45.7835C121.937 45.9163 122.045 46.024 122.177 46.024Z" fill="#474747"/>
<path d="M123.031 46.024C123.163 46.024 123.271 45.9163 123.271 45.7835C123.271 45.6507 123.163 45.5431 123.031 45.5431C122.898 45.5431 122.79 45.6507 122.79 45.7835C122.79 45.9163 122.898 46.024 123.031 46.024Z" fill="#474747"/>
<path d="M123.884 46.024C124.016 46.024 124.124 45.9163 124.124 45.7835C124.124 45.6507 124.016 45.5431 123.884 45.5431C123.751 45.5431 123.643 45.6507 123.643 45.7835C123.643 45.9163 123.751 46.024 123.884 46.024Z" fill="#474747"/>
<path d="M126.88 52.9906H129.212" stroke="#474747" stroke-width="0.7" stroke-miterlimit="10" stroke-linecap="round" stroke-linejoin="round"/>
<path d="M124.075 49.1101L125.512 50.5464L124.09 51.9631" stroke="#474747" stroke-width="0.7" stroke-miterlimit="10" stroke-linecap="round" stroke-linejoin="round"/>
</g>
<circle cx="35.5424" cy="70.4387" r="9.6934" fill="white"/>
<path d="M32.2844 76.6586H38.8005C39.1147 76.6586 39.416 76.5338 39.6382 76.3116C39.8604 76.0894 39.9852 75.7881 39.9852 75.4738V74.8815C39.9842 74.0177 39.6406 73.1896 39.0298 72.5788C38.4191 71.968 37.5909 71.6244 36.7272 71.6234H34.3577C33.4939 71.6244 32.6658 71.968 32.055 72.5788C31.4442 73.1896 31.1006 74.0177 31.0996 74.8815V75.4738C31.0996 75.7881 31.2244 76.0894 31.4466 76.3116C31.6688 76.5338 31.9701 76.6586 32.2844 76.6586Z" fill="#2A4251"/>
<path d="M31.9882 70.7349H33.7653C33.8438 70.7349 33.9192 70.7037 33.9747 70.6481C34.0303 70.5926 34.0615 70.5172 34.0615 70.4387V68.3654C34.0615 68.2868 34.0303 68.2115 33.9747 68.1559C33.9192 68.1004 33.8438 68.0692 33.7653 68.0692H31.9882C31.7525 68.0692 31.5265 68.1628 31.3599 68.3294C31.1932 68.4961 31.0996 68.7221 31.0996 68.9577V69.8463C31.0996 70.082 31.1932 70.308 31.3599 70.4746C31.5265 70.6413 31.7525 70.7349 31.9882 70.7349ZM37.3195 70.7349H39.0967C39.3323 70.7349 39.5583 70.6413 39.725 70.4746C39.8916 70.308 39.9852 70.082 39.9852 69.8463V68.9577C39.9852 68.7221 39.8916 68.4961 39.725 68.3294C39.5583 68.1628 39.3323 68.0692 39.0967 68.0692H37.3195C37.241 68.0692 37.1656 68.1004 37.1101 68.1559C37.0546 68.2115 37.0234 68.2868 37.0234 68.3654V70.4387C37.0234 70.5172 37.0546 70.5926 37.1101 70.6481C37.1656 70.7037 37.241 70.7349 37.3195 70.7349Z" fill="#54C0EB"/>
<path d="M35.5424 72.2158C37.1782 72.2158 38.5043 70.7571 38.5043 68.9577C38.5043 67.1584 37.1782 65.6997 35.5424 65.6997C33.9066 65.6997 32.5806 67.1584 32.5806 68.9577C32.5806 70.7571 33.9066 72.2158 35.5424 72.2158Z" fill="#40596B"/>
<path d="M36.431 64.2188H34.6538C33.9471 64.2195 33.2695 64.5006 32.7698 65.0004C32.27 65.5001 31.9889 66.1777 31.9882 66.8844V68.0692C31.9882 68.1477 32.0194 68.2231 32.0749 68.2786C32.1305 68.3342 32.2058 68.3654 32.2843 68.3654C32.3629 68.3654 32.4382 68.3342 32.4938 68.2786C32.5493 68.2231 32.5805 68.1477 32.5805 68.0692V66.8844C32.5812 66.3348 32.7999 65.8078 33.1886 65.4192C33.5772 65.0305 34.1042 64.8118 34.6538 64.8111H36.431C36.9806 64.8118 37.5076 65.0305 37.8962 65.4192C38.2849 65.8078 38.5036 66.3348 38.5043 66.8844V68.0692C38.5043 68.1477 38.5355 68.2231 38.591 68.2786C38.6466 68.3342 38.7219 68.3654 38.8005 68.3654C38.879 68.3654 38.9544 68.3342 39.0099 68.2786C39.0654 68.2231 39.0967 68.1477 39.0967 68.0692V66.8844C39.0959 66.1777 38.8148 65.5001 38.315 65.0004C37.8153 64.5006 37.1377 64.2195 36.431 64.2188ZM34.3577 70.7349H32.8767C32.7982 70.7349 32.7228 70.7037 32.6673 70.6481C32.6117 70.5926 32.5805 70.5172 32.5805 70.4387C32.5805 70.3601 32.6117 70.2848 32.6673 70.2292C32.7228 70.1737 32.7982 70.1425 32.8767 70.1425H34.3577C34.4362 70.1425 34.5115 70.1737 34.5671 70.2292C34.6226 70.2848 34.6538 70.3601 34.6538 70.4387C34.6538 70.5172 34.6226 70.5926 34.5671 70.6481C34.5115 70.7037 34.4362 70.7349 34.3577 70.7349Z" fill="#54C0EB"/>
<path d="M33.2351 70.7349H31.9882C31.7525 70.7349 31.5265 70.6413 31.3599 70.4746C31.1932 70.308 31.0996 70.082 31.0996 69.8463V68.9577C31.0996 68.7221 31.1932 68.4961 31.3599 68.3294C31.5265 68.1628 31.7525 68.0692 31.9882 68.0692H32.93C33.0086 68.0692 33.0839 68.1004 33.1395 68.1559C33.195 68.2115 33.2262 68.2868 33.2262 68.3654C33.2262 68.4439 33.195 68.5193 33.1395 68.5748C33.0839 68.6304 33.0086 68.6616 32.93 68.6616H31.9882C31.9096 68.6616 31.8343 68.6928 31.7787 68.7483C31.7232 68.8039 31.692 68.8792 31.692 68.9577V69.8463C31.692 69.9249 31.7232 70.0002 31.7787 70.0557C31.8343 70.1113 31.9096 70.1425 31.9882 70.1425H33.2351C33.3137 70.1425 33.389 70.1737 33.4446 70.2292C33.5001 70.2848 33.5313 70.3601 33.5313 70.4387C33.5313 70.5172 33.5001 70.5926 33.4446 70.6481C33.389 70.7037 33.3137 70.7349 33.2351 70.7349ZM39.0967 70.7349H37.8497C37.7712 70.7349 37.6958 70.7037 37.6403 70.6481C37.5847 70.5926 37.5535 70.5172 37.5535 70.4387C37.5535 70.3601 37.5847 70.2848 37.6403 70.2292C37.6958 70.1737 37.7712 70.1425 37.8497 70.1425H39.0967C39.1752 70.1425 39.2506 70.1113 39.3061 70.0557C39.3616 70.0002 39.3928 69.9249 39.3928 69.8463V68.9577C39.3928 68.8792 39.3616 68.8039 39.3061 68.7483C39.2506 68.6928 39.1752 68.6616 39.0967 68.6616H38.1548C38.0762 68.6616 38.0009 68.6304 37.9454 68.5748C37.8898 68.5193 37.8586 68.4439 37.8586 68.3654C37.8586 68.2868 37.8898 68.2115 37.9454 68.1559C38.0009 68.1004 38.0762 68.0692 38.1548 68.0692H39.0967C39.3323 68.0692 39.5583 68.1628 39.725 68.3294C39.8916 68.4961 39.9852 68.7221 39.9852 68.9577V69.8463C39.9852 70.082 39.8916 70.308 39.725 70.4746C39.5583 70.6413 39.3323 70.7349 39.0967 70.7349Z" fill="#232323"/>
<path d="M38.8005 68.6616C38.7219 68.6616 38.6466 68.6304 38.591 68.5748C38.5355 68.5193 38.5043 68.4439 38.5043 68.3654V66.8844C38.5037 66.3348 38.285 65.8078 37.8963 65.4191C37.5077 65.0304 36.9807 64.8118 36.431 64.8111H34.6539C34.1042 64.8118 33.5772 65.0304 33.1885 65.4191C32.7998 65.8078 32.5812 66.3348 32.5805 66.8844V68.3654C32.5805 68.4439 32.5493 68.5193 32.4938 68.5748C32.4382 68.6304 32.3629 68.6616 32.2844 68.6616C32.2058 68.6616 32.1305 68.6304 32.0749 68.5748C32.0194 68.5193 31.9882 68.4439 31.9882 68.3654V66.8844C31.989 66.1777 32.2701 65.5001 32.7698 65.0004C33.2695 64.5006 33.9471 64.2195 34.6539 64.2188H36.431C37.1377 64.2195 37.8153 64.5006 38.315 65.0004C38.8148 65.5001 39.0959 66.1777 39.0967 66.8844V68.3654C39.0967 68.4439 39.0655 68.5193 39.0099 68.5748C38.9544 68.6304 38.879 68.6616 38.8005 68.6616ZM38.8005 76.6586H32.2844C31.9701 76.6586 31.6688 76.5338 31.4466 76.3116C31.2244 76.0894 31.0996 75.7881 31.0996 75.4739V74.8815C31.1006 74.0177 31.4442 73.1896 32.055 72.5788C32.6658 71.968 33.4939 71.6244 34.3577 71.6234H36.7272C37.5909 71.6244 38.4191 71.968 39.0298 72.5788C39.6406 73.1896 39.9842 74.0177 39.9852 74.8815V75.4739C39.9852 75.7881 39.8604 76.0894 39.6382 76.3116C39.416 76.5338 39.1147 76.6586 38.8005 76.6586ZM34.3577 72.2158C33.6509 72.2166 32.9734 72.4977 32.4736 72.9974C31.9739 73.4972 31.6928 74.1747 31.692 74.8815V75.4739C31.692 75.631 31.7544 75.7816 31.8655 75.8927C31.9766 76.0038 32.1273 76.0662 32.2844 76.0662H38.8005C38.9576 76.0662 39.1083 76.0038 39.2193 75.8927C39.3304 75.7816 39.3928 75.631 39.3928 75.4739V74.8815C39.3921 74.1747 39.111 73.4972 38.6112 72.9974C38.1115 72.4977 37.4339 72.2166 36.7272 72.2158H34.3577Z" fill="#232323"/>
<path d="M35.5424 72.2158C33.9093 72.2158 32.5806 70.7541 32.5806 68.9577C32.5806 67.1614 33.9093 65.6997 35.5424 65.6997C37.1756 65.6997 38.5043 67.1614 38.5043 68.9577C38.5043 70.7541 37.1756 72.2158 35.5424 72.2158ZM35.5424 66.2921C34.236 66.2921 33.1729 67.4881 33.1729 68.9577C33.1729 70.4274 34.236 71.6234 35.5424 71.6234C36.8489 71.6234 37.9119 70.4274 37.9119 68.9577C37.9119 67.4881 36.8489 66.2921 35.5424 66.2921Z" fill="#232323"/>
<path d="M34.3577 70.7349H32.8768C32.7982 70.7349 32.7229 70.7037 32.6673 70.6481C32.6118 70.5926 32.5806 70.5172 32.5806 70.4387C32.5806 70.3601 32.6118 70.2848 32.6673 70.2292C32.7229 70.1737 32.7982 70.1425 32.8768 70.1425H34.3577C34.4362 70.1425 34.5116 70.1737 34.5671 70.2292C34.6227 70.2848 34.6539 70.3601 34.6539 70.4387C34.6539 70.5172 34.6227 70.5926 34.5671 70.6481C34.5116 70.7037 34.4362 70.7349 34.3577 70.7349Z" fill="#232323"/>
<circle cx="69.1463" cy="74.316" r="9.6934" fill="white"/>
<path d="M69.146 71.2618C69.146 71.0207 69.146 70.9002 69.2321 70.8254C69.3182 70.7507 69.4269 70.7661 69.6444 70.7969C70.0934 70.8605 70.5277 71.0097 70.9232 71.238C71.4635 71.5499 71.9122 71.9986 72.2241 72.5389C72.5361 73.0792 72.7003 73.6921 72.7003 74.316C72.7003 74.9399 72.5361 75.5528 72.2241 76.0931C71.9122 76.6335 71.4635 77.0821 70.9232 77.3941C70.3829 77.706 69.7699 77.8703 69.146 77.8703C68.5221 77.8703 67.9092 77.706 67.3689 77.3941C66.9735 77.1658 66.6272 76.8643 66.3476 76.5072C66.2122 76.3343 66.1445 76.2478 66.1662 76.1359C66.1879 76.0239 66.2922 75.9637 66.501 75.8431L68.896 74.4604C69.0181 74.3899 69.0791 74.3547 69.1125 74.2967C69.146 74.2387 69.146 74.1682 69.146 74.0274V71.2618Z" fill="#33363F"/>
<circle cx="69.1461" cy="74.316" r="5.08899" stroke="#33363F" stroke-width="0.7"/>
<circle cx="9.6934" cy="9.6934" r="9.6934" transform="matrix(-1 0 0 1 109.859 60.7453)" fill="white"/>
<g clip-path="url(#clip2_244_10040)">
<path d="M100.592 69.8359C100.676 69.7338 100.73 69.6098 100.747 69.4784C100.763 69.347 100.742 69.2135 100.686 69.0937C100.629 68.9738 100.54 68.8724 100.428 68.8015C100.316 68.7305 100.187 68.6928 100.054 68.6928C99.9216 68.6928 99.7919 68.7305 99.68 68.8015C99.5681 68.8724 99.4788 68.9738 99.4224 69.0937C99.366 69.2135 99.3448 69.347 99.3614 69.4784C99.378 69.6098 99.4317 69.7338 99.5161 69.8359C99.4166 69.9161 99.3363 70.0176 99.2811 70.1329C99.2259 70.2481 99.1973 70.3743 99.1973 70.5022V71.1368C99.1973 71.1958 99.2207 71.2523 99.2623 71.2939C99.304 71.3356 99.3605 71.359 99.4194 71.359H100.689C100.748 71.359 100.804 71.3356 100.846 71.2939C100.888 71.2523 100.911 71.1958 100.911 71.1368V70.5022C100.911 70.3743 100.882 70.2481 100.827 70.1329C100.772 70.0176 100.692 69.9161 100.592 69.8359ZM99.8002 69.3915C99.8002 69.3412 99.8151 69.2922 99.843 69.2504C99.8709 69.2087 99.9105 69.1761 99.9569 69.1569C100.003 69.1377 100.054 69.1327 100.104 69.1425C100.153 69.1522 100.198 69.1764 100.234 69.2119C100.269 69.2474 100.293 69.2927 100.303 69.3419C100.313 69.3912 100.308 69.4422 100.289 69.4886C100.269 69.535 100.237 69.5747 100.195 69.6025C100.153 69.6304 100.104 69.6453 100.054 69.6453C99.9868 69.6453 99.9222 69.6185 99.8747 69.5709C99.8271 69.5233 99.8003 69.4588 99.8002 69.3915ZM100.467 70.9147H99.6415V70.5022C99.6415 70.3927 99.685 70.2878 99.7624 70.2104C99.8397 70.1331 99.9447 70.0896 100.054 70.0896C100.164 70.0896 100.268 70.1331 100.346 70.2104C100.423 70.2878 100.467 70.3927 100.467 70.5022V70.9147ZM105.257 74.723C105.341 74.6209 105.395 74.4969 105.412 74.3655C105.428 74.2341 105.407 74.1006 105.351 73.9807C105.294 73.8609 105.205 73.7595 105.093 73.6885C104.981 73.6176 104.852 73.5799 104.719 73.5799C104.587 73.5799 104.457 73.6176 104.345 73.6885C104.233 73.7595 104.144 73.8609 104.087 73.9807C104.031 74.1006 104.01 74.2341 104.026 74.3655C104.043 74.4969 104.097 74.6209 104.181 74.723C104.082 74.8032 104.001 74.9047 103.946 75.0199C103.891 75.1352 103.862 75.2614 103.862 75.3892V76.0239C103.862 76.0828 103.886 76.1393 103.927 76.181C103.969 76.2227 104.025 76.2461 104.084 76.2461H105.354C105.413 76.2461 105.469 76.2227 105.511 76.181C105.552 76.1393 105.576 76.0828 105.576 76.0239V75.3892C105.576 75.2614 105.547 75.1352 105.492 75.0199C105.437 74.9047 105.357 74.8032 105.257 74.723ZM104.465 74.2785C104.465 74.2283 104.48 74.1792 104.508 74.1375C104.536 74.0957 104.575 74.0632 104.622 74.044C104.668 74.0248 104.719 74.0197 104.769 74.0295C104.818 74.0393 104.863 74.0635 104.899 74.099C104.934 74.1345 104.958 74.1798 104.968 74.229C104.978 74.2783 104.973 74.3293 104.954 74.3757C104.934 74.4221 104.902 74.4617 104.86 74.4896C104.818 74.5175 104.769 74.5324 104.719 74.5324C104.652 74.5323 104.587 74.5056 104.54 74.458C104.492 74.4104 104.465 74.3459 104.465 74.2785ZM105.132 75.8018H104.306V75.3892C104.306 75.2798 104.35 75.1749 104.427 75.0975C104.505 75.0202 104.61 74.9767 104.719 74.9767C104.828 74.9767 104.933 75.0202 105.011 75.0975C105.088 75.1749 105.132 75.2798 105.132 75.3892V75.8018Z" fill="#231F20"/>
<path d="M104.719 73.1044C104.251 73.104 103.799 73.2784 103.453 73.5934L103.543 73.5026L101.434 71.3929C101.742 71.0638 101.922 70.6349 101.941 70.1843C101.96 69.7337 101.816 69.2913 101.536 68.9376L103.321 67.1527C103.644 67.5078 104.09 67.7262 104.569 67.7634C105.047 67.8005 105.522 67.6536 105.896 67.3526C106.27 67.0516 106.514 66.6192 106.58 66.1437C106.646 65.6683 106.528 65.1857 106.25 64.7945C105.971 64.4033 105.554 64.1331 105.084 64.0389C104.613 63.9448 104.124 64.0339 103.717 64.2881C103.31 64.5423 103.015 64.9423 102.893 65.4064C102.771 65.8706 102.831 66.3639 103.06 66.7855L101.222 68.6234C100.847 68.3269 100.373 68.184 99.8969 68.2238C99.4204 68.2636 98.9769 68.483 98.6562 68.8376L96.8791 67.0606C97.2342 66.7377 97.4525 66.2913 97.4895 65.8128C97.5266 65.3343 97.3795 64.8597 97.0784 64.4859C96.7773 64.1122 96.3448 63.8675 95.8694 63.8019C95.3939 63.7362 94.9113 63.8546 94.5202 64.1328C94.1291 64.411 93.859 64.828 93.765 65.2987C93.671 65.7693 93.7602 66.2581 94.0144 66.6652C94.2687 67.0723 94.6688 67.3669 95.133 67.489C95.5971 67.611 96.0904 67.5512 96.512 67.3218L98.395 69.2048C98.2057 69.5526 98.1309 69.9512 98.1811 70.344C98.2313 70.7368 98.404 71.1038 98.6747 71.3929L96.6165 73.4509C96.2082 73.1933 95.7169 73.1015 95.2431 73.194C94.7693 73.2866 94.3488 73.5567 94.0676 73.9491C93.7863 74.3414 93.6655 74.8264 93.73 75.3048C93.7944 75.7833 94.0391 76.219 94.4142 76.523C94.7892 76.8269 95.2662 76.9761 95.7476 76.9401C96.229 76.9041 96.6785 76.6855 97.0041 76.3291C97.3297 75.9726 97.5068 75.5053 97.4993 75.0226C97.4918 74.5399 97.3001 74.0783 96.9636 73.7322L99.0149 71.6809C99.3231 71.8849 99.6845 71.9937 100.054 71.9937C100.424 71.9937 100.785 71.8849 101.093 71.6809L103.229 73.8168L103.32 73.726C103.03 74.0469 102.859 74.4578 102.835 74.8897C102.812 75.3217 102.938 75.7486 103.191 76.0989C103.445 76.4492 103.812 76.7017 104.229 76.8141C104.647 76.9266 105.091 76.8921 105.486 76.7164C105.881 76.5408 106.204 76.2346 106.401 75.8493C106.598 75.4639 106.656 75.0228 106.566 74.5996C106.476 74.1764 106.244 73.797 105.907 73.5248C105.571 73.2526 105.152 73.1042 104.719 73.1044ZM104.719 64.4409C105.005 64.4409 105.284 64.5256 105.521 64.6842C105.759 64.8429 105.944 65.0684 106.053 65.3322C106.162 65.5961 106.191 65.8864 106.135 66.1665C106.079 66.4466 105.942 66.7039 105.74 66.9058C105.538 67.1077 105.281 67.2453 105.001 67.301C104.721 67.3567 104.43 67.3281 104.166 67.2188C103.903 67.1095 103.677 66.9244 103.518 66.687C103.36 66.4495 103.275 66.1704 103.275 65.8848C103.276 65.502 103.428 65.135 103.699 64.8643C103.969 64.5936 104.336 64.4413 104.719 64.4409ZM94.1674 65.6627C94.1674 65.3771 94.2521 65.0979 94.4107 64.8605C94.5694 64.623 94.7949 64.4379 95.0587 64.3287C95.3226 64.2194 95.6129 64.1908 95.893 64.2465C96.1731 64.3022 96.4303 64.4397 96.6323 64.6417C96.8342 64.8436 96.9717 65.1009 97.0275 65.381C97.0832 65.6611 97.0546 65.9514 96.9453 66.2152C96.836 66.4791 96.6509 66.7046 96.4135 66.8632C96.176 67.0219 95.8969 67.1066 95.6113 67.1066C95.2285 67.1061 94.8615 66.9539 94.5908 66.6832C94.3201 66.4125 94.1678 66.0455 94.1674 65.6627ZM95.6113 76.492C95.3257 76.492 95.0465 76.4073 94.8091 76.2487C94.5716 76.09 94.3866 75.8645 94.2773 75.6007C94.168 75.3368 94.1394 75.0465 94.1951 74.7664C94.2508 74.4863 94.3883 74.229 94.5903 74.0271C94.7922 73.8252 95.0495 73.6876 95.3296 73.6319C95.6097 73.5762 95.9 73.6048 96.1638 73.7141C96.4277 73.8234 96.6532 74.0084 96.8119 74.2459C96.9705 74.4833 97.0552 74.7625 97.0552 75.0481C97.0548 75.4309 96.9025 75.7979 96.6318 76.0686C96.3611 76.3393 95.9941 76.4916 95.6113 76.492ZM98.6102 70.1055C98.6102 69.8199 98.6949 69.5407 98.8535 69.3033C99.0122 69.0658 99.2377 68.8808 99.5015 68.7715C99.7654 68.6622 100.056 68.6336 100.336 68.6893C100.616 68.745 100.873 68.8825 101.075 69.0845C101.277 69.2864 101.415 69.5437 101.47 69.8238C101.526 70.1039 101.497 70.3942 101.388 70.658C101.279 70.9219 101.094 71.1474 100.856 71.306C100.619 71.4647 100.34 71.5494 100.054 71.5494C99.6713 71.5489 99.3043 71.3967 99.0336 71.126C98.7629 70.8553 98.6106 70.4883 98.6102 70.1055ZM104.719 76.4365C104.433 76.4365 104.154 76.3518 103.917 76.1931C103.679 76.0345 103.494 75.809 103.385 75.5451C103.276 75.2813 103.247 74.991 103.303 74.7109C103.359 74.4308 103.496 74.1735 103.698 73.9716C103.9 73.7696 104.157 73.6321 104.437 73.5764C104.717 73.5207 105.008 73.5493 105.272 73.6586C105.535 73.7678 105.761 73.9529 105.92 74.1904C106.078 74.4278 106.163 74.707 106.163 74.9926C106.163 75.3754 106.01 75.7424 105.74 76.0131C105.469 76.2838 105.102 76.436 104.719 76.4365Z" fill="#231F20"/>
<path d="M104.084 67.1383H105.354C105.413 67.1383 105.469 67.1149 105.511 67.0732C105.552 67.0316 105.576 66.9751 105.576 66.9162V66.2815C105.576 66.1537 105.547 66.0275 105.492 65.9122C105.437 65.7969 105.356 65.6954 105.257 65.6153C105.341 65.5132 105.395 65.3892 105.412 65.2577C105.428 65.1263 105.407 64.9929 105.351 64.873C105.294 64.7531 105.205 64.6518 105.093 64.5808C104.981 64.5098 104.851 64.4721 104.719 64.4721C104.586 64.4721 104.457 64.5098 104.345 64.5808C104.233 64.6518 104.144 64.7531 104.087 64.873C104.031 64.9929 104.01 65.1263 104.026 65.2577C104.043 65.3892 104.097 65.5132 104.181 65.6153C104.081 65.6954 104.001 65.7969 103.946 65.9122C103.891 66.0275 103.862 66.1537 103.862 66.2815V66.9162C103.862 66.9751 103.886 67.0316 103.927 67.0732C103.969 67.1149 104.025 67.1383 104.084 67.1383ZM105.132 66.694H104.306V66.2815C104.306 66.1721 104.35 66.0671 104.427 65.9898C104.505 65.9124 104.61 65.8689 104.719 65.8689C104.828 65.8689 104.933 65.9124 105.011 65.9898C105.088 66.0671 105.132 66.1721 105.132 66.2815V66.694ZM104.465 65.1708C104.465 65.1206 104.48 65.0715 104.508 65.0297C104.536 64.988 104.575 64.9554 104.622 64.9362C104.668 64.917 104.719 64.912 104.768 64.9218C104.818 64.9316 104.863 64.9558 104.898 64.9913C104.934 65.0268 104.958 65.072 104.968 65.1213C104.978 65.1705 104.973 65.2215 104.954 65.2679C104.934 65.3143 104.902 65.354 104.86 65.3819C104.818 65.4098 104.769 65.4247 104.719 65.4247C104.652 65.4246 104.587 65.3978 104.54 65.3502C104.492 65.3026 104.465 65.2381 104.465 65.1708ZM96.1492 65.3931C96.2336 65.291 96.2873 65.167 96.3039 65.0356C96.3205 64.9042 96.2993 64.7707 96.2429 64.6508C96.1865 64.531 96.0972 64.4296 95.9853 64.3586C95.8734 64.2877 95.7437 64.25 95.6112 64.25C95.4787 64.25 95.349 64.2877 95.2371 64.3586C95.1253 64.4296 95.0359 64.531 94.9795 64.6508C94.9231 64.7707 94.902 64.9042 94.9186 65.0356C94.9352 65.167 94.9888 65.291 95.0732 65.3931C94.9737 65.4733 94.8934 65.5748 94.8382 65.69C94.783 65.8053 94.7544 65.9315 94.7544 66.0593V66.694C94.7544 66.7529 94.7778 66.8094 94.8195 66.8511C94.8611 66.8928 94.9176 66.9162 94.9765 66.9162H96.2459C96.3048 66.9162 96.3613 66.8928 96.403 66.8511C96.4446 66.8094 96.468 66.7529 96.468 66.694V66.0593C96.468 65.9315 96.4394 65.8053 96.3842 65.69C96.329 65.5748 96.2487 65.4733 96.1492 65.3931ZM95.3573 64.9486C95.3573 64.8984 95.3722 64.8493 95.4001 64.8076C95.428 64.7658 95.4677 64.7333 95.5141 64.7141C95.5605 64.6949 95.6115 64.6898 95.6607 64.6996C95.71 64.7094 95.7552 64.7336 95.7907 64.7691C95.8262 64.8046 95.8504 64.8499 95.8602 64.8991C95.87 64.9484 95.865 64.9994 95.8458 65.0458C95.8266 65.0922 95.794 65.1318 95.7523 65.1597C95.7105 65.1876 95.6614 65.2025 95.6112 65.2025C95.5439 65.2024 95.4794 65.1757 95.4318 65.1281C95.3842 65.0805 95.3574 65.016 95.3573 64.9486ZM96.0238 66.4719H95.1987V66.0593C95.1987 65.9499 95.2421 65.845 95.3195 65.7676C95.3969 65.6903 95.5018 65.6468 95.6112 65.6468C95.7206 65.6468 95.8256 65.6903 95.9029 65.7676C95.9803 65.845 96.0238 65.9499 96.0238 66.0593V66.4719ZM96.1492 74.7785C96.2336 74.6765 96.2873 74.5525 96.3039 74.421C96.3205 74.2896 96.2993 74.1561 96.2429 74.0363C96.1865 73.9164 96.0972 73.8151 95.9853 73.7441C95.8734 73.6731 95.7437 73.6354 95.6112 73.6354C95.4787 73.6354 95.349 73.6731 95.2371 73.7441C95.1253 73.8151 95.0359 73.9164 94.9795 74.0363C94.9231 74.1561 94.902 74.2896 94.9186 74.421C94.9352 74.5525 94.9888 74.6765 95.0732 74.7785C94.9737 74.8587 94.8934 74.9602 94.8382 75.0755C94.783 75.1908 94.7544 75.317 94.7544 75.4448V76.0795C94.7544 76.1384 94.7778 76.1949 94.8195 76.2365C94.8611 76.2782 94.9176 76.3016 94.9765 76.3016H96.2459C96.3048 76.3016 96.3613 76.2782 96.403 76.2365C96.4446 76.1949 96.468 76.1384 96.468 76.0795V75.4448C96.468 75.317 96.4394 75.1908 96.3842 75.0755C96.329 74.9602 96.2487 74.8587 96.1492 74.7785ZM95.3573 74.3341C95.3573 74.2839 95.3722 74.2348 95.4001 74.193C95.428 74.1513 95.4677 74.1187 95.5141 74.0995C95.5605 74.0803 95.6115 74.0753 95.6607 74.0851C95.71 74.0949 95.7552 74.119 95.7907 74.1546C95.8262 74.1901 95.8504 74.2353 95.8602 74.2845C95.87 74.3338 95.865 74.3848 95.8458 74.4312C95.8266 74.4776 95.794 74.5173 95.7523 74.5452C95.7105 74.5731 95.6614 74.588 95.6112 74.588C95.5439 74.5879 95.4794 74.5611 95.4318 74.5135C95.3842 74.4659 95.3574 74.4014 95.3573 74.3341ZM96.0238 75.8573H95.1987V75.4448C95.1987 75.3354 95.2421 75.2304 95.3195 75.1531C95.3969 75.0757 95.5018 75.0322 95.6112 75.0322C95.7206 75.0322 95.8256 75.0757 95.9029 75.1531C95.9803 75.2304 96.0238 75.3354 96.0238 75.4448V75.8573Z" fill="#231F20"/>
</g>
<path d="M42.9074 56.9579C42.957 57.1731 43.1718 57.3074 43.3871 57.2577L46.8949 56.4482C47.1101 56.3985 47.2444 56.1838 47.1947 55.9685C47.145 55.7532 46.9302 55.619 46.715 55.6687L43.5969 56.3882L42.8774 53.2702C42.8277 53.0549 42.6129 52.9207 42.3977 52.9704C42.1824 53.02 42.0482 53.2348 42.0979 53.4501L42.9074 56.9579ZM59.1136 30.8069L42.9579 56.6559L43.6363 57.0799L59.792 31.2309L59.1136 30.8069Z" fill="white"/>
<defs>
<clipPath id="clip0_244_10040">
<rect width="14.217" height="14.217" fill="white" transform="matrix(-1 0 0 1 16.8019 42.651)"/>
</clipPath>
<clipPath id="clip1_244_10040">
<rect width="14.217" height="14.217" fill="white" transform="translate(120.198 42.651)"/>
</clipPath>
<clipPath id="clip2_244_10040">
<rect width="14.217" height="14.217" fill="white" transform="translate(93.0566 63.3302)"/>
</clipPath>
</defs>
</svg>
