<svg width="45" height="40" viewBox="0 0 45 40" fill="none" xmlns="http://www.w3.org/2000/svg">
<path d="M22.3411 24.0186C24.5881 24.0186 26.4096 22.1971 26.4096 19.9501C26.4096 17.7031 24.5881 15.8816 22.3411 15.8816C20.0941 15.8816 18.2726 17.7031 18.2726 19.9501C18.2726 22.1971 20.0941 24.0186 22.3411 24.0186Z" fill="#61DAFB"/>
<path d="M37.7944 13.2405V13.2405C36.4348 12.7461 35.6193 11.311 35.8672 9.88578V9.88578C36.6166 5.17486 35.7958 1.85581 33.5117 0.571019C32.8336 0.178443 32.0842 0 31.2276 0C29.7137 0 27.9508 0.681531 26.0818 1.90957C23.8291 3.38972 20.8532 3.38972 18.6005 1.90957C16.7315 0.68153 14.9686 0 13.4546 0C12.5981 0 11.8487 0.178443 11.1706 0.571019C8.88649 1.8915 8.06565 5.21055 8.81512 9.88578V9.88578C9.06298 11.311 8.22684 12.6928 6.88792 13.2405V13.2405C2.42683 14.9536 0 17.309 0 19.95C0 22.591 2.46252 24.9464 6.88792 26.6595V26.6595C8.24744 27.1538 9.06298 28.589 8.81512 30.0142V30.0142C8.06565 34.7251 8.88649 38.0442 11.1706 39.329C11.8487 39.7215 12.5981 39.9 13.4546 39.9C14.9796 39.9 16.7371 39.2279 18.5873 38.0159C20.8511 36.5329 23.8404 36.5224 26.1043 38.0052C27.965 39.2239 29.7198 39.9 31.2276 39.9C32.0842 39.9 32.8336 39.7215 33.5117 39.329C35.7958 38.0085 36.6166 34.6894 35.8672 30.0142V30.0142C35.6193 28.589 36.4555 27.2072 37.7944 26.6595V26.6595C42.2555 24.9464 44.6823 22.591 44.6823 19.95C44.6823 17.309 42.2555 14.9536 37.7944 13.2405ZM32.5124 2.35546C33.9757 3.21198 34.4753 5.85295 33.8686 9.60027V9.60027C33.6789 10.9282 32.329 11.7092 31.005 11.494C30.4763 11.4081 29.9397 11.3317 29.3952 11.2639C28.1834 11.1133 27.0324 10.4164 26.2874 9.44888V9.44888C24.9212 7.67493 24.9808 5.12301 26.8096 3.83116C28.4 2.70769 29.9259 2.03426 31.2633 2.03426C31.7273 2.03426 32.1555 2.14132 32.5124 2.35546ZM28.5153 23.5189C28.2445 24.0004 27.9546 24.4818 27.651 24.9633C26.8489 26.2357 25.4682 27.0291 23.9646 27.068C23.4277 27.082 22.8873 27.0877 22.3411 27.0877C21.7871 27.0877 21.2444 27.0821 20.7107 27.0685C19.211 27.0304 17.8365 26.2368 17.0506 24.959C16.7553 24.4789 16.4727 23.9989 16.2027 23.5189C15.9342 23.0525 15.6713 22.5806 15.4162 22.1075C14.6896 20.76 14.6896 19.14 15.4162 17.7925C15.6713 17.3194 15.9342 16.8475 16.2027 16.3811C16.4735 15.8996 16.7634 15.4182 17.0669 14.9367C17.8691 13.6643 19.2498 12.8709 20.7534 12.8319C21.2903 12.818 21.8307 12.8123 22.3768 12.8123C22.9309 12.8123 23.4736 12.8179 24.0072 12.8315C25.5069 12.8696 26.8815 13.6632 27.6674 14.941C27.9626 15.4211 28.2453 15.9011 28.5153 16.3811C28.7712 16.8257 29.0221 17.2753 29.266 17.7262C30.0146 19.1103 29.9915 20.7778 29.2519 22.1667C29.0139 22.6137 28.7696 23.0638 28.5153 23.5189ZM30.264 24.5538C30.7729 23.6634 32.0487 23.7264 32.3886 24.694C32.397 24.7179 32.4053 24.7417 32.4137 24.7655C32.6482 25.4367 32.2406 26.1577 31.5422 26.2905C31.5104 26.2965 31.4786 26.3025 31.4468 26.3085C30.4714 26.4912 29.8036 25.4329 30.264 24.5538V24.5538V24.5538ZM23.2041 31.041C22.7487 31.5731 21.9336 31.5731 21.4782 31.041C21.4587 31.0182 21.4392 30.9954 21.4197 30.9725C20.7842 30.2264 21.3611 29.122 22.3411 29.122V29.122V29.122C23.3212 29.122 23.8981 30.2264 23.2626 30.9725C23.2431 30.9954 23.2236 31.0182 23.2041 31.041ZM14.4182 24.4825C14.9074 25.3792 14.1478 26.4463 13.1444 26.2556V26.2556C12.43 26.1198 12.0444 25.3858 12.2847 24.6996C12.2928 24.6767 12.3008 24.6538 12.3089 24.6309C12.6448 23.6752 13.8971 23.6138 14.4182 24.4825V24.4825V24.4825ZM14.4182 15.3462C13.9094 16.2366 12.6336 16.1736 12.2937 15.2059C12.2853 15.1821 12.277 15.1583 12.2686 15.1345C12.0341 14.4633 12.4416 13.7423 13.1401 13.6095C13.1719 13.6035 13.2037 13.5975 13.2355 13.5915C14.2109 13.4088 14.8787 14.4671 14.4182 15.3462V15.3462V15.3462ZM21.4782 8.85898C21.9336 8.32687 22.7487 8.32687 23.2041 8.85898C23.2236 8.88178 23.2431 8.90461 23.2626 8.92748C23.898 9.6736 23.3212 10.778 22.3411 10.778V10.778V10.778C21.3611 10.778 20.7842 9.6736 21.4197 8.92748C21.4392 8.90461 21.4587 8.88178 21.4782 8.85898ZM30.264 15.3818V15.3818C29.7449 14.5167 30.4543 13.4413 31.446 13.6271C31.4711 13.6318 31.4961 13.6365 31.5211 13.6412C32.229 13.7754 32.6396 14.5087 32.4016 15.1887C32.3957 15.2056 32.3898 15.2225 32.3839 15.2394C32.0491 16.1932 30.7841 16.2486 30.264 15.3818V15.3818ZM10.8137 9.60027C10.207 5.85295 10.7066 3.21198 12.1699 2.35546C12.5267 2.14132 12.955 2.03426 13.419 2.03426C14.7372 2.03426 16.2583 2.69701 17.8574 3.82268C19.6896 5.11244 19.7533 7.66404 18.3926 9.44424V9.44424C17.65 10.4159 16.4978 11.1134 15.2851 11.2714C14.7421 11.3422 14.2069 11.4218 13.6796 11.5089C12.3497 11.7284 11.0659 10.9244 10.8137 9.60027V9.60027ZM1.99857 19.95C1.99857 18.2726 4.03283 16.4882 7.6017 15.1677V15.1677C8.85042 14.6682 10.2031 15.4305 10.6718 16.6911C10.8666 17.215 11.0728 17.744 11.2904 18.2755C11.7388 19.3709 11.7119 20.6619 11.2559 21.7541V21.7541C10.3868 23.8361 8.10507 25.072 6.07236 24.0931C3.47354 22.8416 1.99857 21.3603 1.99857 19.95ZM12.1699 37.5445C10.7066 36.688 10.207 34.047 10.8137 30.2997V30.2997C11.0034 28.9718 12.3532 28.1908 13.6773 28.406C14.206 28.4919 14.7426 28.5683 15.2871 28.636C16.4989 28.7867 17.6498 29.4836 18.3949 30.4511V30.4511C19.761 32.2251 19.7015 34.777 17.8727 36.0688C16.2823 37.1923 14.7564 37.8657 13.419 37.8657C12.955 37.8657 12.5267 37.7587 12.1699 37.5445ZM33.8686 30.2997C34.4753 34.047 33.9757 36.688 32.5124 37.5445C32.1555 37.7587 31.7273 37.8657 31.2633 37.8657C29.9451 37.8657 28.424 37.203 26.8248 36.0773C24.9926 34.7876 24.929 32.236 26.2897 30.4558V30.4558C27.0323 29.4841 28.1845 28.7866 29.3972 28.6286C29.9402 28.5578 30.4754 28.4782 31.0027 28.3911C32.3326 28.1716 33.6164 28.9756 33.8686 30.2997V30.2997ZM37.0806 24.7323V24.7323C35.8319 25.2318 34.4792 24.4695 34.0105 23.2089C33.8157 22.685 33.6095 22.156 33.3919 21.6244C32.9435 20.5291 32.9704 19.2381 33.4263 18.1459V18.1459C34.2955 16.0639 36.5772 14.828 38.6099 15.8069C41.2087 17.0583 42.6837 18.5397 42.6837 19.95C42.6837 21.6274 40.6138 23.4118 37.0806 24.7323Z" fill="#61DAFB"/>
</svg>
