<svg width="1440" height="710" viewBox="0 0 1440 710" fill="none" xmlns="http://www.w3.org/2000/svg">
<mask id="mask0_759_900" style="mask-type:alpha" maskUnits="userSpaceOnUse" x="0" y="0" width="1440" height="710">
<rect width="1440" height="710" fill="#D9D9D9"/>
</mask>
<g mask="url(#mask0_759_900)">
<path d="M1146 335L1151.4 349.598L1166 355L1151.4 360.402L1146 375L1140.6 360.402L1126 355L1140.6 349.598L1146 335Z" fill="white"/>
<path d="M1245 209L1247.7 216.299L1255 219L1247.7 221.701L1245 229L1242.3 221.701L1235 219L1242.3 216.299L1245 209Z" fill="white"/>
<path d="M1167 450L1169.7 457.299L1177 460L1169.7 462.701L1167 470L1164.3 462.701L1157 460L1164.3 457.299L1167 450Z" fill="white"/>
<path d="M216 567L218.701 574.299L226 577L218.701 579.701L216 587L213.299 579.701L206 577L213.299 574.299L216 567Z" fill="white"/>
<path d="M98 278L100.701 285.299L108 288L100.701 290.701L98 298L95.2991 290.701L88 288L95.2991 285.299L98 278Z" fill="white"/>
<path d="M478 186L483.402 200.598L498 206L483.402 211.402L478 226L472.598 211.402L458 206L472.598 200.598L478 186Z" fill="white"/>
</g>
</svg>
