<svg width="1440" height="715" viewBox="0 0 1440 715" fill="none" xmlns="http://www.w3.org/2000/svg">
<path d="M1144 278L1149.4 292.598L1164 298L1149.4 303.402L1144 318L1138.6 303.402L1124 298L1138.6 292.598L1144 278Z" fill="#203E5F"/>
<path d="M1245 209L1247.7 216.299L1255 219L1247.7 221.701L1245 229L1242.3 221.701L1235 219L1242.3 216.299L1245 209Z" fill="#203E5F"/>
<path d="M1167 450L1169.7 457.299L1177 460L1169.7 462.701L1167 470L1164.3 462.701L1157 460L1164.3 457.299L1167 450Z" fill="#203E5F"/>
<path d="M98 278L100.701 285.299L108 288L100.701 290.701L98 298L95.2991 290.701L88 288L95.2991 285.299L98 278Z" fill="#203E5F"/>
<path d="M455 219L460.402 233.598L475 239L460.402 244.402L455 259L449.598 244.402L435 239L449.598 233.598L455 219Z" fill="#203E5F"/>
</svg>
