<svg width="330" height="186" viewBox="0 0 330 186" fill="none" xmlns="http://www.w3.org/2000/svg">
<path d="M5 49L6.35045 52.6495L10 54L6.35045 55.3505L5 59L3.64955 55.3505L0 54L3.64955 52.6495L5 49Z" fill="#203E5F"/>
<path d="M310 0L311.35 3.64955L315 5L311.35 6.35045L310 10L308.65 6.35045L305 5L308.65 3.64955L310 0Z" fill="#203E5F"/>
<path d="M44 176L45.3505 179.65L49 181L45.3505 182.35L44 186L42.6495 182.35L39 181L42.6495 179.65L44 176Z" fill="#203E5F"/>
<path d="M320 64L322.701 71.2991L330 74L322.701 76.7009L320 84L317.299 76.7009L310 74L317.299 71.2991L320 64Z" fill="#203E5F"/>
<path d="M81.5 34L83.5257 39.4743L89 41.5L83.5257 43.5257L81.5 49L79.4743 43.5257L74 41.5L79.4743 39.4743L81.5 34Z" fill="#203E5F"/>
</svg>
