<svg width="351" height="314" viewBox="0 0 351 314" fill="none" xmlns="http://www.w3.org/2000/svg">
<circle cx="177.5" cy="163.5" r="150.5" fill="white"/>
<g filter="url(#filter0_d_244_8363)">
<circle cx="178" cy="164" r="43" fill="white"/>
</g>
<path d="M183.273 144L177.295 148.622L187.777 154.216V162.811L194 158.027V150.243L183.273 144Z" fill="#5E4BF5"/>
<path d="M194 175.784V164.27L187.777 169.054V180.568L194 175.784Z" fill="#5E4BF5"/>
<path d="M170.826 165.081L161 160.378V173.027L170.826 177.811V165.081Z" fill="#5E4BF5"/>
<path d="M182.045 157.541L161.082 147.405V154.297L175.985 161.514V180.081L182.045 183V157.541Z" fill="#5E4BF5"/>
<circle cx="177.5" cy="163.5" r="129.5" stroke="#1A2634" stroke-width="5" stroke-dasharray="2 2"/>
<g filter="url(#filter1_d_244_8363)">
<circle cx="226" cy="40" r="24" fill="white"/>
</g>
<g clip-path="url(#clip0_244_8363)">
<path d="M231.764 25.6563C231.737 24.6469 232.641 23.6907 233.809 23.7438C234.819 23.7969 235.669 24.6735 235.669 25.736C235.669 26.8251 234.766 27.6751 233.65 27.6485C232.588 27.6219 231.737 26.7454 231.764 25.6563ZM235.908 51.2891C236.997 51.2891 237.847 52.1391 237.847 53.2282C237.847 54.3173 236.97 55.1938 235.881 55.1938C234.819 55.1938 233.942 54.3173 233.942 53.2548C233.942 52.1391 234.819 51.2891 235.908 51.2891ZM210.939 43.3204C209.823 43.3204 209 42.4438 209 41.3282C209 40.2657 209.877 39.4157 210.966 39.4423C212.055 39.4423 212.905 40.3188 212.905 41.4344C212.878 42.4704 212.002 43.3204 210.939 43.3204ZM232.588 30.8626C232.588 29.9329 233.331 29.1891 234.261 29.1891C235.164 29.1891 235.908 29.9329 235.934 30.836C235.934 31.7391 235.191 32.5094 234.261 32.536C233.331 32.536 232.588 31.7923 232.588 30.8626ZM215.136 36.6532C216.066 36.6532 216.836 37.3969 216.836 38.3001C216.836 39.2032 216.066 39.9735 215.163 39.9735C214.233 39.9735 213.489 39.2298 213.489 38.3001C213.489 37.3969 214.206 36.6532 215.136 36.6532ZM238.591 33.1204C237.688 33.1204 236.917 32.3766 236.944 31.4735C236.944 30.5438 237.714 29.8001 238.617 29.8001C239.52 29.8266 240.264 30.5704 240.264 31.4735C240.291 32.4032 239.52 33.1204 238.591 33.1204ZM231.153 52.8032C230.223 52.8032 229.48 52.0329 229.48 51.1298C229.48 50.2266 230.223 49.4829 231.153 49.4563C232.056 49.4298 232.827 50.2266 232.827 51.1298C232.827 52.0329 232.056 52.8032 231.153 52.8032ZM215.163 34.236C215.163 35.1657 214.419 35.9094 213.489 35.8829C212.586 35.8829 211.842 35.1391 211.842 34.2094C211.842 33.3063 212.586 32.536 213.489 32.536C214.392 32.536 215.163 33.3063 215.163 34.236ZM228.417 56.2563C227.487 56.2563 226.77 55.5126 226.77 54.5829C226.77 53.6532 227.514 52.936 228.417 52.936C229.347 52.936 230.091 53.6798 230.091 54.6094C230.091 55.5391 229.347 56.2563 228.417 56.2563ZM223.503 51.9266C223.503 51.1298 224.141 50.5188 224.911 50.5188C225.708 50.5188 226.345 51.1829 226.319 51.9798C226.319 52.7766 225.681 53.3876 224.884 53.3876C224.114 53.3876 223.477 52.7501 223.503 51.9266ZM239.494 35.8563C239.494 36.6532 238.856 37.2907 238.059 37.2907C237.289 37.2907 236.652 36.6532 236.652 35.8563C236.652 35.0594 237.289 34.4219 238.086 34.4219C238.856 34.4219 239.494 35.0594 239.494 35.8563ZM218.961 32.5094C218.961 33.3063 218.323 33.9173 217.553 33.9173C216.756 33.9173 216.119 33.2798 216.145 32.4829C216.145 31.686 216.756 31.0751 217.553 31.0751C218.377 31.0751 218.988 31.686 218.961 32.5094ZM220.634 36.5735C220.634 37.3704 220.023 38.0079 219.227 38.0079C218.43 38.0079 217.792 37.3969 217.792 36.6001C217.792 35.7766 218.403 35.1657 219.227 35.1657C220.023 35.1657 220.634 35.7766 220.634 36.5735ZM215.561 28.7907C215.561 27.9938 216.198 27.3829 216.995 27.3829C217.792 27.3829 218.403 28.0204 218.403 28.8173C218.403 29.6141 217.792 30.2251 216.995 30.2516C216.172 30.2251 215.534 29.5876 215.561 28.7907ZM232.295 35.2454C232.295 34.4485 232.933 33.811 233.703 33.811C234.5 33.811 235.138 34.4485 235.138 35.2454C235.138 36.0423 234.5 36.6532 233.703 36.6532C232.906 36.6798 232.295 36.0423 232.295 35.2454ZM227.62 47.0391C228.391 47.0391 229.028 47.6766 229.028 48.4735C229.028 49.2704 228.391 49.9079 227.594 49.8813C226.797 49.8813 226.186 49.2438 226.186 48.4469C226.186 47.6766 226.823 47.0391 227.62 47.0391ZM223.423 54.3173C223.423 55.1141 222.812 55.7251 222.016 55.7251C221.219 55.7251 220.581 55.0876 220.581 54.3173C220.581 53.5204 221.219 52.8829 222.016 52.8829C222.812 52.8829 223.423 53.5204 223.423 54.3173ZM241.539 38.6188C240.769 38.6188 240.131 37.9548 240.131 37.211C240.131 36.4141 240.795 35.7766 241.592 35.7766C242.362 35.7766 243.027 36.4407 243 37.211C243 37.9813 242.336 38.6188 241.539 38.6188ZM223.716 49.0844C223.716 49.7485 223.158 50.3063 222.494 50.3063C221.803 50.3063 221.272 49.7485 221.272 49.0844C221.272 48.3938 221.83 47.8626 222.52 47.8626C223.184 47.8626 223.716 48.3938 223.716 49.0844ZM221.272 30.6235C221.963 30.6235 222.494 31.1548 222.494 31.8454C222.494 32.5094 221.936 33.0673 221.272 33.0673C220.608 33.0673 220.023 32.5094 220.05 31.8188C220.05 31.1813 220.608 30.6235 221.272 30.6235ZM223.981 45.6048C223.981 44.9141 224.513 44.3829 225.177 44.3829C225.867 44.3829 226.425 44.9141 226.425 45.6048C226.425 46.2688 225.894 46.8266 225.203 46.8266C224.512 46.8001 223.981 46.2954 223.981 45.6048ZM219.598 52.6438C218.908 52.6438 218.35 52.1126 218.35 51.4485C218.35 50.7844 218.881 50.2266 219.572 50.2266C220.262 50.2266 220.82 50.7579 220.794 51.4485C220.794 52.1126 220.289 52.6438 219.598 52.6438ZM233.623 38.8048C233.623 39.4688 233.092 40.0001 232.428 40.0001C231.737 40.0001 231.206 39.4688 231.206 38.7782C231.206 38.0876 231.737 37.5563 232.428 37.5563C233.119 37.5563 233.623 38.0876 233.623 38.8048ZM220.661 29.3485C219.97 29.3485 219.439 28.8438 219.439 28.1532C219.439 27.4626 219.997 26.9048 220.661 26.9048C221.325 26.9048 221.883 27.4626 221.883 28.1266C221.883 28.8173 221.352 29.3485 220.661 29.3485ZM236.784 40.5844C236.094 40.5844 235.589 40.0532 235.589 39.3626C235.589 38.6985 236.12 38.1673 236.811 38.1407C237.502 38.1407 238.033 38.6719 238.006 39.3891C238.006 40.1063 237.475 40.611 236.784 40.5844ZM222.892 37.1313C222.228 37.1313 221.697 36.5735 221.697 35.9094C221.697 35.2454 222.281 34.7141 222.945 34.7141C223.609 34.7141 224.141 35.2719 224.141 35.936C224.141 36.6001 223.583 37.1313 222.892 37.1313ZM240.264 41.9391C239.573 41.9126 239.042 41.3548 239.069 40.6641C239.095 40.0001 239.653 39.4688 240.317 39.4954C241.008 39.5219 241.539 40.0798 241.513 40.7969C241.486 41.461 240.928 41.9657 240.264 41.9391ZM226.106 37.1313C225.522 37.1313 225.07 36.6798 225.07 36.0954C225.07 35.511 225.548 35.0594 226.133 35.0594C226.717 35.0594 227.169 35.511 227.169 36.0954C227.142 36.6798 226.691 37.1313 226.106 37.1313ZM237.502 43.4001C237.502 42.8157 237.953 42.3641 238.537 42.3376C239.122 42.3376 239.573 42.7891 239.573 43.3735C239.573 43.9579 239.069 44.4891 238.537 44.4626C237.98 44.4626 237.528 43.9844 237.502 43.4001ZM224.884 28.3126C224.884 28.8969 224.433 29.3485 223.848 29.3485C223.264 29.3485 222.812 28.8704 222.812 28.286C222.812 27.7016 223.291 27.2501 223.902 27.2501C224.459 27.2766 224.884 27.7282 224.884 28.3126ZM224.778 42.7626C224.778 43.3469 224.327 43.7985 223.769 43.7985C223.158 43.7985 222.706 43.3469 222.706 42.7626C222.706 42.1782 223.158 41.7266 223.742 41.7266C224.327 41.7001 224.778 42.1516 224.778 42.7626ZM221.059 47.2516C220.475 47.2516 219.997 46.8001 219.997 46.2157C219.997 45.6313 220.475 45.1532 221.059 45.1532C221.617 45.1532 222.095 45.6313 222.095 46.1891C222.095 46.8001 221.644 47.2516 221.059 47.2516ZM236.094 42.0719C236.094 42.6829 235.642 43.1079 235.058 43.1079C234.5 43.1079 234.022 42.6032 234.022 42.0454C234.022 41.461 234.5 41.0094 235.084 41.0094C235.642 41.0094 236.094 41.4876 236.094 42.0719ZM230.702 40.4251C231.312 40.4251 231.737 40.8501 231.737 41.461C231.737 42.0454 231.286 42.5235 230.702 42.4969C230.117 42.4969 229.639 42.0188 229.639 41.461C229.639 40.8766 230.091 40.4251 230.702 40.4251ZM219.173 48.5798C219.173 49.1641 218.695 49.6157 218.138 49.6157C217.553 49.6157 217.102 49.1641 217.102 48.5798C217.102 47.9954 217.58 47.5173 218.138 47.5173C218.695 47.5438 219.173 48.0219 219.173 48.5798ZM224.459 33.0407C223.875 33.0407 223.423 32.5891 223.423 32.0048C223.423 31.4469 223.902 30.9688 224.486 30.9423C225.044 30.9157 225.522 31.4204 225.522 32.0048C225.495 32.5891 225.044 33.0407 224.459 33.0407ZM233.995 43.9313C233.995 44.436 233.597 44.861 233.092 44.861C232.587 44.861 232.216 44.4626 232.216 43.9579C232.216 43.4532 232.614 43.0548 233.092 43.0548C233.597 43.0548 233.995 43.4532 233.995 43.9313ZM223.981 40.1329C223.981 40.6376 223.583 41.036 223.078 41.036C222.627 41.036 222.175 40.5844 222.175 40.1329C222.175 39.6548 222.6 39.2032 223.105 39.2298C223.583 39.2298 223.981 39.6282 223.981 40.1329ZM217.5 45.0735C218.005 45.0735 218.403 45.4719 218.377 45.9766C218.377 46.4548 217.952 46.8798 217.473 46.8798C216.969 46.8532 216.57 46.4282 216.57 45.9501C216.57 45.4188 216.969 45.0469 217.5 45.0735ZM228.709 37.7157C228.205 37.7157 227.806 37.3438 227.806 36.8391C227.806 36.3344 228.178 35.936 228.709 35.936C229.214 35.936 229.612 36.3344 229.612 36.8126C229.612 37.3173 229.214 37.7157 228.709 37.7157ZM227.062 31.8454C227.567 31.8454 227.939 32.2438 227.939 32.7485C227.939 33.2532 227.541 33.6516 227.036 33.6516C226.531 33.6516 226.133 33.2532 226.133 32.7219C226.159 32.2438 226.558 31.8454 227.062 31.8454ZM221.272 43.586C221.272 44.0907 220.873 44.4891 220.395 44.5157C219.917 44.5157 219.492 44.0641 219.492 43.586C219.492 43.0813 219.891 42.7094 220.395 42.7094C220.9 42.7094 221.272 43.0813 221.272 43.586ZM228.763 42.4704C229.267 42.4704 229.639 42.8688 229.639 43.3735C229.639 43.8782 229.241 44.2501 228.736 44.2501C228.205 44.2501 227.833 43.8516 227.833 43.3469C227.859 42.8423 228.258 42.4438 228.763 42.4704ZM237.502 45.2594C237.502 45.7907 237.13 46.1891 236.598 46.1626C236.094 46.1626 235.722 45.7641 235.695 45.2594C235.695 44.7813 236.094 44.3563 236.572 44.3563C237.077 44.3829 237.502 44.7813 237.502 45.2594ZM226.478 28.1532C226.983 28.1532 227.355 28.5251 227.355 29.0298C227.355 29.5344 226.956 29.9329 226.478 29.9329C225.973 29.9329 225.575 29.5344 225.575 29.0298C225.575 28.5251 225.973 28.1532 226.478 28.1532ZM229.241 30.1719C229.241 30.5969 228.895 30.9423 228.444 30.9157C228.019 30.9157 227.7 30.5704 227.7 30.1454C227.7 29.7204 228.045 29.3751 228.47 29.3751C228.922 29.4016 229.267 29.7469 229.241 30.1719ZM216.677 43.6126C216.677 43.1876 217.022 42.8688 217.447 42.8688C217.872 42.8688 218.244 43.2407 218.217 43.6657C218.191 44.0907 217.845 44.436 217.447 44.436C216.995 44.4094 216.65 44.0641 216.677 43.6126ZM235.403 46.4548C235.403 46.9063 235.058 47.2516 234.633 47.2516C234.208 47.2516 233.836 46.9063 233.836 46.4813C233.836 46.0563 234.181 45.711 234.633 45.711C235.058 45.711 235.377 46.0298 235.403 46.4548ZM221.112 41.3016C221.112 41.7266 220.767 42.0719 220.342 42.0719C219.917 42.0719 219.572 41.7001 219.572 41.2751C219.572 40.8501 219.944 40.5313 220.342 40.5313C220.767 40.5313 221.112 40.8501 221.112 41.3016ZM229.055 34.6344C228.603 34.6344 228.284 34.2891 228.284 33.8641C228.284 33.4391 228.63 33.1204 229.055 33.1204C229.506 33.1204 229.825 33.4391 229.825 33.8907C229.852 34.3157 229.533 34.6344 229.055 34.6344ZM231.127 44.3829C231.552 44.3829 231.87 44.7016 231.87 45.1532C231.87 45.6048 231.525 45.9501 231.073 45.9501C230.648 45.9501 230.33 45.6048 230.33 45.1798C230.356 44.7016 230.702 44.3829 231.127 44.3829ZM218.483 41.7266C218.483 42.0985 218.191 42.3907 217.819 42.3907C217.473 42.3907 217.128 42.0719 217.155 41.7001C217.155 41.3282 217.473 41.036 217.845 41.036C218.217 41.0626 218.509 41.3548 218.483 41.7266ZM233.411 47.0923C233.411 47.4641 233.119 47.7563 232.747 47.7563C232.402 47.7563 232.083 47.4376 232.083 47.0923C232.083 46.7204 232.402 46.4282 232.773 46.4282C233.145 46.4282 233.411 46.7204 233.411 47.0923ZM229.931 30.836C230.33 30.836 230.622 31.1016 230.622 31.5001C230.622 31.8719 230.33 32.1641 229.958 32.1641C229.586 32.1641 229.294 31.8985 229.294 31.5266C229.267 31.1016 229.533 30.836 229.931 30.836Z" fill="#203E5F"/>
</g>
<g filter="url(#filter2_d_244_8363)">
<circle cx="307" cy="149" r="24" fill="white"/>
</g>
<path d="M308.35 161.35C310.2 161.16 311.865 160.4 313.345 158.88C315.01 157.17 315.75 154.89 315.75 152.8C315.75 152.23 315.38 151.85 314.825 151.85C312.605 151.85 310.57 152.61 308.905 154.32L308.35 154.89" stroke="#203E5F" stroke-miterlimit="10"/>
<path d="M304.28 161.35C302.43 161.16 300.765 160.4 299.285 158.88C297.62 157.17 296.88 154.89 296.88 152.8C296.88 152.23 297.25 151.85 297.805 151.85C300.025 151.85 302.06 152.61 303.725 154.32L304.28 154.89" stroke="#203E5F" stroke-miterlimit="10" stroke-linecap="round" stroke-linejoin="round"/>
<path d="M308.535 150.9C310.015 150.71 311.31 149.95 312.42 148.81C313.715 147.48 314.455 145.77 314.455 143.87C314.455 143.3 313.9 142.73 313.345 142.73C311.68 142.73 309.83 143.49 308.535 144.82C307.425 145.96 306.87 147.29 306.5 148.81M304.465 150.9C302.985 150.71 301.69 149.95 300.58 148.81C299.285 147.48 298.545 145.77 298.545 144.06C298.545 143.3 299.1 142.92 299.655 142.92C301.32 142.92 303.17 143.68 304.465 145.01C305.575 146.15 306.13 147.48 306.5 149M302.8 138.74C303.355 140.64 304.65 141.97 306.13 142.92C306.5 143.11 307.055 142.92 307.24 142.54C307.98 141.02 308.35 139.12 307.795 137.22C307.24 135.32 305.945 133.99 304.465 133.04C304.095 132.85 303.54 133.04 303.355 133.42C302.43 134.94 302.245 136.84 302.8 138.74Z" stroke="#203E5F" stroke-miterlimit="10"/>
<path d="M308.35 163.25C308.35 164.39 307.61 165.15 306.5 165.15C305.39 165.15 304.65 164.39 304.65 163.25V149.95C304.65 148.81 305.39 148.05 306.5 148.05C307.61 148.05 308.35 148.81 308.35 149.95V163.25Z" stroke="#203E5F" stroke-miterlimit="10"/>
<path d="M308.35 163.25C308.35 164.39 307.61 165.15 306.5 165.15C305.39 165.15 304.65 164.39 304.65 163.25V149.95C304.65 148.81 305.39 148.05 306.5 148.05C307.61 148.05 308.35 148.81 308.35 149.95V163.25Z" stroke="#203E5F" stroke-miterlimit="10"/>
<g filter="url(#filter3_d_244_8363)">
<circle cx="44" cy="215" r="24" fill="white"/>
</g>
<path d="M44.2801 230.646V230.88H41.7607L41.2459 228.961C41.1807 228.727 41.0623 228.511 40.9 228.329C40.7377 228.148 40.5357 228.007 40.3099 227.916C39.5536 227.613 38.8444 227.203 38.2039 226.699C38.0125 226.549 37.7891 226.445 37.5511 226.395C37.313 226.345 37.0667 226.35 36.8311 226.411L34.9123 226.926L33.1729 223.915L34.5769 222.511C34.7476 222.337 34.8759 222.127 34.9517 221.895C35.0275 221.664 35.0487 221.418 35.0137 221.177C34.9521 220.774 34.9208 220.368 34.9201 219.96V219.18H35.7001C35.8038 219.181 35.9064 219.202 36.0018 219.243C36.0973 219.284 36.1838 219.343 36.2563 219.417C36.3288 219.491 36.3859 219.579 36.4243 219.676C36.4627 219.772 36.4816 219.875 36.4801 219.979C36.4805 220.304 36.5066 220.629 36.5581 220.951C36.628 221.433 36.5847 221.925 36.4318 222.388C36.2788 222.851 36.0203 223.272 35.6767 223.618L35.1229 224.172L35.6689 225.108L36.4255 224.905C36.8948 224.783 37.3862 224.77 37.8612 224.869C38.3361 224.968 38.7818 225.175 39.1633 225.475C39.6898 225.882 40.2698 226.216 40.8871 226.465C41.3391 226.645 41.7431 226.927 42.0668 227.29C42.3905 227.653 42.6248 228.086 42.7513 228.556L42.9541 229.32C43.1282 229.32 43.3006 229.354 43.4615 229.421C43.6224 229.488 43.7685 229.585 43.8917 229.709C44.0148 229.832 44.1125 229.978 44.1791 230.139C44.2458 230.3 44.2801 230.472 44.2801 230.646Z" fill="#C7CDE8"/>
<path d="M55.2001 220.74C56.8221 220.688 58.3648 220.026 59.5202 218.886C60.6756 217.747 61.3588 216.213 61.4333 214.592C61.5078 212.971 60.9682 211.382 59.9222 210.141C58.8763 208.9 57.4008 208.099 55.7904 207.899C55.9169 207.35 55.9805 206.789 55.9801 206.227C56.0071 204.336 55.2833 202.512 53.9673 201.154C52.6514 199.796 50.8507 199.016 48.9601 198.983C47.5412 198.986 46.1581 199.429 45.0022 200.252C44.2248 199.121 43.1858 198.195 41.9737 197.553C40.7615 196.91 39.4121 196.569 38.0401 196.56C35.7287 196.6 33.5275 197.555 31.9191 199.216C30.3107 200.876 29.4264 203.107 29.4601 205.418C29.4592 206.357 29.6046 207.289 29.8912 208.182C28.4682 208.679 27.2636 209.658 26.4861 210.949C25.7085 212.241 25.4069 213.763 25.6335 215.254C25.86 216.744 26.6004 218.108 27.7265 219.11C28.8527 220.112 30.2937 220.688 31.8001 220.74H33.3952C33.4137 220.961 33.4379 221.184 33.4724 221.41L32.0709 222.808C31.828 223.051 31.6719 223.367 31.6269 223.708C31.5819 224.049 31.6504 224.395 31.8218 224.693L33.5624 227.707C33.7346 228.005 34 228.237 34.3176 228.369C34.6352 228.5 34.9872 228.523 35.3192 228.434L37.2357 227.925C37.9958 228.524 38.8395 229.008 39.7399 229.362L40.2521 231.283C40.3413 231.615 40.5373 231.908 40.8097 232.117C41.0821 232.326 41.4158 232.44 41.7592 232.44H45.241C45.5846 232.44 45.9184 232.326 46.1909 232.117C46.4634 231.907 46.6593 231.614 46.7485 231.282L47.2672 229.367C48.1656 229.008 49.0067 228.52 49.7637 227.918L51.6821 228.434C52.0139 228.523 52.3657 228.499 52.683 228.368C53.0003 228.237 53.2656 228.005 53.4379 227.707L55.1784 224.693C55.3499 224.395 55.4184 224.049 55.3733 223.708C55.3283 223.367 55.1722 223.051 54.9293 222.808L53.5319 221.403C53.5645 221.181 53.5878 220.96 53.6057 220.74H55.2001ZM27.1201 214.305C27.0984 213.167 27.4827 212.058 28.2042 211.177C28.9258 210.296 29.9374 209.701 31.0578 209.498C31.1747 209.478 31.2857 209.433 31.3823 209.364C31.4788 209.295 31.5584 209.205 31.6151 209.101C31.6717 208.997 31.7038 208.881 31.709 208.763C31.7142 208.644 31.6924 208.526 31.6451 208.417C31.232 207.472 31.0192 206.451 31.0201 205.418C30.9861 203.521 31.7059 201.687 33.0218 200.318C34.3377 198.95 36.1423 198.16 38.0401 198.12C39.2896 198.133 40.5128 198.48 41.5828 199.125C42.6528 199.77 43.5305 200.69 44.1247 201.79C44.182 201.893 44.262 201.982 44.3588 202.05C44.4556 202.118 44.5666 202.164 44.6834 202.182C44.8002 202.201 44.9198 202.193 45.033 202.159C45.1462 202.125 45.2502 202.065 45.337 201.985C46.3193 201.064 47.6137 200.549 48.9601 200.543C50.4371 200.575 51.8411 201.191 52.8646 202.257C53.8881 203.322 54.4474 204.75 54.4201 206.227C54.4208 206.966 54.2811 207.7 54.0084 208.387C53.9595 208.511 53.943 208.645 53.9604 208.777C53.9778 208.908 54.0285 209.034 54.1078 209.14C54.1859 209.248 54.291 209.334 54.4126 209.388C54.5342 209.443 54.668 209.465 54.8006 209.451C54.9327 209.44 55.0653 209.43 55.2001 209.43C56.4586 209.481 57.6485 210.018 58.5207 210.926C59.393 211.835 59.8801 213.046 59.8801 214.305C59.8801 215.565 59.393 216.775 58.5207 217.684C57.6485 218.593 56.4586 219.129 55.2001 219.18H53.605C53.5865 218.959 53.5623 218.736 53.5278 218.511L54.9293 217.112C55.1722 216.869 55.3283 216.553 55.3733 216.212C55.4184 215.871 55.3499 215.525 55.1784 215.227L53.4379 212.213C53.2655 211.915 53.0001 211.683 52.6827 211.552C52.3652 211.42 52.0133 211.397 51.6814 211.486L49.7648 211.995C49.0049 211.396 48.1611 210.912 47.2603 210.559L46.7481 208.637C46.659 208.305 46.4631 208.012 46.1906 207.803C45.9182 207.594 45.5844 207.48 45.241 207.48H41.7592C41.4156 207.481 41.0817 207.594 40.8092 207.804C40.5366 208.013 40.3407 208.306 40.2517 208.638L39.7334 210.554C38.8347 210.912 37.9933 211.4 37.2361 212.002L35.3189 211.486C34.9869 211.397 34.6349 211.42 34.3174 211.552C33.9999 211.683 33.7345 211.915 33.5624 212.213L31.8218 215.227C31.6504 215.525 31.5819 215.871 31.6269 216.212C31.6719 216.553 31.828 216.869 32.0709 217.112L33.4683 218.517C33.4357 218.739 33.4125 218.96 33.3945 219.18H31.8001C30.5337 219.152 29.3299 218.624 28.4526 217.71C27.5754 216.796 27.0962 215.572 27.1201 214.305ZM53.8271 223.913L52.087 226.927L50.1682 226.411C49.9336 226.348 49.6874 226.341 49.4497 226.391C49.212 226.441 48.9894 226.547 48.8001 226.699C48.158 227.204 47.447 227.614 46.6887 227.918C46.4625 228.007 46.2602 228.147 46.0978 228.328C45.9353 228.509 45.8173 228.725 45.7529 228.96L45.241 230.88H41.7592L41.2469 228.959C41.1827 228.725 41.0649 228.509 40.9029 228.328C40.7409 228.148 40.5391 228.007 40.3135 227.918C39.5544 227.615 38.8427 227.204 38.2001 226.699C38.0104 226.547 37.7876 226.442 37.5496 226.392C37.3117 226.342 37.0654 226.348 36.8305 226.411L34.9136 226.927L33.1731 223.913L34.574 222.515C34.7459 222.341 34.875 222.129 34.951 221.897C35.027 221.665 35.0477 221.418 35.0115 221.176C34.8896 220.37 34.8896 219.55 35.0115 218.744C35.0476 218.502 35.027 218.255 34.9511 218.023C34.8753 217.791 34.7464 217.58 34.5747 217.406L33.1731 216.007L34.9136 212.993L36.8297 213.508C37.0647 213.572 37.3114 213.579 37.5496 213.529C37.7879 213.479 38.0109 213.374 38.2005 213.221C38.8428 212.716 39.5541 212.306 40.3127 212.003C40.5386 211.913 40.7405 211.772 40.9027 211.592C41.0649 211.411 41.1829 211.195 41.2473 210.96L41.7592 209.04L45.241 209.04L45.7533 210.962C45.8178 211.195 45.9357 211.411 46.0977 211.592C46.2598 211.772 46.4615 211.913 46.6871 212.002C47.446 212.306 48.1576 212.716 48.8001 213.221C48.9898 213.373 49.2125 213.479 49.4504 213.528C49.6883 213.578 49.9346 213.572 50.1693 213.509L52.0866 212.993L53.8271 216.007L52.4263 217.405C52.2543 217.579 52.1252 217.791 52.0492 218.023C51.9733 218.256 51.9525 218.502 51.9887 218.744C52.1106 219.551 52.1106 220.37 51.9887 221.177C51.9526 221.418 51.9733 221.665 52.0491 221.897C52.1249 222.129 52.2538 222.34 52.4256 222.514L53.8271 223.913Z" fill="#123757"/>
<path d="M33.3601 206.198C33.567 206.198 33.7654 206.116 33.9117 205.97C34.0579 205.824 34.1401 205.625 34.1401 205.418C34.1197 204.362 34.5187 203.341 35.2497 202.579C35.9808 201.817 36.9842 201.375 38.0401 201.352C38.247 201.352 38.4454 201.269 38.5917 201.123C38.7379 200.977 38.8201 200.778 38.8201 200.572C38.8201 200.365 38.7379 200.166 38.5917 200.02C38.4454 199.874 38.247 199.792 38.0401 199.792C36.5706 199.816 35.1705 200.421 34.147 201.476C33.1235 202.531 32.56 203.949 32.5801 205.418C32.5801 205.625 32.6623 205.824 32.8086 205.97C32.9548 206.116 33.1532 206.198 33.3601 206.198Z" fill="#123757"/>
<path d="M48.6271 218.469L41.862 215.266C41.6106 215.147 41.3331 215.093 41.0554 215.11C40.7777 215.127 40.5088 215.214 40.2737 215.362C40.0386 215.511 39.845 215.717 39.7108 215.961C39.5766 216.204 39.5063 216.478 39.5064 216.756V223.164C39.5058 223.442 39.5758 223.716 39.7098 223.96C39.8438 224.204 40.0374 224.41 40.2726 224.559C40.5078 224.708 40.7769 224.795 41.0548 224.812C41.3327 224.828 41.6102 224.774 41.8616 224.655L48.6271 221.452L48.6275 221.451C48.9099 221.317 49.1485 221.106 49.3156 220.842C49.4827 220.578 49.5714 220.272 49.5713 219.96C49.5713 219.647 49.4825 219.341 49.3154 219.077C49.1482 218.813 48.9095 218.602 48.6271 218.469Z" fill="#203E5F"/>
<defs>
<filter id="filter0_d_244_8363" x="115" y="109" width="126" height="126" filterUnits="userSpaceOnUse" color-interpolation-filters="sRGB">
<feFlood flood-opacity="0" result="BackgroundImageFix"/>
<feColorMatrix in="SourceAlpha" type="matrix" values="0 0 0 0 0 0 0 0 0 0 0 0 0 0 0 0 0 0 127 0" result="hardAlpha"/>
<feOffset dy="8"/>
<feGaussianBlur stdDeviation="10"/>
<feComposite in2="hardAlpha" operator="out"/>
<feColorMatrix type="matrix" values="0 0 0 0 0 0 0 0 0 0 0 0 0 0 0 0 0 0 0.09 0"/>
<feBlend mode="normal" in2="BackgroundImageFix" result="effect1_dropShadow_244_8363"/>
<feBlend mode="normal" in="SourceGraphic" in2="effect1_dropShadow_244_8363" result="shape"/>
</filter>
<filter id="filter1_d_244_8363" x="182" y="0" width="88" height="88" filterUnits="userSpaceOnUse" color-interpolation-filters="sRGB">
<feFlood flood-opacity="0" result="BackgroundImageFix"/>
<feColorMatrix in="SourceAlpha" type="matrix" values="0 0 0 0 0 0 0 0 0 0 0 0 0 0 0 0 0 0 127 0" result="hardAlpha"/>
<feOffset dy="4"/>
<feGaussianBlur stdDeviation="10"/>
<feComposite in2="hardAlpha" operator="out"/>
<feColorMatrix type="matrix" values="0 0 0 0 0 0 0 0 0 0 0 0 0 0 0 0 0 0 0.12 0"/>
<feBlend mode="normal" in2="BackgroundImageFix" result="effect1_dropShadow_244_8363"/>
<feBlend mode="normal" in="SourceGraphic" in2="effect1_dropShadow_244_8363" result="shape"/>
</filter>
<filter id="filter2_d_244_8363" x="263" y="109" width="88" height="88" filterUnits="userSpaceOnUse" color-interpolation-filters="sRGB">
<feFlood flood-opacity="0" result="BackgroundImageFix"/>
<feColorMatrix in="SourceAlpha" type="matrix" values="0 0 0 0 0 0 0 0 0 0 0 0 0 0 0 0 0 0 127 0" result="hardAlpha"/>
<feOffset dy="4"/>
<feGaussianBlur stdDeviation="10"/>
<feComposite in2="hardAlpha" operator="out"/>
<feColorMatrix type="matrix" values="0 0 0 0 0 0 0 0 0 0 0 0 0 0 0 0 0 0 0.12 0"/>
<feBlend mode="normal" in2="BackgroundImageFix" result="effect1_dropShadow_244_8363"/>
<feBlend mode="normal" in="SourceGraphic" in2="effect1_dropShadow_244_8363" result="shape"/>
</filter>
<filter id="filter3_d_244_8363" x="0" y="175" width="88" height="88" filterUnits="userSpaceOnUse" color-interpolation-filters="sRGB">
<feFlood flood-opacity="0" result="BackgroundImageFix"/>
<feColorMatrix in="SourceAlpha" type="matrix" values="0 0 0 0 0 0 0 0 0 0 0 0 0 0 0 0 0 0 127 0" result="hardAlpha"/>
<feOffset dy="4"/>
<feGaussianBlur stdDeviation="10"/>
<feComposite in2="hardAlpha" operator="out"/>
<feColorMatrix type="matrix" values="0 0 0 0 0 0 0 0 0 0 0 0 0 0 0 0 0 0 0.12 0"/>
<feBlend mode="normal" in2="BackgroundImageFix" result="effect1_dropShadow_244_8363"/>
<feBlend mode="normal" in="SourceGraphic" in2="effect1_dropShadow_244_8363" result="shape"/>
</filter>
<clipPath id="clip0_244_8363">
<rect width="34" height="34" fill="white" transform="translate(209 23)"/>
</clipPath>
</defs>
</svg>
