<svg width="351" height="314" viewBox="0 0 351 314" fill="none" xmlns="http://www.w3.org/2000/svg">
<circle cx="177.5" cy="163.5" r="150.5" fill="white"/>
<g filter="url(#filter0_d_6_21)">
<circle cx="178" cy="164" r="43" fill="white"/>
</g>
<path d="M183.273 144L177.295 148.622L187.777 154.216V162.811L194 158.027V150.243L183.273 144Z" fill="#5E4BF5"/>
<path d="M194 175.784V164.27L187.777 169.054V180.568L194 175.784Z" fill="#5E4BF5"/>
<path d="M170.826 165.081L161 160.378V173.027L170.826 177.811V165.081Z" fill="#5E4BF5"/>
<path d="M182.045 157.541L161.082 147.405V154.297L175.985 161.514V180.081L182.045 183V157.541Z" fill="#5E4BF5"/>
<circle cx="177.5" cy="163.5" r="129.5" stroke="#FFCEF4" stroke-width="5" stroke-dasharray="2 2"/>
<g filter="url(#filter1_d_6_21)">
<circle cx="226" cy="40" r="24" fill="white"/>
</g>
<g clip-path="url(#clip0_6_21)">
<path d="M231.764 25.6563C231.737 24.6469 232.641 23.6906 233.809 23.7438C234.819 23.7969 235.669 24.6734 235.669 25.7359C235.669 26.825 234.766 27.675 233.65 27.6484C232.588 27.6219 231.737 26.7453 231.764 25.6563ZM235.908 51.2891C236.997 51.2891 237.847 52.1391 237.847 53.2281C237.847 54.3172 236.97 55.1938 235.881 55.1938C234.819 55.1938 233.942 54.3172 233.942 53.2547C233.942 52.1391 234.819 51.2891 235.908 51.2891ZM210.939 43.3203C209.823 43.3203 209 42.4438 209 41.3281C209 40.2656 209.877 39.4156 210.966 39.4422C212.055 39.4422 212.905 40.3188 212.905 41.4344C212.878 42.4703 212.002 43.3203 210.939 43.3203ZM232.588 30.8625C232.588 29.9328 233.331 29.1891 234.261 29.1891C235.164 29.1891 235.908 29.9328 235.934 30.8359C235.934 31.7391 235.191 32.5094 234.261 32.5359C233.331 32.5359 232.588 31.7922 232.588 30.8625ZM215.136 36.6531C216.066 36.6531 216.836 37.3969 216.836 38.3C216.836 39.2031 216.066 39.9734 215.163 39.9734C214.233 39.9734 213.489 39.2297 213.489 38.3C213.489 37.3969 214.206 36.6531 215.136 36.6531ZM238.591 33.1203C237.688 33.1203 236.917 32.3766 236.944 31.4734C236.944 30.5438 237.714 29.8 238.617 29.8C239.52 29.8266 240.264 30.5703 240.264 31.4734C240.291 32.4031 239.52 33.1203 238.591 33.1203ZM231.153 52.8031C230.223 52.8031 229.48 52.0328 229.48 51.1297C229.48 50.2266 230.223 49.4828 231.153 49.4563C232.056 49.4297 232.827 50.2266 232.827 51.1297C232.827 52.0328 232.056 52.8031 231.153 52.8031ZM215.163 34.2359C215.163 35.1656 214.419 35.9094 213.489 35.8828C212.586 35.8828 211.842 35.1391 211.842 34.2094C211.842 33.3063 212.586 32.5359 213.489 32.5359C214.392 32.5359 215.163 33.3063 215.163 34.2359ZM228.417 56.2563C227.487 56.2563 226.77 55.5125 226.77 54.5828C226.77 53.6531 227.514 52.9359 228.417 52.9359C229.347 52.9359 230.091 53.6797 230.091 54.6094C230.091 55.5391 229.347 56.2563 228.417 56.2563ZM223.503 51.9266C223.503 51.1297 224.141 50.5188 224.911 50.5188C225.708 50.5188 226.345 51.1828 226.319 51.9797C226.319 52.7766 225.681 53.3875 224.884 53.3875C224.114 53.3875 223.477 52.75 223.503 51.9266ZM239.494 35.8563C239.494 36.6531 238.856 37.2906 238.059 37.2906C237.289 37.2906 236.652 36.6531 236.652 35.8563C236.652 35.0594 237.289 34.4219 238.086 34.4219C238.856 34.4219 239.494 35.0594 239.494 35.8563ZM218.961 32.5094C218.961 33.3063 218.323 33.9172 217.553 33.9172C216.756 33.9172 216.119 33.2797 216.145 32.4828C216.145 31.6859 216.756 31.075 217.553 31.075C218.377 31.075 218.988 31.6859 218.961 32.5094ZM220.634 36.5734C220.634 37.3703 220.023 38.0078 219.227 38.0078C218.43 38.0078 217.792 37.3969 217.792 36.6C217.792 35.7766 218.403 35.1656 219.227 35.1656C220.023 35.1656 220.634 35.7766 220.634 36.5734ZM215.561 28.7906C215.561 27.9938 216.198 27.3828 216.995 27.3828C217.792 27.3828 218.403 28.0203 218.403 28.8172C218.403 29.6141 217.792 30.225 216.995 30.2516C216.172 30.225 215.534 29.5875 215.561 28.7906ZM232.295 35.2453C232.295 34.4484 232.933 33.8109 233.703 33.8109C234.5 33.8109 235.138 34.4484 235.138 35.2453C235.138 36.0422 234.5 36.6531 233.703 36.6531C232.906 36.6797 232.295 36.0422 232.295 35.2453ZM227.62 47.0391C228.391 47.0391 229.028 47.6766 229.028 48.4734C229.028 49.2703 228.391 49.9078 227.594 49.8813C226.797 49.8813 226.186 49.2438 226.186 48.4469C226.186 47.6766 226.823 47.0391 227.62 47.0391ZM223.423 54.3172C223.423 55.1141 222.812 55.725 222.016 55.725C221.219 55.725 220.581 55.0875 220.581 54.3172C220.581 53.5203 221.219 52.8828 222.016 52.8828C222.812 52.8828 223.423 53.5203 223.423 54.3172ZM241.539 38.6188C240.769 38.6188 240.131 37.9547 240.131 37.2109C240.131 36.4141 240.795 35.7766 241.592 35.7766C242.362 35.7766 243.027 36.4406 243 37.2109C243 37.9813 242.336 38.6188 241.539 38.6188ZM223.716 49.0844C223.716 49.7484 223.158 50.3063 222.494 50.3063C221.803 50.3063 221.272 49.7484 221.272 49.0844C221.272 48.3938 221.83 47.8625 222.52 47.8625C223.184 47.8625 223.716 48.3938 223.716 49.0844ZM221.272 30.6234C221.963 30.6234 222.494 31.1547 222.494 31.8453C222.494 32.5094 221.936 33.0672 221.272 33.0672C220.608 33.0672 220.023 32.5094 220.05 31.8188C220.05 31.1813 220.608 30.6234 221.272 30.6234ZM223.981 45.6047C223.981 44.9141 224.513 44.3828 225.177 44.3828C225.867 44.3828 226.425 44.9141 226.425 45.6047C226.425 46.2688 225.894 46.8266 225.203 46.8266C224.512 46.8 223.981 46.2953 223.981 45.6047ZM219.598 52.6438C218.908 52.6438 218.35 52.1125 218.35 51.4484C218.35 50.7844 218.881 50.2266 219.572 50.2266C220.262 50.2266 220.82 50.7578 220.794 51.4484C220.794 52.1125 220.289 52.6438 219.598 52.6438ZM233.623 38.8047C233.623 39.4688 233.092 40 232.428 40C231.737 40 231.206 39.4688 231.206 38.7781C231.206 38.0875 231.737 37.5563 232.428 37.5563C233.119 37.5563 233.623 38.0875 233.623 38.8047ZM220.661 29.3484C219.97 29.3484 219.439 28.8438 219.439 28.1531C219.439 27.4625 219.997 26.9047 220.661 26.9047C221.325 26.9047 221.883 27.4625 221.883 28.1266C221.883 28.8172 221.352 29.3484 220.661 29.3484ZM236.784 40.5844C236.094 40.5844 235.589 40.0531 235.589 39.3625C235.589 38.6984 236.12 38.1672 236.811 38.1406C237.502 38.1406 238.033 38.6719 238.006 39.3891C238.006 40.1063 237.475 40.6109 236.784 40.5844ZM222.892 37.1313C222.228 37.1313 221.697 36.5734 221.697 35.9094C221.697 35.2453 222.281 34.7141 222.945 34.7141C223.609 34.7141 224.141 35.2719 224.141 35.9359C224.141 36.6 223.583 37.1313 222.892 37.1313ZM240.264 41.9391C239.573 41.9125 239.042 41.3547 239.069 40.6641C239.095 40 239.653 39.4688 240.317 39.4953C241.008 39.5219 241.539 40.0797 241.513 40.7969C241.486 41.4609 240.928 41.9656 240.264 41.9391ZM226.106 37.1313C225.522 37.1313 225.07 36.6797 225.07 36.0953C225.07 35.5109 225.548 35.0594 226.133 35.0594C226.717 35.0594 227.169 35.5109 227.169 36.0953C227.142 36.6797 226.691 37.1313 226.106 37.1313ZM237.502 43.4C237.502 42.8156 237.953 42.3641 238.537 42.3375C239.122 42.3375 239.573 42.7891 239.573 43.3734C239.573 43.9578 239.069 44.4891 238.537 44.4625C237.98 44.4625 237.528 43.9844 237.502 43.4ZM224.884 28.3125C224.884 28.8969 224.433 29.3484 223.848 29.3484C223.264 29.3484 222.812 28.8703 222.812 28.2859C222.812 27.7016 223.291 27.25 223.902 27.25C224.459 27.2766 224.884 27.7281 224.884 28.3125ZM224.778 42.7625C224.778 43.3469 224.327 43.7984 223.769 43.7984C223.158 43.7984 222.706 43.3469 222.706 42.7625C222.706 42.1781 223.158 41.7266 223.742 41.7266C224.327 41.7 224.778 42.1516 224.778 42.7625ZM221.059 47.2516C220.475 47.2516 219.997 46.8 219.997 46.2156C219.997 45.6313 220.475 45.1531 221.059 45.1531C221.617 45.1531 222.095 45.6313 222.095 46.1891C222.095 46.8 221.644 47.2516 221.059 47.2516ZM236.094 42.0719C236.094 42.6828 235.642 43.1078 235.058 43.1078C234.5 43.1078 234.022 42.6031 234.022 42.0453C234.022 41.4609 234.5 41.0094 235.084 41.0094C235.642 41.0094 236.094 41.4875 236.094 42.0719ZM230.702 40.425C231.312 40.425 231.737 40.85 231.737 41.4609C231.737 42.0453 231.286 42.5234 230.702 42.4969C230.117 42.4969 229.639 42.0188 229.639 41.4609C229.639 40.8766 230.091 40.425 230.702 40.425ZM219.173 48.5797C219.173 49.1641 218.695 49.6156 218.138 49.6156C217.553 49.6156 217.102 49.1641 217.102 48.5797C217.102 47.9953 217.58 47.5172 218.138 47.5172C218.695 47.5438 219.173 48.0219 219.173 48.5797ZM224.459 33.0406C223.875 33.0406 223.423 32.5891 223.423 32.0047C223.423 31.4469 223.902 30.9688 224.486 30.9422C225.044 30.9156 225.522 31.4203 225.522 32.0047C225.495 32.5891 225.044 33.0406 224.459 33.0406ZM233.995 43.9313C233.995 44.4359 233.597 44.8609 233.092 44.8609C232.587 44.8609 232.216 44.4625 232.216 43.9578C232.216 43.4531 232.614 43.0547 233.092 43.0547C233.597 43.0547 233.995 43.4531 233.995 43.9313ZM223.981 40.1328C223.981 40.6375 223.583 41.0359 223.078 41.0359C222.627 41.0359 222.175 40.5844 222.175 40.1328C222.175 39.6547 222.6 39.2031 223.105 39.2297C223.583 39.2297 223.981 39.6281 223.981 40.1328ZM217.5 45.0734C218.005 45.0734 218.403 45.4719 218.377 45.9766C218.377 46.4547 217.952 46.8797 217.473 46.8797C216.969 46.8531 216.57 46.4281 216.57 45.95C216.57 45.4188 216.969 45.0469 217.5 45.0734ZM228.709 37.7156C228.205 37.7156 227.806 37.3438 227.806 36.8391C227.806 36.3344 228.178 35.9359 228.709 35.9359C229.214 35.9359 229.612 36.3344 229.612 36.8125C229.612 37.3172 229.214 37.7156 228.709 37.7156ZM227.062 31.8453C227.567 31.8453 227.939 32.2438 227.939 32.7484C227.939 33.2531 227.541 33.6516 227.036 33.6516C226.531 33.6516 226.133 33.2531 226.133 32.7219C226.159 32.2438 226.558 31.8453 227.062 31.8453ZM221.272 43.5859C221.272 44.0906 220.873 44.4891 220.395 44.5156C219.917 44.5156 219.492 44.0641 219.492 43.5859C219.492 43.0813 219.891 42.7094 220.395 42.7094C220.9 42.7094 221.272 43.0813 221.272 43.5859ZM228.763 42.4703C229.267 42.4703 229.639 42.8688 229.639 43.3734C229.639 43.8781 229.241 44.25 228.736 44.25C228.205 44.25 227.833 43.8516 227.833 43.3469C227.859 42.8422 228.258 42.4438 228.763 42.4703ZM237.502 45.2594C237.502 45.7906 237.13 46.1891 236.598 46.1625C236.094 46.1625 235.722 45.7641 235.695 45.2594C235.695 44.7813 236.094 44.3563 236.572 44.3563C237.077 44.3828 237.502 44.7813 237.502 45.2594ZM226.478 28.1531C226.983 28.1531 227.355 28.525 227.355 29.0297C227.355 29.5344 226.956 29.9328 226.478 29.9328C225.973 29.9328 225.575 29.5344 225.575 29.0297C225.575 28.525 225.973 28.1531 226.478 28.1531ZM229.241 30.1719C229.241 30.5969 228.895 30.9422 228.444 30.9156C228.019 30.9156 227.7 30.5703 227.7 30.1453C227.7 29.7203 228.045 29.375 228.47 29.375C228.922 29.4016 229.267 29.7469 229.241 30.1719ZM216.677 43.6125C216.677 43.1875 217.022 42.8688 217.447 42.8688C217.872 42.8688 218.244 43.2406 218.217 43.6656C218.191 44.0906 217.845 44.4359 217.447 44.4359C216.995 44.4094 216.65 44.0641 216.677 43.6125ZM235.403 46.4547C235.403 46.9063 235.058 47.2516 234.633 47.2516C234.208 47.2516 233.836 46.9063 233.836 46.4813C233.836 46.0563 234.181 45.7109 234.633 45.7109C235.058 45.7109 235.377 46.0297 235.403 46.4547ZM221.112 41.3016C221.112 41.7266 220.767 42.0719 220.342 42.0719C219.917 42.0719 219.572 41.7 219.572 41.275C219.572 40.85 219.944 40.5313 220.342 40.5313C220.767 40.5313 221.112 40.85 221.112 41.3016ZM229.055 34.6344C228.603 34.6344 228.284 34.2891 228.284 33.8641C228.284 33.4391 228.63 33.1203 229.055 33.1203C229.506 33.1203 229.825 33.4391 229.825 33.8906C229.852 34.3156 229.533 34.6344 229.055 34.6344ZM231.127 44.3828C231.552 44.3828 231.87 44.7016 231.87 45.1531C231.87 45.6047 231.525 45.95 231.073 45.95C230.648 45.95 230.33 45.6047 230.33 45.1797C230.356 44.7016 230.702 44.3828 231.127 44.3828ZM218.483 41.7266C218.483 42.0984 218.191 42.3906 217.819 42.3906C217.473 42.3906 217.128 42.0719 217.155 41.7C217.155 41.3281 217.473 41.0359 217.845 41.0359C218.217 41.0625 218.509 41.3547 218.483 41.7266ZM233.411 47.0922C233.411 47.4641 233.119 47.7563 232.747 47.7563C232.402 47.7563 232.083 47.4375 232.083 47.0922C232.083 46.7203 232.402 46.4281 232.773 46.4281C233.145 46.4281 233.411 46.7203 233.411 47.0922ZM229.931 30.8359C230.33 30.8359 230.622 31.1016 230.622 31.5C230.622 31.8719 230.33 32.1641 229.958 32.1641C229.586 32.1641 229.294 31.8984 229.294 31.5266C229.267 31.1016 229.533 30.8359 229.931 30.8359Z" fill="#203E5F"/>
</g>
<g filter="url(#filter2_d_6_21)">
<circle cx="307" cy="149" r="24" fill="white"/>
</g>
<path d="M308.35 161.35C310.2 161.16 311.865 160.4 313.345 158.88C315.01 157.17 315.75 154.89 315.75 152.8C315.75 152.23 315.38 151.85 314.825 151.85C312.605 151.85 310.57 152.61 308.905 154.32L308.35 154.89" stroke="#203E5F" stroke-miterlimit="10"/>
<path d="M304.28 161.35C302.43 161.16 300.765 160.4 299.285 158.88C297.62 157.17 296.88 154.89 296.88 152.8C296.88 152.23 297.25 151.85 297.805 151.85C300.025 151.85 302.06 152.61 303.725 154.32L304.28 154.89" stroke="#203E5F" stroke-miterlimit="10" stroke-linecap="round" stroke-linejoin="round"/>
<path d="M308.535 150.9C310.015 150.71 311.31 149.95 312.42 148.81C313.715 147.48 314.455 145.77 314.455 143.87C314.455 143.3 313.9 142.73 313.345 142.73C311.68 142.73 309.83 143.49 308.535 144.82C307.425 145.96 306.87 147.29 306.5 148.81M304.465 150.9C302.985 150.71 301.69 149.95 300.58 148.81C299.285 147.48 298.545 145.77 298.545 144.06C298.545 143.3 299.1 142.92 299.655 142.92C301.32 142.92 303.17 143.68 304.465 145.01C305.575 146.15 306.13 147.48 306.5 149M302.8 138.74C303.355 140.64 304.65 141.97 306.13 142.92C306.5 143.11 307.055 142.92 307.24 142.54C307.98 141.02 308.35 139.12 307.795 137.22C307.24 135.32 305.945 133.99 304.465 133.04C304.095 132.85 303.54 133.04 303.355 133.42C302.43 134.94 302.245 136.84 302.8 138.74Z" stroke="#203E5F" stroke-miterlimit="10"/>
<path d="M308.35 163.25C308.35 164.39 307.61 165.15 306.5 165.15C305.39 165.15 304.65 164.39 304.65 163.25V149.95C304.65 148.81 305.39 148.05 306.5 148.05C307.61 148.05 308.35 148.81 308.35 149.95V163.25Z" stroke="#203E5F" stroke-miterlimit="10"/>
<path d="M308.35 163.25C308.35 164.39 307.61 165.15 306.5 165.15C305.39 165.15 304.65 164.39 304.65 163.25V149.95C304.65 148.81 305.39 148.05 306.5 148.05C307.61 148.05 308.35 148.81 308.35 149.95V163.25Z" stroke="#203E5F" stroke-miterlimit="10"/>
<g filter="url(#filter3_d_6_21)">
<circle cx="44" cy="215" r="24" fill="white"/>
</g>
<path d="M44.2801 230.646V230.88H41.7607L41.2459 228.961C41.1807 228.727 41.0623 228.51 40.9 228.329C40.7377 228.148 40.5357 228.007 40.3099 227.916C39.5536 227.613 38.8444 227.203 38.2039 226.699C38.0125 226.549 37.7891 226.445 37.5511 226.395C37.313 226.345 37.0667 226.35 36.8311 226.411L34.9123 226.925L33.1729 223.915L34.5769 222.511C34.7476 222.337 34.8759 222.126 34.9517 221.895C35.0275 221.664 35.0487 221.418 35.0137 221.177C34.9521 220.774 34.9208 220.367 34.9201 219.96V219.18H35.7001C35.8038 219.181 35.9064 219.202 36.0018 219.243C36.0973 219.284 36.1838 219.343 36.2563 219.417C36.3288 219.491 36.3859 219.579 36.4243 219.675C36.4627 219.772 36.4816 219.875 36.4801 219.979C36.4805 220.304 36.5066 220.629 36.5581 220.951C36.628 221.433 36.5847 221.925 36.4318 222.388C36.2788 222.851 36.0203 223.272 35.6767 223.618L35.1229 224.172L35.6689 225.108L36.4255 224.905C36.8948 224.782 37.3862 224.77 37.8612 224.869C38.3361 224.967 38.7818 225.175 39.1633 225.475C39.6898 225.882 40.2698 226.215 40.8871 226.465C41.3391 226.644 41.7431 226.927 42.0668 227.29C42.3905 227.652 42.6248 228.086 42.7513 228.556L42.9541 229.32C43.1282 229.32 43.3006 229.354 43.4615 229.421C43.6224 229.488 43.7685 229.585 43.8917 229.708C44.0148 229.831 44.1125 229.978 44.1791 230.139C44.2458 230.299 44.2801 230.472 44.2801 230.646Z" fill="#C7CDE8"/>
<path d="M55.2 220.74C56.822 220.688 58.3647 220.026 59.5201 218.886C60.6755 217.747 61.3587 216.213 61.4332 214.592C61.5077 212.971 60.9681 211.381 59.9221 210.141C58.8761 208.9 57.4007 208.099 55.7903 207.899C55.9167 207.35 55.9804 206.789 55.98 206.227C56.007 204.336 55.2831 202.512 53.9672 201.154C52.6512 199.796 50.8506 199.016 48.96 198.983C47.5411 198.985 46.158 199.429 45.0021 200.252C44.2247 199.121 43.1857 198.195 41.9735 197.553C40.7614 196.91 39.412 196.569 38.04 196.56C35.7286 196.6 33.5273 197.555 31.919 199.216C30.3106 200.876 29.4263 203.107 29.46 205.418C29.459 206.357 29.6045 207.289 29.8911 208.182C28.468 208.679 27.2635 209.658 26.486 210.949C25.7084 212.241 25.4068 213.763 25.6333 215.253C25.8599 216.744 26.6003 218.108 27.7264 219.11C28.8525 220.112 30.2935 220.688 31.8 220.74H33.3951C33.4136 220.961 33.4378 221.184 33.4723 221.41L32.0708 222.808C31.8279 223.051 31.6718 223.367 31.6268 223.708C31.5817 224.049 31.6502 224.395 31.8217 224.693L33.5622 227.707C33.7345 228.005 33.9999 228.237 34.3175 228.369C34.6351 228.5 34.9871 228.523 35.3191 228.434L37.2356 227.925C37.9957 228.524 38.8394 229.008 39.7398 229.362L40.252 231.283C40.3412 231.615 40.5371 231.908 40.8095 232.117C41.082 232.326 41.4157 232.44 41.7591 232.44H45.2409C45.5845 232.439 45.9183 232.326 46.1908 232.116C46.4633 231.907 46.6592 231.614 46.7484 231.282L47.2671 229.366C48.1655 229.008 49.0066 228.52 49.7636 227.918L51.682 228.434C52.0138 228.523 52.3655 228.499 52.6829 228.368C53.0002 228.237 53.2654 228.005 53.4377 227.707L55.1783 224.693C55.3497 224.395 55.4182 224.049 55.3732 223.708C55.3282 223.367 55.1721 223.051 54.9292 222.808L53.5318 221.403C53.5644 221.181 53.5877 220.96 53.6056 220.74H55.2ZM27.12 214.305C27.0983 213.167 27.4826 212.058 28.2041 211.177C28.9256 210.296 29.9372 209.701 31.0577 209.498C31.1746 209.478 31.2856 209.432 31.3821 209.364C31.4787 209.295 31.5583 209.205 31.6149 209.101C31.6716 208.997 31.7037 208.881 31.7089 208.763C31.7141 208.644 31.6923 208.526 31.645 208.417C31.2319 207.472 31.0191 206.45 31.02 205.418C30.986 203.52 31.7058 201.686 33.0217 200.318C34.3376 198.95 36.1422 198.16 38.04 198.12C39.2894 198.133 40.5127 198.48 41.5827 199.125C42.6526 199.77 43.5304 200.69 44.1246 201.79C44.1819 201.893 44.2619 201.982 44.3587 202.05C44.4555 202.118 44.5665 202.163 44.6833 202.182C44.8001 202.201 44.9196 202.193 45.0329 202.159C45.1461 202.125 45.2501 202.065 45.3369 201.985C46.3192 201.064 47.6136 200.549 48.96 200.543C50.4369 200.575 51.841 201.191 52.8645 202.257C53.888 203.322 54.4473 204.75 54.42 206.227C54.4207 206.966 54.281 207.7 54.0083 208.387C53.9594 208.511 53.9429 208.645 53.9603 208.777C53.9777 208.908 54.0284 209.033 54.1077 209.14C54.1857 209.248 54.2908 209.334 54.4124 209.388C54.534 209.443 54.6679 209.465 54.8005 209.451C54.9326 209.44 55.0651 209.43 55.2 209.43C56.4585 209.481 57.6483 210.017 58.5206 210.926C59.3929 211.835 59.88 213.045 59.88 214.305C59.88 215.565 59.3929 216.775 58.5206 217.684C57.6483 218.593 56.4585 219.129 55.2 219.18H53.6049C53.5864 218.959 53.5622 218.736 53.5277 218.51L54.9292 217.112C55.1721 216.869 55.3282 216.553 55.3732 216.212C55.4182 215.871 55.3497 215.525 55.1783 215.227L53.4377 212.213C53.2654 211.915 53 211.683 52.6826 211.552C52.3651 211.42 52.0132 211.397 51.6813 211.486L49.7647 211.995C49.0048 211.396 48.1609 210.912 47.2602 210.559L46.748 208.637C46.6589 208.305 46.4629 208.012 46.1905 207.803C45.9181 207.594 45.5843 207.48 45.2409 207.48H41.7591C41.4155 207.48 41.0815 207.594 40.809 207.804C40.5365 208.013 40.3406 208.306 40.2516 208.638L39.7333 210.554C38.8346 210.912 37.9932 211.4 37.236 212.002L35.3187 211.486C34.9868 211.397 34.6348 211.42 34.3173 211.551C33.9998 211.683 33.7344 211.915 33.5622 212.213L31.8217 215.227C31.6502 215.525 31.5817 215.871 31.6268 216.212C31.6718 216.553 31.8279 216.869 32.0708 217.112L33.4682 218.517C33.4356 218.739 33.4123 218.96 33.3944 219.18H31.8C30.5336 219.152 29.3298 218.623 28.4525 217.71C27.5753 216.796 27.0961 215.572 27.12 214.305ZM53.827 223.913L52.0869 226.927L50.1681 226.411C49.9335 226.348 49.6873 226.341 49.4496 226.391C49.2119 226.441 48.9893 226.547 48.8 226.699C48.1578 227.204 47.4468 227.614 46.6886 227.918C46.4624 228.007 46.2601 228.147 46.0976 228.328C45.9352 228.509 45.8171 228.725 45.7528 228.96L45.2409 230.88H41.7591L41.2468 228.959C41.1825 228.725 41.0647 228.509 40.9028 228.328C40.7408 228.148 40.539 228.007 40.3134 227.918C39.5543 227.614 38.8426 227.204 38.2 226.699C38.0103 226.547 37.7874 226.442 37.5495 226.392C37.3116 226.342 37.0652 226.348 36.8304 226.411L34.9135 226.927L33.173 223.913L34.5738 222.515C34.7458 222.341 34.8749 222.129 34.9509 221.897C35.0268 221.665 35.0476 221.418 35.0114 221.176C34.8895 220.37 34.8895 219.55 35.0114 218.744C35.0475 218.502 35.0268 218.255 34.951 218.023C34.8752 217.791 34.7463 217.58 34.5745 217.406L33.173 216.007L34.9135 212.993L36.8296 213.508C37.0645 213.572 37.3113 213.579 37.5495 213.529C37.7878 213.479 38.0108 213.373 38.2004 213.221C38.8427 212.716 39.554 212.306 40.3126 212.003C40.5384 211.913 40.7404 211.772 40.9026 211.591C41.0648 211.411 41.1827 211.195 41.2472 210.96L41.7591 209.04L45.2409 209.04L45.7532 210.961C45.8176 211.195 45.9355 211.411 46.0976 211.592C46.2596 211.772 46.4614 211.913 46.687 212.002C47.4459 212.306 48.1575 212.716 48.8 213.221C48.9896 213.373 49.2124 213.478 49.4503 213.528C49.6882 213.578 49.9345 213.572 50.1692 213.509L52.0865 212.993L53.827 216.007L52.4262 217.405C52.2542 217.579 52.1251 217.791 52.0491 218.023C51.9731 218.255 51.9524 218.502 51.9886 218.744C52.1105 219.55 52.1105 220.37 51.9886 221.176C51.9525 221.418 51.9732 221.665 52.049 221.897C52.1248 222.129 52.2537 222.34 52.4255 222.514L53.827 223.913Z" fill="#123757"/>
<path d="M33.36 206.198C33.5669 206.198 33.7653 206.116 33.9115 205.97C34.0578 205.824 34.14 205.625 34.14 205.418C34.1196 204.362 34.5186 203.341 35.2496 202.579C35.9807 201.817 36.9841 201.375 38.04 201.352C38.2469 201.352 38.4453 201.269 38.5915 201.123C38.7378 200.977 38.82 200.778 38.82 200.572C38.82 200.365 38.7378 200.166 38.5915 200.02C38.4453 199.874 38.2469 199.792 38.04 199.792C36.5704 199.816 35.1704 200.422 34.1469 201.476C33.1234 202.531 32.5599 203.949 32.58 205.418C32.58 205.625 32.6622 205.824 32.8084 205.97C32.9547 206.116 33.1531 206.198 33.36 206.198Z" fill="#123757"/>
<path d="M48.6271 218.469L41.862 215.266C41.6106 215.147 41.3331 215.093 41.0554 215.11C40.7777 215.127 40.5088 215.214 40.2737 215.362C40.0386 215.511 39.845 215.717 39.7108 215.961C39.5766 216.204 39.5063 216.478 39.5064 216.756V223.164C39.5058 223.442 39.5758 223.716 39.7098 223.96C39.8438 224.204 40.0374 224.41 40.2726 224.559C40.5078 224.708 40.7769 224.795 41.0548 224.811C41.3327 224.828 41.6102 224.774 41.8616 224.655L48.6271 221.451L48.6275 221.451C48.9099 221.317 49.1485 221.106 49.3156 220.842C49.4827 220.578 49.5714 220.272 49.5713 219.959C49.5713 219.647 49.4825 219.341 49.3154 219.077C49.1482 218.813 48.9095 218.602 48.6271 218.469Z" fill="#203E5F"/>
<defs>
<filter id="filter0_d_6_21" x="115" y="109" width="126" height="126" filterUnits="userSpaceOnUse" color-interpolation-filters="sRGB">
<feFlood flood-opacity="0" result="BackgroundImageFix"/>
<feColorMatrix in="SourceAlpha" type="matrix" values="0 0 0 0 0 0 0 0 0 0 0 0 0 0 0 0 0 0 127 0" result="hardAlpha"/>
<feOffset dy="8"/>
<feGaussianBlur stdDeviation="10"/>
<feComposite in2="hardAlpha" operator="out"/>
<feColorMatrix type="matrix" values="0 0 0 0 0 0 0 0 0 0 0 0 0 0 0 0 0 0 0.09 0"/>
<feBlend mode="normal" in2="BackgroundImageFix" result="effect1_dropShadow_6_21"/>
<feBlend mode="normal" in="SourceGraphic" in2="effect1_dropShadow_6_21" result="shape"/>
</filter>
<filter id="filter1_d_6_21" x="182" y="0" width="88" height="88" filterUnits="userSpaceOnUse" color-interpolation-filters="sRGB">
<feFlood flood-opacity="0" result="BackgroundImageFix"/>
<feColorMatrix in="SourceAlpha" type="matrix" values="0 0 0 0 0 0 0 0 0 0 0 0 0 0 0 0 0 0 127 0" result="hardAlpha"/>
<feOffset dy="4"/>
<feGaussianBlur stdDeviation="10"/>
<feComposite in2="hardAlpha" operator="out"/>
<feColorMatrix type="matrix" values="0 0 0 0 0 0 0 0 0 0 0 0 0 0 0 0 0 0 0.12 0"/>
<feBlend mode="normal" in2="BackgroundImageFix" result="effect1_dropShadow_6_21"/>
<feBlend mode="normal" in="SourceGraphic" in2="effect1_dropShadow_6_21" result="shape"/>
</filter>
<filter id="filter2_d_6_21" x="263" y="109" width="88" height="88" filterUnits="userSpaceOnUse" color-interpolation-filters="sRGB">
<feFlood flood-opacity="0" result="BackgroundImageFix"/>
<feColorMatrix in="SourceAlpha" type="matrix" values="0 0 0 0 0 0 0 0 0 0 0 0 0 0 0 0 0 0 127 0" result="hardAlpha"/>
<feOffset dy="4"/>
<feGaussianBlur stdDeviation="10"/>
<feComposite in2="hardAlpha" operator="out"/>
<feColorMatrix type="matrix" values="0 0 0 0 0 0 0 0 0 0 0 0 0 0 0 0 0 0 0.12 0"/>
<feBlend mode="normal" in2="BackgroundImageFix" result="effect1_dropShadow_6_21"/>
<feBlend mode="normal" in="SourceGraphic" in2="effect1_dropShadow_6_21" result="shape"/>
</filter>
<filter id="filter3_d_6_21" x="0" y="175" width="88" height="88" filterUnits="userSpaceOnUse" color-interpolation-filters="sRGB">
<feFlood flood-opacity="0" result="BackgroundImageFix"/>
<feColorMatrix in="SourceAlpha" type="matrix" values="0 0 0 0 0 0 0 0 0 0 0 0 0 0 0 0 0 0 127 0" result="hardAlpha"/>
<feOffset dy="4"/>
<feGaussianBlur stdDeviation="10"/>
<feComposite in2="hardAlpha" operator="out"/>
<feColorMatrix type="matrix" values="0 0 0 0 0 0 0 0 0 0 0 0 0 0 0 0 0 0 0.12 0"/>
<feBlend mode="normal" in2="BackgroundImageFix" result="effect1_dropShadow_6_21"/>
<feBlend mode="normal" in="SourceGraphic" in2="effect1_dropShadow_6_21" result="shape"/>
</filter>
<clipPath id="clip0_6_21">
<rect width="34" height="34" fill="white" transform="translate(209 23)"/>
</clipPath>
</defs>
</svg>
