<svg width="30" height="30" viewBox="0 0 30 30" fill="none" xmlns="http://www.w3.org/2000/svg">
<circle cx="15" cy="15" r="15" fill="#E76F00" fill-opacity="0.2"/>
<path d="M21 18.75C21.3978 18.75 21.7794 18.592 22.0607 18.3107C22.342 18.0294 22.5 17.6478 22.5 17.25V9C22.5 8.60218 22.342 8.22064 22.0607 7.93934C21.7794 7.65804 21.3978 7.5 21 7.5H13.095C13.3575 7.9575 13.5 8.475 13.5 9H21V17.25H14.25V18.75M17.25 11.25V12.75H12.75V22.5H11.25V18H9.75V22.5H8.25V16.5H7.125V12.75C7.125 12.3522 7.28304 11.9706 7.56434 11.6893C7.84564 11.408 8.22718 11.25 8.625 11.25H17.25ZM12 9C12 9.39782 11.842 9.77936 11.5607 10.0607C11.2794 10.342 10.8978 10.5 10.5 10.5C10.1022 10.5 9.72064 10.342 9.43934 10.0607C9.15804 9.77936 9 9.39782 9 9C9 8.60218 9.15804 8.22064 9.43934 7.93934C9.72064 7.65804 10.1022 7.5 10.5 7.5C10.8978 7.5 11.2794 7.65804 11.5607 7.93934C11.842 8.22064 12 8.60218 12 9Z" fill="#203E5F"/>
</svg>
