<svg width="1440" height="336" viewBox="0 0 1440 336" fill="none" xmlns="http://www.w3.org/2000/svg">
<g clip-path="url(#clip0_778_1046)">
<path d="M1489 176.973C1489 176.973 1130 -90.4011 772.5 121.973C415 334.347 -9 113.346 -9 113.346V802.346H1431L1489 176.973Z" fill="black" fill-opacity="0.45"/>
<path d="M1489 136.973C1489 136.973 1130 -130.401 772.5 81.9728C415 294.347 -9 73.3463 -9 73.3463V762.346H1431L1489 136.973Z" fill="black" fill-opacity="0.15"/>
<path d="M0 169C0 169 321 322.5 720 169C1119 15.4994 1440 169 1440 169V858H0V169Z" fill="#1C2025"/>
<path d="M1489 176.973C1489 176.973 1130 -90.4011 772.5 121.973C415 334.347 -9 113.346 -9 113.346V802.346H1431L1489 176.973Z" fill="black" fill-opacity="0.45"/>
<path d="M1489 136.973C1489 136.973 1130 -130.401 772.5 81.9728C415 294.347 -9 73.3463 -9 73.3463V762.346H1431L1489 136.973Z" fill="black" fill-opacity="0.15"/>
<path d="M0 169C0 169 321 322.5 720 169C1119 15.4994 1440 169 1440 169V858H0V169Z" fill="#1C2025"/>
</g>
<defs>
<clipPath id="clip0_778_1046">
<rect width="1440" height="336" fill="white"/>
</clipPath>
</defs>
</svg>
