<svg width="1440" height="715" viewBox="0 0 1440 715" fill="none" xmlns="http://www.w3.org/2000/svg">
<mask id="mask0_98_473" style="mask-type:alpha" maskUnits="userSpaceOnUse" x="0" y="0" width="1440" height="715">
<rect width="1440" height="715" fill="white"/>
</mask>
<g mask="url(#mask0_98_473)">
<path d="M-0.000232697 0.000102997C-0.000232697 0.000102997 2554.5 -143.5 1440 0.000102997C325.5 143.5 736.5 302 289 409.5C-158.5 517 -0.000232697 715 -0.000232697 715V0.000102997Z" fill="#FFE9CA" fill-opacity="0.65"/>
<path d="M-39.7483 -20.2222C-39.7483 -20.2222 2514.75 -163.722 1400.25 -20.2222C285.752 123.278 696.752 281.778 249.252 389.278C-198.248 496.778 -39.7483 694.778 -39.7483 694.778V-20.2222Z" fill="#FFE9CA" fill-opacity="0.85"/>
<path d="M-20.7483 48.7778C-20.7483 48.7778 2533.75 -94.7223 1419.25 48.7778C304.752 192.278 715.752 350.778 268.252 458.278C-179.248 565.778 -20.7483 763.778 -20.7483 763.778V48.7778Z" fill="#FFE9CA" fill-opacity="0.25"/>
</g>
</svg>
