<svg width="48" height="48" viewBox="0 0 48 48" fill="none" xmlns="http://www.w3.org/2000/svg">
<circle cx="24" cy="24" r="24" fill="#61DAFB" fill-opacity="0.6"/>
<path d="M31 15H17C16.2044 15 15.4413 15.3161 14.8787 15.8787C14.3161 16.4413 14 17.2044 14 18V26C14 26.7956 14.3161 27.5587 14.8787 28.1213C15.4413 28.6839 16.2044 29 17 29H23V31H19C18.7348 31 18.4804 31.1054 18.2929 31.2929C18.1054 31.4804 18 31.7348 18 32C18 32.2652 18.1054 32.5196 18.2929 32.7071C18.4804 32.8946 18.7348 33 19 33H29C29.2652 33 29.5196 32.8946 29.7071 32.7071C29.8946 32.5196 30 32.2652 30 32C30 31.7348 29.8946 31.4804 29.7071 31.2929C29.5196 31.1054 29.2652 31 29 31H25V29H31C31.7956 29 32.5587 28.6839 33.1213 28.1213C33.6839 27.5587 34 26.7956 34 26V18C34 17.2044 33.6839 16.4413 33.1213 15.8787C32.5587 15.3161 31.7956 15 31 15ZM32 26C32 26.2652 31.8946 26.5196 31.7071 26.7071C31.5196 26.8946 31.2652 27 31 27H17C16.7348 27 16.4804 26.8946 16.2929 26.7071C16.1054 26.5196 16 26.2652 16 26V18C16 17.7348 16.1054 17.4804 16.2929 17.2929C16.4804 17.1054 16.7348 17 17 17H31C31.2652 17 31.5196 17.1054 31.7071 17.2929C31.8946 17.4804 32 17.7348 32 18V26Z" fill="white"/>
<g clip-path="url(#clip0_209_122)">
<path d="M22.4732 23.18C22.4111 23.2424 22.3763 23.3269 22.3763 23.415C22.3763 23.503 22.4111 23.5875 22.4732 23.65C22.5042 23.6812 22.5411 23.706 22.5817 23.7229C22.6223 23.7399 22.6659 23.7486 22.7099 23.7486C22.7539 23.7486 22.7975 23.7399 22.8381 23.7229C22.8787 23.706 22.9156 23.6812 22.9466 23.65C23.0086 23.5875 23.0435 23.503 23.0435 23.415C23.0435 23.3269 23.0086 23.2424 22.9466 23.18C22.9156 23.1487 22.8787 23.1239 22.8381 23.107C22.7975 23.0901 22.7539 23.0814 22.7099 23.0814C22.6659 23.0814 22.6223 23.0901 22.5817 23.107C22.5411 23.1239 22.5042 23.1487 22.4732 23.18V23.18ZM22.4732 20.35C22.4111 20.4124 22.3763 20.4969 22.3763 20.585C22.3763 20.673 22.4111 20.7575 22.4732 20.82C22.5042 20.8512 22.5411 20.876 22.5817 20.8929C22.6223 20.9099 22.6659 20.9186 22.7099 20.9186C22.7539 20.9186 22.7975 20.9099 22.8381 20.8929C22.8787 20.876 22.9156 20.8512 22.9466 20.82C23.0086 20.7575 23.0435 20.673 23.0435 20.585C23.0435 20.4969 23.0086 20.4124 22.9466 20.35C22.9156 20.3187 22.8787 20.2939 22.8381 20.277C22.7975 20.2601 22.7539 20.2514 22.7099 20.2514C22.6659 20.2514 22.6223 20.2601 22.5817 20.277C22.5411 20.2939 22.5042 20.3187 22.4732 20.35ZM24.1232 23.6833C24.0573 23.6833 23.9928 23.7028 23.938 23.7395C23.8832 23.7761 23.8405 23.8282 23.8153 23.8891C23.79 23.95 23.7834 24.017 23.7963 24.0817C23.8092 24.1463 23.8409 24.2057 23.8875 24.2523C23.9341 24.299 23.9935 24.3307 24.0582 24.3436C24.1228 24.3564 24.1899 24.3498 24.2508 24.3246C24.3117 24.2994 24.3637 24.2566 24.4004 24.2018C24.437 24.147 24.4566 24.0826 24.4566 24.0166C24.4588 23.9715 24.4519 23.9263 24.4361 23.8839C24.4204 23.8416 24.3962 23.8028 24.365 23.7701C24.3338 23.7373 24.2963 23.7113 24.2548 23.6935C24.2132 23.6757 24.1684 23.6666 24.1232 23.6666V23.6833ZM22.1232 21.6833C22.0573 21.6833 21.9928 21.7028 21.938 21.7395C21.8832 21.7761 21.8405 21.8282 21.8153 21.8891C21.79 21.95 21.7834 22.017 21.7963 22.0817C21.8092 22.1463 21.8409 22.2057 21.8875 22.2523C21.9341 22.299 21.9935 22.3307 22.0582 22.3436C22.1228 22.3564 22.1899 22.3498 22.2508 22.3246C22.3117 22.2994 22.3637 22.2566 22.4004 22.2018C22.437 22.147 22.4566 22.0826 22.4566 22.0166C22.4588 21.9715 22.4519 21.9263 22.4361 21.8839C22.4204 21.8416 22.3962 21.8028 22.365 21.7701C22.3338 21.7373 22.2963 21.7113 22.2547 21.6935C22.2132 21.6757 22.1684 21.6666 22.1232 21.6666V21.6833ZM24.1232 19.6833C24.0573 19.6833 23.9928 19.7028 23.938 19.7395C23.8832 19.7761 23.8405 19.8282 23.8153 19.8891C23.79 19.95 23.7834 20.017 23.7963 20.0817C23.8092 20.1463 23.8409 20.2057 23.8875 20.2523C23.9341 20.299 23.9935 20.3307 24.0582 20.3436C24.1228 20.3564 24.1899 20.3498 24.2508 20.3246C24.3117 20.2994 24.3637 20.2566 24.4004 20.2018C24.437 20.147 24.4566 20.0826 24.4566 20.0166C24.4588 19.9715 24.4519 19.9263 24.4361 19.8839C24.4204 19.8416 24.3962 19.8028 24.365 19.7701C24.3338 19.7373 24.2963 19.7113 24.2548 19.6935C24.2132 19.6757 24.1684 19.6666 24.1232 19.6666V19.6833ZM25.3032 20.3666C25.2564 20.4132 25.2245 20.4726 25.2114 20.5373C25.1984 20.602 25.2049 20.6691 25.2301 20.7301C25.2552 20.7912 25.298 20.8433 25.3528 20.8801C25.4077 20.9168 25.4722 20.9364 25.5382 20.9364C25.6042 20.9364 25.6688 20.9168 25.7236 20.8801C25.7785 20.8433 25.8212 20.7912 25.8464 20.7301C25.8715 20.6691 25.878 20.602 25.865 20.5373C25.852 20.4726 25.82 20.4132 25.7732 20.3666C25.713 20.3023 25.6297 20.2644 25.5417 20.2613C25.4536 20.2582 25.3678 20.29 25.3032 20.35V20.3666ZM27.4032 20.3666C27.0985 19.7574 26.63 19.2451 26.0504 18.8872C25.4708 18.5293 24.803 18.3399 24.1218 18.3403C23.4405 18.3407 22.7729 18.5309 22.1937 18.8895C21.6146 19.2481 21.1467 19.761 20.8427 20.3706C20.5387 20.9802 20.4105 21.6624 20.4725 22.3408C20.5345 23.0191 20.7843 23.6668 21.1938 24.2112C21.6033 24.7556 22.1563 25.1751 22.7909 25.4228C23.4255 25.6704 24.1166 25.7364 24.7866 25.6133C24.955 25.5816 25.1155 25.5166 25.2586 25.4222C25.4017 25.3278 25.5245 25.2058 25.6199 25.0633C25.7227 24.9084 25.7936 24.7346 25.8285 24.5521C25.8634 24.3695 25.8616 24.1818 25.8232 24C25.8022 23.8901 25.7911 23.7785 25.7899 23.6666C25.7913 23.3436 25.8866 23.028 26.0642 22.7581C26.2417 22.4883 26.4938 22.2758 26.7899 22.1466C26.9495 22.0752 27.0928 21.9717 27.2109 21.8427C27.329 21.7138 27.4194 21.5619 27.4766 21.3966C27.5344 21.2277 27.5576 21.0489 27.545 20.8709C27.5324 20.6928 27.4842 20.5191 27.4032 20.36V20.3666ZM26.8366 21.18C26.8081 21.2597 26.764 21.333 26.7067 21.3954C26.6494 21.4578 26.5803 21.5081 26.5032 21.5433C26.0932 21.7268 25.7449 22.0248 25.5001 22.4015C25.2553 22.7781 25.1244 23.2174 25.1232 23.6666C25.1237 23.8233 25.1393 23.9796 25.1699 24.1333C25.1902 24.2272 25.1916 24.3243 25.1738 24.4187C25.1561 24.5132 25.1196 24.6032 25.0666 24.6833C25.0217 24.7534 24.9626 24.8134 24.8931 24.8593C24.8236 24.9052 24.7453 24.9361 24.6632 24.95C24.4852 24.9834 24.3044 25.0002 24.1232 25C23.7213 25.0002 23.3234 24.9196 22.9532 24.763C22.583 24.6064 22.248 24.3771 21.9682 24.0885C21.6884 23.8 21.4694 23.4582 21.3242 23.0834C21.1791 22.7085 21.1107 22.3084 21.1232 21.9066C21.1491 21.1576 21.4529 20.4449 21.9754 19.9076C22.498 19.3703 23.2018 19.0467 23.9499 19H24.1199C24.6785 19.0001 25.2259 19.1562 25.7006 19.4507C26.1753 19.7451 26.5583 20.1662 26.8066 20.6666C26.883 20.825 26.8937 21.0071 26.8366 21.1733V21.18ZM24.1232 21.6666C24.0573 21.6666 23.9928 21.6862 23.938 21.7228C23.8832 21.7594 23.8405 21.8115 23.8153 21.8724C23.79 21.9333 23.7834 22.0003 23.7963 22.065C23.8092 22.1297 23.8409 22.189 23.8875 22.2357C23.9341 22.2823 23.9935 22.314 24.0582 22.3269C24.1228 22.3398 24.1899 22.3332 24.2508 22.3079C24.3117 22.2827 24.3637 22.24 24.4004 22.1852C24.437 22.1303 24.4566 22.0659 24.4566 22C24.4566 21.9116 24.4214 21.8268 24.3589 21.7643C24.2964 21.7018 24.2116 21.6666 24.1232 21.6666Z" fill="white"/>
</g>
<defs>
<clipPath id="clip0_209_122">
<rect width="8" height="8" fill="white" transform="translate(20 18)"/>
</clipPath>
</defs>
</svg>
